<?xml version="1.0" standalone="no"?>
<!DOCTYPE svg PUBLIC "-//W3C//DTD SVG 1.1//EN" "http://www.w3.org/Graphics/SVG/1.1/DTD/svg11.dtd" >
<svg xmlns="http://www.w3.org/2000/svg" xmlns:xlink="http://www.w3.org/1999/xlink" version="1.1">
<metadata>
Created by FontForge 20170924 at Thu Apr 25 16:20:34 2019
 By www-data
Copyright (C) 2019 Alibaba (China) Co., Ltd. All rights reserved.
</metadata>
<defs>
<font id="AlibabaSans-Light" horiz-adv-x="396" >
  <font-face 
    font-family="Alibaba Sans"
    font-weight="300"
    font-stretch="normal"
    units-per-em="1000"
    panose-1="2 11 3 3 2 2 3 4 2 4"
    ascent="780"
    descent="-220"
    x-height="540"
    cap-height="694"
    bbox="-320 -279 1171 1097"
    underline-thickness="50"
    underline-position="-100"
    stemh="41"
    stemv="45"
    unicode-range="U+000D-FEFF"
  />
<missing-glyph horiz-adv-x="575" 
d="M80 0v742h415v-742h-415zM150 66h276v611h-276v-611z" />
    <glyph glyph-name="f_f" unicode="ff" horiz-adv-x="615" 
d="M550 723c-76 0 -107 -41 -107 -171v-12h143v-41h-143v-499h-45v499h-248v-499h-45v499h-94v41h94v27c0 140 57 197 153 197c19 0 49 -2 67 -5v-41c-18 3 -38 5 -68 5c-76 0 -107 -41 -107 -171v-12h248v27c0 140 56 197 153 197c19 0 49 -2 67 -5v-41c-18 3 -38 5 -68 5z
" />
    <glyph glyph-name="f_f_i" unicode="ffi" horiz-adv-x="832" 
d="M398 567c0 140 56 197 153 197c18 0 40 -2 58 -5v-41c-18 3 -33 5 -59 5c-76 0 -107 -41 -107 -171v-12h143v-41h-143v-499h-45v499h-248v-499h-45v499h-94v41h94v27c0 140 57 197 153 197c19 0 49 -2 67 -5v-41c-18 3 -38 5 -68 5c-76 0 -107 -41 -107 -171v-12h248v27z
M714 726c22 0 30 -4 30 -33s-8 -33 -30 -33c-24 0 -32 4 -32 33s8 33 32 33zM690 0v540h45v-540h-45z" />
    <glyph glyph-name="f_f_l" unicode="ffl" horiz-adv-x="842" 
d="M398 567c0 140 56 197 153 197c18 0 39 -2 57 -5v-41c-18 3 -32 5 -58 5c-76 0 -107 -41 -107 -171v-12h143v-41h-143v-499h-45v499h-248v-499h-45v499h-94v41h94v27c0 140 57 197 153 197c19 0 49 -2 67 -5v-41c-18 3 -38 5 -68 5c-76 0 -107 -41 -107 -171v-12h248v27z
M789 33c21 0 33 2 48 6v-39c-15 -4 -29 -6 -54 -6c-51 0 -93 18 -93 97v669h45v-657c0 -56 15 -70 54 -70z" />
    <glyph glyph-name=".notdef" horiz-adv-x="575" 
d="M80 0v742h415v-742h-415zM150 66h276v611h-276v-611z" />
    <glyph glyph-name="NULL" horiz-adv-x="0" 
 />
    <glyph glyph-name="NULL" horiz-adv-x="0" 
 />
    <glyph glyph-name="CR" unicode="&#xd;" horiz-adv-x="237" 
 />
    <glyph glyph-name="space" unicode=" " horiz-adv-x="237" 
 />
    <glyph glyph-name="exclam" unicode="!" horiz-adv-x="327" 
d="M143 158l-6 536h50l-7 -536h-37zM164 -10c-32 0 -43 6 -43 44s11 43 43 43c30 0 41 -5 41 -43s-11 -44 -41 -44z" />
    <glyph glyph-name="quotedbl" unicode="&#x22;" horiz-adv-x="390" 
d="M120 465l-19 295h64l-18 -295h-27zM244 465l-19 295h64l-18 -295h-27z" />
    <glyph glyph-name="numbersign" unicode="#" horiz-adv-x="600" 
d="M585 459h-115l-52 -216h167v-41h-177l-48 -202h-48l49 202h-191l-48 -202h-49l49 202h-107v41h117l52 216h-169v41h179l47 194h47l-46 -194h190l47 194h47l-46 -194h105v-41zM370 243l52 216h-190l-52 -216h190z" />
    <glyph glyph-name="dollar" unicode="$" horiz-adv-x="545" 
d="M466 191c0 -116 -60 -175 -175 -184v-145h-38v144c-83 0 -151 11 -188 25v45c45 -16 108 -28 188 -29v299c-121 32 -172 62 -172 173s58 165 172 170v98h38v-98c57 -2 117 -12 146 -23v-44c-38 15 -93 24 -146 26v-271c130 -38 175 -81 175 -186zM125 519
c0 -74 24 -100 128 -131v260c-81 -4 -128 -33 -128 -129zM291 48c93 9 131 55 131 141c0 82 -34 115 -131 146v-287z" />
    <glyph glyph-name="percent" unicode="%" horiz-adv-x="800" 
d="M201 323c-86 0 -134 39 -134 190s48 191 134 191c85 0 133 -40 133 -191s-48 -190 -133 -190zM177 0l406 694h45l-407 -694h-44zM201 360c65 0 90 33 90 153c0 122 -25 154 -90 154c-63 0 -91 -32 -91 -154c0 -120 28 -153 91 -153zM601 -10c-86 0 -134 39 -134 190
s48 191 134 191c85 0 133 -40 133 -191s-48 -190 -133 -190zM601 27c65 0 90 33 90 153c0 122 -25 154 -90 154c-63 0 -91 -32 -91 -154c0 -120 28 -153 91 -153z" />
    <glyph glyph-name="ampersand" unicode="&#x26;" horiz-adv-x="666" 
d="M503 115c48 -55 79 -72 147 -72v-43c-84 0 -126 20 -178 80c-63 -63 -134 -90 -211 -90c-117 0 -208 70 -208 188c0 89 49 155 168 211c-39 51 -58 102 -58 155c0 94 64 160 154 160c101 0 144 -71 144 -141c0 -84 -48 -125 -174 -185l187 -228c44 62 70 138 76 198h46
c-9 -81 -45 -169 -93 -233zM314 661c-73 0 -103 -52 -103 -116c0 -45 14 -91 52 -138c117 52 151 89 151 156c0 57 -30 98 -100 98zM264 33c69 0 129 25 180 80l-198 245c-108 -55 -145 -108 -145 -173c0 -94 64 -152 163 -152z" />
    <glyph glyph-name="quotesingle" unicode="'" horiz-adv-x="266" 
d="M120 464l-19 296h64l-18 -296h-27z" />
    <glyph glyph-name="parenleft" unicode="(" horiz-adv-x="307" 
d="M215 -200c-96 145 -146 309 -146 474c0 176 53 338 148 486h45c-101 -167 -147 -316 -147 -480c0 -167 46 -319 145 -480h-45z" />
    <glyph glyph-name="parenright" unicode=")" horiz-adv-x="307" 
d="M45 -200c101 167 146 316 146 480c0 167 -45 319 -144 480h45c96 -145 145 -309 145 -474c0 -176 -52 -338 -148 -486h-44z" />
    <glyph glyph-name="asterisk" unicode="*" horiz-adv-x="382" 
d="M114 453l-36 26l85 110l-133 37l14 43l130 -49l-6 140h46l-6 -140l131 49l13 -43l-133 -37l86 -110l-37 -26l-77 116z" />
    <glyph glyph-name="plus" unicode="+" horiz-adv-x="550" 
d="M515 323v-45h-217v-218h-46v218h-217v45h217v217h46v-217h217z" />
    <glyph glyph-name="comma" unicode="," horiz-adv-x="256" 
d="M31 -136c58 85 95 170 95 241h45c0 -88 -55 -181 -101 -241h-39z" />
    <glyph glyph-name="hyphen" unicode="-" horiz-adv-x="420" 
d="M66 288v38h288v-38h-288z" />
    <glyph glyph-name="period" unicode="." horiz-adv-x="256" 
d="M129 -10c-32 0 -43 6 -43 44s11 43 43 43c30 0 41 -5 41 -43s-11 -44 -41 -44z" />
    <glyph glyph-name="slash" unicode="/" horiz-adv-x="462" 
d="M77 -30l269 754h39l-268 -754h-40z" />
    <glyph glyph-name="zero" unicode="0" horiz-adv-x="545" 
d="M273 -10c-142 0 -227 71 -227 357c0 285 85 357 227 357c143 0 226 -72 226 -357c0 -286 -83 -357 -226 -357zM273 32c121 0 177 66 177 315c0 248 -56 315 -177 315c-122 0 -178 -67 -178 -315c0 -249 56 -315 178 -315z" />
    <glyph glyph-name="one" unicode="1" horiz-adv-x="545" 
d="M269 0v647l-175 -34v41l198 40h24v-694h-47z" />
    <glyph glyph-name="two" unicode="2" horiz-adv-x="545" 
d="M51 0v52c296 238 354 337 354 459c0 109 -62 151 -161 151c-46 0 -90 -7 -141 -20v47c43 9 89 15 141 15c125 0 209 -45 209 -192c0 -142 -77 -239 -297 -426l-42 -36v-6h376v-44h-439z" />
    <glyph glyph-name="three" unicode="3" horiz-adv-x="545" 
d="M216 -10c-50 0 -108 6 -155 15v45c57 -13 108 -18 161 -18c118 0 202 41 202 149c0 117 -70 157 -218 157h-56v42h55c137 0 201 65 201 146c0 93 -54 136 -171 136c-38 0 -87 -6 -135 -20v44c41 12 88 18 138 18c147 0 215 -59 215 -176c0 -94 -58 -142 -133 -163v-6
c107 -15 151 -72 151 -177c0 -118 -77 -192 -255 -192z" />
    <glyph glyph-name="four" unicode="4" horiz-adv-x="545" 
d="M505 230v-42h-86v-188h-46v188h-341v57l323 449h64v-464h86zM77 230h296v409h-6l-290 -403v-6z" />
    <glyph glyph-name="five" unicode="5" horiz-adv-x="545" 
d="M219 -10c-50 0 -98 6 -140 15v45c45 -12 90 -18 140 -18c133 0 215 53 215 187c0 120 -56 171 -224 171c-34 0 -81 -5 -125 -14l46 318h300v-42h-263l-33 -229c25 5 54 8 88 8c174 0 257 -60 257 -210c0 -168 -104 -231 -261 -231z" />
    <glyph glyph-name="six" unicode="6" horiz-adv-x="545" 
d="M274 -10c-123 0 -214 64 -214 281c0 250 100 433 349 433l-1 -42c-186 1 -278 -130 -292 -279h3c29 37 82 72 170 72c129 0 196 -79 196 -226c0 -131 -44 -239 -211 -239zM276 32c116 0 163 67 163 198c0 123 -55 184 -152 184c-119 0 -179 -68 -179 -161
c0 -149 58 -221 168 -221z" />
    <glyph glyph-name="seven" unicode="7" horiz-adv-x="545" 
d="M135 0l316 652h-408v42h452v-50l-309 -644h-51z" />
    <glyph glyph-name="eight" unicode="8" horiz-adv-x="545" 
d="M273 -9c-141 0 -225 59 -225 192c0 107 59 158 119 176v4c-60 27 -94 72 -94 157c0 104 54 183 200 183c149 0 198 -79 198 -183c0 -80 -28 -130 -93 -157v-4c70 -18 118 -70 118 -177c0 -132 -78 -191 -223 -191zM273 378c117 0 152 63 152 141c0 87 -47 142 -152 142
c-104 0 -154 -49 -154 -142c0 -78 34 -141 154 -141zM273 33c128 0 177 59 177 149c0 108 -54 156 -177 156c-120 0 -178 -48 -178 -156c0 -90 51 -149 178 -149z" />
    <glyph glyph-name="nine" unicode="9" horiz-adv-x="545" 
d="M137 -10l1 42c187 -1 277 131 291 280h-3c-28 -36 -82 -66 -169 -66c-130 0 -197 74 -197 222c0 131 48 236 215 236c123 0 210 -65 210 -281c0 -250 -100 -433 -348 -433zM259 287c118 0 178 61 178 154c0 148 -54 221 -165 221c-116 0 -166 -64 -166 -195
c0 -122 55 -180 153 -180z" />
    <glyph glyph-name="colon" unicode=":" horiz-adv-x="340" 
d="M170 459c-31 0 -42 5 -42 44c0 38 11 43 42 43c30 0 41 -5 41 -43c0 -39 -11 -44 -41 -44zM170 -6c-31 0 -42 5 -42 44c0 38 11 43 42 43c30 0 41 -5 41 -43c0 -39 -11 -44 -41 -44z" />
    <glyph glyph-name="semicolon" unicode=";" horiz-adv-x="340" 
d="M170 459c-31 0 -42 5 -42 44c0 38 11 43 42 43c30 0 41 -5 41 -43c0 -39 -11 -44 -41 -44zM66 -136c59 85 95 170 95 241h45c0 -88 -55 -181 -101 -241h-39z" />
    <glyph glyph-name="less" unicode="&#x3c;" horiz-adv-x="550" 
d="M515 531v-45l-449 -186l449 -185v-45l-480 201v58z" />
    <glyph glyph-name="equal" unicode="=" horiz-adv-x="550" 
d="M35 387v45h480v-45h-480zM35 168v46h480v-46h-480z" />
    <glyph glyph-name="greater" unicode="&#x3e;" horiz-adv-x="550" 
d="M35 531l480 -202v-58l-480 -201v45l449 185l-449 186v45z" />
    <glyph glyph-name="question" unicode="?" horiz-adv-x="421" 
d="M157 157v56c0 95 40 120 113 175c48 37 80 68 80 137c0 112 -56 139 -158 139c-65 0 -116 -7 -163 -24v42c49 15 99 24 161 24c143 0 206 -47 206 -180c0 -95 -50 -134 -101 -170c-65 -47 -95 -69 -95 -146v-53h-43zM181 -10c-31 0 -42 6 -42 44s11 43 42 43
c30 0 41 -5 41 -43s-11 -44 -41 -44z" />
    <glyph glyph-name="at" unicode="@" horiz-adv-x="863" 
d="M442 -111c-243 0 -383 136 -383 378c0 262 185 437 412 437c212 0 341 -116 341 -338c0 -167 -94 -275 -188 -275c-48 0 -81 19 -95 79c-35 -60 -89 -79 -142 -79c-79 0 -135 51 -135 154c0 149 83 265 209 265c54 0 95 -24 106 -55l7 40h48l-43 -230
c-5 -29 -9 -53 -9 -67c0 -39 19 -68 49 -68c59 0 148 72 148 240c0 199 -118 293 -298 293c-191 0 -366 -147 -366 -398c0 -212 119 -333 345 -333c83 0 162 12 234 39v-39c-79 -28 -158 -43 -240 -43zM388 130c78 0 121 52 141 133c13 49 24 98 24 128c0 41 -21 82 -90 82
c-108 0 -161 -121 -161 -231c0 -55 16 -112 86 -112z" />
    <glyph glyph-name="A" unicode="A" horiz-adv-x="607" 
d="M551 0l-87 233h-322l-88 -233h-50l267 694h68l264 -694h-52zM158 274h291l-139 375h-10z" />
    <glyph glyph-name="B" unicode="B" horiz-adv-x="581" 
d="M92 0v694h178c167 0 215 -54 215 -179c0 -72 -26 -138 -107 -156v-4c95 -19 131 -75 131 -164c0 -126 -57 -191 -238 -191h-179zM139 376h106c152 0 193 32 193 139c0 115 -54 137 -200 137h-99v-276zM139 43h121c161 0 202 44 202 148c0 98 -49 143 -214 143h-109v-291z
" />
    <glyph glyph-name="C" unicode="C" horiz-adv-x="577" 
d="M375 -10c-184 0 -303 67 -303 357c0 268 123 357 319 357c63 0 103 -6 143 -18v-47c-38 13 -81 22 -144 22c-171 0 -269 -81 -269 -314c0 -249 96 -314 255 -314c69 0 113 10 166 30v-42c-44 -18 -98 -31 -167 -31z" />
    <glyph glyph-name="D" unicode="D" horiz-adv-x="670" 
d="M265 694c197 0 334 -58 334 -347c0 -268 -137 -347 -334 -347h-173v694h173zM269 42c165 0 280 67 280 305c0 252 -120 305 -280 305h-130v-610h130z" />
    <glyph glyph-name="E" unicode="E" horiz-adv-x="532" 
d="M139 45h345v-45h-392v694h359v-43h-312v-265h292v-42h-292v-299z" />
    <glyph glyph-name="F" unicode="F" horiz-adv-x="499" 
d="M451 651h-312v-272h292v-42h-292v-337h-47v694h359v-43z" />
    <glyph glyph-name="G" unicode="G" horiz-adv-x="659" 
d="M386 -10c-194 0 -314 67 -314 357c0 268 121 357 326 357c62 0 137 -8 178 -26v-46c-44 17 -106 29 -176 29c-157 0 -279 -55 -279 -314c0 -273 116 -315 276 -315c54 0 103 8 140 20v258h-155v42h202v-334c-49 -16 -110 -28 -198 -28z" />
    <glyph glyph-name="H" unicode="H" horiz-adv-x="671" 
d="M531 694h48v-694h-48v355h-392v-355h-47v694h47v-297h392v297z" />
    <glyph glyph-name="I" unicode="I" horiz-adv-x="232" 
d="M92 0v694h47v-694h-47z" />
    <glyph glyph-name="J" unicode="J" horiz-adv-x="214" 
d="M-32 -180c-29 0 -54 4 -74 8v44c19 -4 42 -9 76 -9c79 0 109 48 109 140v691h47v-705c0 -95 -42 -169 -158 -169z" />
    <glyph glyph-name="K" unicode="K" horiz-adv-x="563" 
d="M240 369l304 -369h-62l-280 347h-63v-347h-47v694h47v-305h63l273 305h60z" />
    <glyph glyph-name="L" unicode="L" horiz-adv-x="473" 
d="M139 45h319v-45h-366v694h47v-649z" />
    <glyph glyph-name="M" unicode="M" horiz-adv-x="784" 
d="M92 0v694h80l218 -466h6l216 466h80v-694h-48v648h-6l-219 -470h-54l-220 470h-6v-648h-47z" />
    <glyph glyph-name="N" unicode="N" horiz-adv-x="711" 
d="M92 0v694h75l399 -613h6v613h47v-694h-56l-418 646h-6v-646h-47z" />
    <glyph glyph-name="O" unicode="O" horiz-adv-x="721" 
d="M360 -10c-197 0 -288 82 -288 357c0 274 91 357 288 357c196 0 288 -83 288 -357c0 -275 -92 -357 -288 -357zM360 33c182 0 239 85 239 314s-57 314 -239 314c-181 0 -239 -85 -239 -314s58 -314 239 -314z" />
    <glyph glyph-name="P" unicode="P" horiz-adv-x="553" 
d="M92 0v694h163c190 0 241 -68 241 -212c0 -151 -54 -214 -241 -214h-116v-268h-47zM139 310h109c152 0 199 37 199 172c0 123 -46 170 -199 170h-109v-342z" />
    <glyph glyph-name="Q" unicode="Q" horiz-adv-x="721" 
d="M648 347c0 -243 -72 -335 -224 -353l122 -139h-63l-112 135h-11c-197 0 -288 82 -288 357c0 274 91 357 288 357c196 0 288 -83 288 -357zM360 33c182 0 239 85 239 314s-57 314 -239 314c-181 0 -239 -85 -239 -314s58 -314 239 -314z" />
    <glyph glyph-name="R" unicode="R" horiz-adv-x="570" 
d="M556 0h-57l-210 302c-17 -1 -35 -1 -55 -1h-95v-301h-47v694h135c200 0 263 -43 263 -192c0 -126 -43 -178 -150 -194zM230 343c154 0 213 20 213 159c0 122 -59 150 -213 150h-91v-309h91z" />
    <glyph glyph-name="S" unicode="S" horiz-adv-x="538" 
d="M253 -10c-89 0 -175 17 -205 29v48c39 -15 120 -34 206 -34c121 0 188 42 188 148c0 101 -48 132 -180 165c-141 34 -194 67 -194 181c0 111 66 178 217 178c59 0 134 -12 170 -25v-46c-44 17 -106 28 -172 28c-109 0 -168 -37 -168 -135c0 -79 29 -110 161 -140
c147 -35 213 -74 213 -206c0 -134 -85 -191 -236 -191z" />
    <glyph glyph-name="T" unicode="T" horiz-adv-x="492" 
d="M487 694v-43h-217v-651h-47v651h-218v43h482z" />
    <glyph glyph-name="U" unicode="U" horiz-adv-x="661" 
d="M329 -10c-164 0 -241 62 -241 232v472h47v-452c0 -163 54 -210 195 -210c147 0 199 47 199 210v452h45v-472c0 -170 -81 -232 -245 -232z" />
    <glyph glyph-name="V" unicode="V" horiz-adv-x="542" 
d="M240 0l-232 694h49l212 -643h6l211 643h47l-233 -694h-60z" />
    <glyph glyph-name="W" unicode="W" horiz-adv-x="853" 
d="M195 0l-176 694h49l158 -637h6l163 546h65l164 -546h6l157 637h48l-177 -694h-62l-166 548h-6l-167 -548h-62z" />
    <glyph glyph-name="X" unicode="X" horiz-adv-x="562" 
d="M18 0l230 353l-217 341h55l193 -310h6l194 310h53l-216 -340l227 -354h-56l-202 321h-6l-206 -321h-55z" />
    <glyph glyph-name="Y" unicode="Y" horiz-adv-x="526" 
d="M239 0v313l-241 381h54l210 -335h6l206 335h54l-242 -381v-313h-47z" />
    <glyph glyph-name="Z" unicode="Z" horiz-adv-x="590" 
d="M45 0v52l439 593l-1 6h-411v43h464v-53l-436 -590v-6h455v-45h-510z" />
    <glyph glyph-name="bracketleft" unicode="[" horiz-adv-x="291" 
d="M70 -200v960h186v-42h-141v-876h141v-42h-186z" />
    <glyph glyph-name="backslash" unicode="\" horiz-adv-x="527" 
d="M439 -100l-393 860h41l394 -860h-42z" />
    <glyph glyph-name="bracketright" unicode="]" horiz-adv-x="291" 
d="M35 -200v42h141v876h-141v42h186v-960h-186z" />
    <glyph glyph-name="asciicircum" unicode="^" horiz-adv-x="550" 
d="M465 315h-45l-145 348l-144 -348h-45l160 379h58z" />
    <glyph glyph-name="underscore" unicode="_" horiz-adv-x="500" 
d="M0 -200v43h500v-43h-500z" />
    <glyph glyph-name="grave" unicode="`" horiz-adv-x="305" 
d="M188 615l-128 138h66l93 -138h-31z" />
    <glyph glyph-name="a" unicode="a" horiz-adv-x="588" 
d="M301 550c162 0 193 -74 193 -169v-381h-38l-7 96c-32 -68 -115 -106 -212 -106c-129 0 -182 57 -182 157c0 138 94 168 212 168h182v59c0 85 -28 134 -151 134c-35 0 -80 -4 -121 -13v44c40 7 85 11 124 11zM236 32c106 0 186 44 213 126v117h-176
c-111 0 -173 -20 -173 -128c0 -78 47 -115 136 -115z" />
    <glyph glyph-name="b" unicode="b" horiz-adv-x="606" 
d="M333 550c160 0 210 -95 210 -280c0 -169 -50 -280 -210 -280c-115 0 -171 51 -194 120l-8 -110h-38v760h45v-338c22 78 79 128 195 128zM326 31c139 0 170 92 170 239c0 155 -34 239 -170 239c-146 0 -190 -100 -190 -239c0 -137 44 -239 190 -239z" />
    <glyph glyph-name="c" unicode="c" horiz-adv-x="468" 
d="M284 -10c-159 0 -226 69 -226 280s67 280 226 280c60 0 110 -9 138 -18v-45c-41 15 -89 22 -138 22c-134 0 -178 -58 -178 -239c0 -179 46 -239 178 -239c55 0 101 11 140 28v-44c-30 -12 -86 -25 -140 -25z" />
    <glyph glyph-name="d" unicode="d" horiz-adv-x="606" 
d="M468 760h45v-760h-38l-5 121c-21 -79 -79 -131 -197 -131c-160 0 -210 95 -210 280c0 169 50 280 210 280c117 0 172 -53 195 -124v334zM280 31c146 0 190 100 190 239c0 137 -44 239 -190 239c-139 0 -170 -92 -170 -239c0 -155 34 -239 170 -239z" />
    <glyph glyph-name="e" unicode="e" horiz-adv-x="552" 
d="M487 330c0 -15 0 -31 -2 -52l-381 -27c2 -159 48 -220 194 -220c56 0 125 12 169 33v-43c-30 -14 -104 -31 -172 -31c-169 0 -237 68 -237 280s66 280 232 280c179 0 197 -119 197 -220zM104 289l340 26c0 118 -16 194 -156 194s-182 -62 -184 -220z" />
    <glyph glyph-name="f" unicode="f" horiz-adv-x="322" 
d="M257 723c-76 0 -107 -41 -107 -171v-12h143v-41h-143v-499h-45v499h-94v41h94v27c0 140 57 197 153 197c19 0 49 -2 67 -5v-41c-18 3 -38 5 -68 5z" />
    <glyph glyph-name="g" unicode="g" horiz-adv-x="606" 
d="M468 540h45v-505c0 -149 -84 -235 -247 -235c-45 0 -94 4 -122 11v43c40 -10 74 -13 121 -13c141 0 203 68 203 206v71c-23 -75 -80 -118 -195 -118c-160 0 -210 90 -210 275c0 169 50 275 210 275c117 0 172 -53 195 -125v115zM282 41c146 0 188 95 188 234
c0 137 -42 234 -188 234c-139 0 -170 -87 -170 -234c0 -155 34 -234 170 -234z" />
    <glyph glyph-name="h" unicode="h" horiz-adv-x="586" 
d="M321 550c136 0 176 -65 176 -172v-378h-45v350c0 113 -26 159 -136 159c-73 0 -155 -21 -177 -130v-379h-45v760h45v-313c19 76 106 103 182 103z" />
    <glyph glyph-name="i" unicode="i" horiz-adv-x="236" 
d="M118 660c-24 0 -31 4 -31 33s7 33 31 33c22 0 30 -4 30 -33s-8 -33 -30 -33zM95 0v540h45v-540h-45z" />
    <glyph glyph-name="j" unicode="j" horiz-adv-x="236" 
d="M118 660c-24 0 -31 4 -31 33s7 33 31 33c22 0 30 -4 30 -33s-8 -33 -30 -33zM-4 -200c-21 0 -40 2 -61 6v42c26 -4 48 -6 61 -6c75 0 99 32 99 155v543h45v-554c0 -157 -58 -186 -144 -186z" />
    <glyph glyph-name="k" unicode="k" horiz-adv-x="464" 
d="M205 288l263 -288h-60l-238 265h-31v-265h-45v760h45v-454h30l226 234h58z" />
    <glyph glyph-name="l" unicode="l" horiz-adv-x="246" 
d="M187 -6c-50 0 -92 18 -92 97v669h45v-657c0 -56 15 -70 53 -70c21 0 33 2 48 6v-39c-15 -4 -29 -6 -54 -6z" />
    <glyph glyph-name="m" unicode="m" horiz-adv-x="887" 
d="M636 550c125 0 162 -65 162 -172v-378h-45v350c0 113 -22 159 -123 159c-72 0 -141 -21 -162 -130v-1v-378h-45v350c0 113 -22 159 -122 159c-72 0 -140 -21 -162 -125v-384h-45v540h45v-90c20 74 92 100 167 100c96 0 140 -39 156 -105c18 78 97 105 174 105z" />
    <glyph glyph-name="n" unicode="n" horiz-adv-x="586" 
d="M321 550c136 0 176 -65 176 -172v-378h-45v350c0 113 -26 159 -136 159c-73 0 -155 -21 -177 -130v-379h-45v540h45v-93c19 76 106 103 182 103z" />
    <glyph glyph-name="o" unicode="o" horiz-adv-x="588" 
d="M293 -10c-164 0 -230 69 -230 280s66 280 230 280s232 -69 232 -280s-68 -280 -232 -280zM293 31c143 0 185 61 185 239s-43 239 -185 239s-183 -61 -183 -239s41 -239 183 -239z" />
    <glyph glyph-name="p" unicode="p" horiz-adv-x="606" 
d="M333 550c160 0 210 -95 210 -280c0 -169 -50 -280 -210 -280c-117 0 -172 53 -195 124v-314h-45v740h45v-118c22 78 79 128 195 128zM326 31c139 0 170 92 170 239c0 156 -34 239 -170 239c-146 0 -190 -100 -190 -239c0 -137 44 -239 190 -239z" />
    <glyph glyph-name="q" unicode="q" horiz-adv-x="606" 
d="M468 540h45v-740h-45v318c-22 -78 -79 -128 -195 -128c-160 0 -210 95 -210 280c0 169 50 280 210 280c117 0 172 -53 195 -124v114zM280 31c146 0 190 100 190 239c0 137 -44 239 -190 239c-139 0 -170 -92 -170 -239c0 -155 34 -239 170 -239z" />
    <glyph glyph-name="r" unicode="r" horiz-adv-x="338" 
d="M312 550h11l-2 -41h-12c-70 0 -139 -23 -171 -125v-384h-45v540h45v-97c30 89 110 107 174 107z" />
    <glyph glyph-name="s" unicode="s" horiz-adv-x="452" 
d="M212 -6c-56 0 -113 6 -155 16v43c40 -10 96 -18 155 -18c95 0 142 33 142 107c0 64 -26 90 -130 117c-111 28 -156 51 -156 146c0 98 70 145 174 145c58 0 114 -9 140 -18l-3 -44c-33 12 -86 21 -137 21c-77 0 -129 -28 -129 -104c0 -73 41 -87 118 -106
c118 -30 168 -60 168 -157c0 -90 -55 -148 -187 -148z" />
    <glyph glyph-name="t" unicode="t" horiz-adv-x="303" 
d="M227 35c28 0 48 2 71 7v-41c-21 -4 -47 -7 -70 -7c-99 0 -135 25 -135 167v338h-87v41h87v128h45v-128h149v-41h-149v-340c0 -97 19 -124 89 -124z" />
    <glyph glyph-name="u" unicode="u" horiz-adv-x="581" 
d="M442 540h45v-540h-38l-7 95c-18 -78 -104 -105 -180 -105c-136 0 -174 65 -174 172v378h45v-350c0 -113 24 -158 134 -158c73 0 153 20 175 129v379z" />
    <glyph glyph-name="v" unicode="v" horiz-adv-x="469" 
d="M209 0l-206 540h47l183 -491h6l180 491h47l-204 -540h-53z" />
    <glyph glyph-name="w" unicode="w" horiz-adv-x="776" 
d="M164 0l-149 540h45l133 -490h6l159 490h58l162 -490h6l134 490h43l-152 -540h-55l-164 493h-6l-164 -493h-56z" />
    <glyph glyph-name="x" unicode="x" horiz-adv-x="455" 
d="M15 0l181 271l-179 269h51l156 -240h6l155 240h50l-177 -267l183 -273h-50l-160 244h-6l-160 -244h-50z" />
    <glyph glyph-name="y" unicode="y" horiz-adv-x="470" 
d="M49 -200v40c89 0 127 38 170 163l-216 537h48l189 -481h6l174 481h47l-201 -543c-45 -121 -85 -197 -217 -197z" />
    <glyph glyph-name="z" unicode="z" horiz-adv-x="456" 
d="M32 0v37l325 457l1 6h-301v40h356v-39l-323 -454v-6h343v-41h-401z" />
    <glyph glyph-name="braceleft" unicode="{" horiz-adv-x="296" 
d="M261 -200c-86 0 -128 42 -128 131v250c0 57 -23 79 -83 79v41c60 0 83 21 83 78v250c0 89 42 131 128 131v-40c-60 0 -82 -24 -82 -91v-250c0 -54 -21 -85 -61 -99c40 -14 61 -45 61 -99v-250c0 -67 22 -91 82 -91v-40z" />
    <glyph glyph-name="bar" unicode="|" horiz-adv-x="145" 
d="M50 -200v960h45v-960h-45z" />
    <glyph glyph-name="braceright" unicode="}" horiz-adv-x="296" 
d="M35 -200v40c60 0 83 24 83 91v250c0 54 20 85 60 99c-40 14 -60 45 -60 99v250c0 67 -23 91 -83 91v40c86 0 128 -42 128 -131v-250c0 -57 23 -79 83 -79v-40c-60 0 -83 -22 -83 -79v-250c0 -89 -42 -131 -128 -131z" />
    <glyph glyph-name="asciitilde" unicode="~" horiz-adv-x="550" 
d="M393 223c-61 0 -100 33 -132 60c-33 27 -59 49 -103 49c-49 0 -78 -34 -84 -106l-44 4c8 93 54 147 128 147c60 0 99 -32 131 -59c33 -27 59 -50 104 -50c48 0 77 35 83 106l44 -3c-8 -93 -54 -148 -127 -148z" />
    <glyph glyph-name="uni00A0" unicode="&#xa0;" horiz-adv-x="237" 
 />
    <glyph glyph-name="exclamdown" unicode="&#xa1;" horiz-adv-x="327" 
d="M164 550c30 0 41 -6 41 -44s-11 -43 -41 -43c-32 0 -43 5 -43 43c0 39 10 44 43 44zM180 382l7 -536h-50l6 536h37z" />
    <glyph glyph-name="cent" unicode="&#xa2;" horiz-adv-x="545" 
d="M334 161c55 0 101 11 140 28v-44c-30 -12 -86 -25 -140 -25h-9v-120h-37v122c-143 10 -202 75 -202 228c0 146 59 217 202 228v116h37v-114h9c60 0 110 -9 138 -18v-45c-41 15 -89 22 -138 22h-9v-378h9zM133 350c0 -122 40 -177 155 -187v374
c-116 -11 -155 -69 -155 -187z" />
    <glyph glyph-name="sterling" unicode="&#xa3;" horiz-adv-x="545" 
d="M170 44h334v-44h-397v35c56 58 84 122 84 197c0 43 -7 79 -17 112h-98v37h87c-13 44 -27 87 -27 141c0 120 71 183 216 183c44 0 87 -7 130 -20v-42c-49 15 -96 21 -141 21c-106 0 -160 -46 -160 -138c0 -56 14 -100 28 -145h206v-37h-195c9 -34 16 -70 16 -113
c0 -68 -22 -131 -66 -187z" />
    <glyph glyph-name="currency" unicode="&#xa4;" horiz-adv-x="544" 
d="M463 335c0 -55 -9 -99 -27 -133l59 -59l-31 -31l-56 55c-31 -30 -76 -44 -136 -44s-105 14 -136 44l-56 -55l-31 31l59 59c-18 34 -27 78 -27 133s9 99 27 133l-59 59l31 31l55 -55c32 30 77 45 137 45s105 -15 137 -45l55 55l31 -31l-59 -59c18 -34 27 -78 27 -133z
M272 168c100 0 146 53 146 167s-46 168 -146 168s-146 -54 -146 -168s46 -167 146 -167z" />
    <glyph glyph-name="yen" unicode="&#xa5;" horiz-adv-x="545" 
d="M507 694l-197 -313h149v-37h-164v-105h164v-36h-164v-203h-45v203h-162v36h162v105h-162v37h147l-197 313h53l180 -297h6l180 297h50z" />
    <glyph glyph-name="brokenbar" unicode="&#xa6;" horiz-adv-x="145" 
d="M50 424v336h45v-336h-45zM50 -200v336h45v-336h-45z" />
    <glyph glyph-name="section" unicode="&#xa7;" horiz-adv-x="452" 
d="M336 171c43 -25 63 -59 63 -120c0 -90 -55 -148 -187 -148c-56 0 -113 6 -155 16v43c40 -10 96 -18 155 -18c95 0 142 33 142 107c0 64 -26 90 -130 117c-111 28 -156 51 -156 150c0 49 21 98 72 121c-50 22 -72 54 -72 120c0 98 70 145 174 145c58 0 114 -9 140 -18
l-3 -44c-33 12 -86 21 -137 21c-77 0 -129 -28 -129 -104c0 -73 41 -87 118 -106c118 -30 168 -60 168 -164c0 -45 -17 -93 -63 -118zM113 318c0 -77 41 -91 118 -110c25 -6 47 -13 66 -20c38 19 57 53 57 100c0 71 -26 98 -130 124c-13 3 -25 7 -37 10
c-46 -16 -74 -50 -74 -104z" />
    <glyph glyph-name="dieresis" unicode="&#xa8;" horiz-adv-x="305" 
d="M77 660c-24 0 -31 4 -31 33s7 33 31 33c22 0 30 -4 30 -33s-8 -33 -30 -33zM230 660c-24 0 -32 4 -32 33s8 33 32 33c21 0 29 -4 29 -33s-8 -33 -29 -33z" />
    <glyph glyph-name="copyright" unicode="&#xa9;" horiz-adv-x="806" 
d="M402 -13c-212 0 -359 146 -359 358c0 211 147 363 362 363c209 0 358 -148 358 -357c0 -212 -152 -364 -361 -364zM403 27c186 0 315 136 315 322c0 191 -126 319 -315 319c-187 0 -315 -137 -315 -320c0 -192 126 -321 315 -321zM438 153c-152 0 -216 48 -216 196
c0 146 64 195 216 195c47 0 81 -9 108 -18v-43c-40 15 -70 21 -108 21c-127 0 -169 -38 -169 -155s43 -156 169 -156c45 0 77 4 115 21v-43c-29 -11 -71 -18 -115 -18z" />
    <glyph glyph-name="ordfeminine" unicode="&#xaa;" horiz-adv-x="445" 
d="M217 611c116 0 134 -49 134 -100v-229h-38l-6 52c-20 -37 -74 -58 -132 -58c-83 0 -120 35 -120 96c0 83 67 101 140 101h112v29c0 34 -7 71 -93 71c-22 0 -51 -2 -77 -7v40c27 3 56 5 80 5zM179 314c62 0 110 24 128 66v58h-108c-58 0 -98 -8 -98 -65
c0 -40 25 -59 78 -59z" />
    <glyph glyph-name="guillemotleft" unicode="&#xab;" horiz-adv-x="442" 
d="M177 100l-147 175l147 175h58l-147 -175l147 -175h-58zM354 100l-147 175l147 175h58l-147 -175l147 -175h-58z" />
    <glyph glyph-name="logicalnot" unicode="&#xac;" horiz-adv-x="550" 
d="M515 432v-301h-45v256h-435v45h480z" />
    <glyph glyph-name="uni00AD" unicode="&#xad;" horiz-adv-x="420" 
d="M66 288v38h288v-38h-288z" />
    <glyph glyph-name="registered" unicode="&#xae;" horiz-adv-x="404" 
d="M203 707c109 0 179 -69 179 -179s-71 -182 -180 -182c-110 0 -180 69 -180 180c0 110 70 181 181 181zM202 382c90 0 143 56 143 145c0 92 -52 146 -143 146s-143 -59 -143 -146c0 -93 52 -145 143 -145zM280 565c0 -30 -16 -48 -44 -57l55 -79h-46l-48 73h-9h-20v-73
h-38v197h72c47 0 78 -15 78 -61zM168 533h31c19 0 41 5 41 30c0 24 -16 31 -41 31h-31v-61z" />
    <glyph glyph-name="macron" unicode="&#xaf;" horiz-adv-x="305" 
d="M25 673v39h255v-39h-255z" />
    <glyph glyph-name="degree" unicode="&#xb0;" horiz-adv-x="349" 
d="M175 411c-80 0 -146 66 -146 146s66 146 146 146s146 -66 146 -146s-66 -146 -146 -146zM175 453c57 0 103 46 103 104s-46 104 -103 104c-58 0 -104 -46 -104 -104s46 -104 104 -104z" />
    <glyph glyph-name="plusminus" unicode="&#xb1;" horiz-adv-x="550" 
d="M298 361h217v-41h-217v-172h-46v172h-217v41h217v171h46v-171zM35 68v40h480v-40h-480z" />
    <glyph glyph-name="uni00B2" unicode="&#xb2;" 
d="M51 412v48c194 141 225 194 225 256c0 61 -43 80 -99 80c-30 0 -62 -4 -94 -11v39c30 7 60 10 98 10c85 0 141 -31 141 -117c0 -79 -45 -135 -189 -241l-27 -20v-4h237v-40h-292z" />
    <glyph glyph-name="uni00B3" unicode="&#xb3;" 
d="M162 406c-37 0 -71 3 -101 8v41c37 -8 71 -10 103 -10c72 0 124 20 124 80c0 68 -54 84 -135 84h-35v36h35c83 0 125 33 125 79c0 50 -34 72 -105 72c-24 0 -59 -4 -88 -12v39c22 6 55 11 91 11c97 0 145 -34 145 -107c0 -56 -34 -83 -83 -96v-4c66 -10 95 -44 95 -103
c0 -74 -53 -118 -171 -118z" />
    <glyph glyph-name="acute" unicode="&#xb4;" horiz-adv-x="305" 
d="M99 615l92 138h67l-128 -138h-31z" />
    <glyph glyph-name="uni03BC" unicode="&#x3bc;" horiz-adv-x="581" 
d="M442 540h45v-540h-38l-7 95c-18 -78 -104 -105 -180 -105c-72 0 -111 18 -129 51v-241h-45v740h45v-350c0 -113 24 -158 134 -158c73 0 153 20 175 129v379z" />
    <glyph glyph-name="paragraph" unicode="&#xb6;" horiz-adv-x="581" 
d="M225 -107v410c-131 0 -192 61 -192 195s59 196 186 196h289v-41h-83v-760h-45v760h-110v-760h-45z" />
    <glyph glyph-name="periodcentered" unicode="&#xb7;" horiz-adv-x="327" 
d="M129 283c-32 0 -43 5 -43 43c0 39 11 44 43 44c30 0 41 -5 41 -44c0 -38 -11 -43 -41 -43z" />
    <glyph glyph-name="cedilla" unicode="&#xb8;" horiz-adv-x="305" 
d="M174 -60c51 0 80 -23 80 -63c0 -49 -46 -77 -130 -77c-28 0 -50 1 -74 4v38c24 -3 45 -4 73 -4c46 0 86 8 86 38c0 19 -17 30 -48 30c-36 0 -53 -3 -71 -9l-12 20l90 102l30 -19l-54 -62c10 2 20 2 30 2z" />
    <glyph glyph-name="uni00B9" unicode="&#xb9;" 
d="M191 412v374l-112 -20v38l130 24h28v-416h-46z" />
    <glyph glyph-name="ordmasculine" unicode="&#xba;" horiz-adv-x="435" 
d="M218 276c-106 0 -155 41 -155 168s49 168 155 168c105 0 155 -41 155 -168s-50 -168 -155 -168zM218 309c86 0 113 34 113 135c0 100 -27 135 -113 135c-88 0 -114 -35 -114 -135c0 -101 28 -135 114 -135z" />
    <glyph glyph-name="guillemotright" unicode="&#xbb;" horiz-adv-x="442" 
d="M30 100l147 175l-147 175h58l147 -175l-147 -175h-58zM207 100l147 175l-147 175h58l147 -175l-147 -175h-58z" />
    <glyph glyph-name="onequarter" unicode="&#xbc;" horiz-adv-x="874" 
d="M237 282h-46v374l-112 -20v38l130 24h28v-416zM621 694h50l-406 -694h-53zM835 145v-39h-55v-106h-44v106h-216v50l203 260h57v-271h55zM560 145h176v223h-4l-172 -219v-4z" />
    <glyph glyph-name="onehalf" unicode="&#xbd;" horiz-adv-x="885" 
d="M191 282v374l-112 -20v38l130 24h28v-416h-46zM212 0l409 694h50l-406 -694h-53zM539 0v48c194 141 225 194 225 256c0 61 -43 80 -99 80c-30 0 -62 -4 -94 -11v39c30 7 60 10 98 10c85 0 141 -31 141 -117c0 -79 -45 -135 -189 -241l-27 -20v-4h237v-40h-292z" />
    <glyph glyph-name="threequarters" unicode="&#xbe;" horiz-adv-x="874" 
d="M333 394c0 -74 -53 -118 -171 -118c-37 0 -71 3 -101 8v41c37 -8 71 -10 103 -10c72 0 124 20 124 80c0 68 -54 84 -135 84h-35v36h35c83 0 125 33 125 79c0 50 -34 72 -105 72c-24 0 -59 -4 -88 -12v39c22 6 55 11 91 11c97 0 145 -34 145 -107c0 -56 -34 -83 -83 -96
v-4c66 -10 95 -44 95 -103zM621 694h50l-406 -694h-53zM835 145v-39h-55v-106h-44v106h-216v50l203 260h57v-271h55zM560 145h176v223h-4l-172 -219v-4z" />
    <glyph glyph-name="questiondown" unicode="&#xbf;" horiz-adv-x="421" 
d="M240 550c32 0 42 -6 42 -44s-10 -43 -42 -43c-30 0 -41 5 -41 43s11 44 41 44zM264 383v-56c0 -95 -40 -120 -113 -175c-48 -37 -80 -68 -80 -137c0 -112 56 -139 159 -139c64 0 116 7 162 24v-42c-49 -15 -99 -24 -161 -24c-143 0 -205 47 -205 180c0 95 49 134 100 170
c66 47 95 69 95 146v53h43z" />
    <glyph glyph-name="Agrave" unicode="&#xc0;" horiz-adv-x="607" 
d="M342 745h-36l-154 138h76zM551 0l-87 233h-322l-88 -233h-50l267 694h68l264 -694h-52zM158 274h291l-139 375h-10z" />
    <glyph glyph-name="Aacute" unicode="&#xc1;" horiz-adv-x="607" 
d="M464 883l-154 -138h-36l114 138h76zM551 0l-87 233h-322l-88 -233h-50l267 694h68l264 -694h-52zM158 274h291l-139 375h-10z" />
    <glyph glyph-name="Acircumflex" unicode="&#xc2;" horiz-adv-x="607" 
d="M303 847l-109 -93h-41l117 130h66l117 -130h-41zM551 0l-87 233h-322l-88 -233h-50l267 694h68l264 -694h-52zM158 274h291l-139 375h-10z" />
    <glyph glyph-name="Atilde" unicode="&#xc3;" horiz-adv-x="607" 
d="M230 819c-36 0 -55 -23 -62 -69l-34 3c8 65 44 104 97 104c36 0 58 -15 88 -43c20 -20 34 -27 58 -27c36 0 55 20 62 63l34 -3c-8 -61 -45 -97 -97 -97c-39 0 -60 12 -83 35c-30 28 -47 34 -63 34zM551 0l-87 233h-322l-88 -233h-50l267 694h68l264 -694h-52zM158 274
h291l-139 375h-10z" />
    <glyph glyph-name="Adieresis" unicode="&#xc4;" horiz-adv-x="607" 
d="M218 756c-24 0 -31 4 -31 33s7 33 31 33c22 0 30 -4 30 -33s-8 -33 -30 -33zM391 756c-24 0 -32 4 -32 33s8 33 32 33c21 0 29 -4 29 -33s-8 -33 -29 -33zM551 0l-87 233h-322l-88 -233h-50l267 694h68l264 -694h-52zM158 274h291l-139 375h-10z" />
    <glyph glyph-name="Aring" unicode="&#xc5;" horiz-adv-x="607" 
d="M304 729c-71 0 -106 36 -106 100c0 63 39 98 106 98c70 0 106 -36 106 -98c0 -65 -36 -100 -106 -100zM304 892c-45 0 -67 -20 -67 -64c0 -43 22 -63 67 -63s66 20 66 63c0 44 -21 64 -66 64zM551 0l-87 233h-322l-88 -233h-50l267 694h68l264 -694h-52zM158 274h291
l-139 375h-10z" />
    <glyph glyph-name="AE" unicode="&#xc6;" horiz-adv-x="855" 
d="M462 45h345v-45h-392v233h-240l-120 -233h-53l364 694h408v-43h-312v-265h292v-42h-292v-299zM196 274h219v378h-24z" />
    <glyph glyph-name="Ccedilla" unicode="&#xc7;" horiz-adv-x="577" 
d="M375 -10h-11l-45 -52c10 2 20 2 30 2c51 0 80 -23 80 -63c0 -49 -46 -77 -130 -77c-28 0 -50 1 -74 4v38c24 -3 45 -4 73 -4c46 0 86 8 86 38c0 19 -17 30 -48 30c-36 0 -53 -3 -71 -9l-12 20l67 75c-153 14 -248 95 -248 355c0 268 123 357 319 357c63 0 103 -6 143 -18
v-47c-38 13 -81 22 -144 22c-171 0 -269 -81 -269 -314c0 -249 96 -314 255 -314c69 0 113 10 166 30v-42c-44 -18 -98 -31 -167 -31z" />
    <glyph glyph-name="Egrave" unicode="&#xc8;" horiz-adv-x="532" 
d="M306 745h-36l-154 138h76zM139 45h345v-45h-392v694h359v-43h-312v-265h292v-42h-292v-299z" />
    <glyph glyph-name="Eacute" unicode="&#xc9;" horiz-adv-x="532" 
d="M428 883l-154 -138h-36l114 138h76zM139 45h345v-45h-392v694h359v-43h-312v-265h292v-42h-292v-299z" />
    <glyph glyph-name="Ecircumflex" unicode="&#xca;" horiz-adv-x="532" 
d="M267 847l-109 -93h-41l117 130h66l117 -130h-41zM139 45h345v-45h-392v694h359v-43h-312v-265h292v-42h-292v-299z" />
    <glyph glyph-name="Edieresis" unicode="&#xcb;" horiz-adv-x="532" 
d="M207 756c-24 0 -32 4 -32 33s8 33 32 33c22 0 30 -4 30 -33s-8 -33 -30 -33zM359 756c-23 0 -31 4 -31 33s8 33 31 33c22 0 30 -4 30 -33s-8 -33 -30 -33zM139 45h345v-45h-392v694h359v-43h-312v-265h292v-42h-292v-299z" />
    <glyph glyph-name="Igrave" unicode="&#xcc;" horiz-adv-x="232" 
d="M119 745l-154 138h76l114 -138h-36zM92 0v694h47v-694h-47z" />
    <glyph glyph-name="Iacute" unicode="&#xcd;" horiz-adv-x="232" 
d="M87 745l114 138h76l-154 -138h-36zM92 0v694h47v-694h-47z" />
    <glyph glyph-name="Icircumflex" unicode="&#xce;" horiz-adv-x="232" 
d="M-21 747l104 138h66l104 -138h-31l-105 105l-107 -105h-31zM92 0v694h47v-694h-47z" />
    <glyph glyph-name="Idieresis" unicode="&#xcf;" horiz-adv-x="232" 
d="M41 756c-23 0 -31 4 -31 33s8 33 31 33c22 0 30 -4 30 -33s-8 -33 -30 -33zM194 756c-24 0 -32 4 -32 33s8 33 32 33c21 0 29 -4 29 -33s-8 -33 -29 -33zM92 0v694h47v-694h-47z" />
    <glyph glyph-name="Eth" unicode="&#xd0;" horiz-adv-x="690" 
d="M285 694c197 0 334 -58 334 -347c0 -268 -137 -347 -334 -347h-173v344h-75v42h75v308h173zM289 42c165 0 280 67 280 305c0 252 -120 305 -280 305h-130v-266h188v-42h-188v-302h130z" />
    <glyph glyph-name="Ntilde" unicode="&#xd1;" horiz-adv-x="711" 
d="M428 750c-39 0 -60 12 -83 35c-30 28 -47 34 -63 34c-36 0 -55 -23 -62 -69l-34 3c8 65 44 104 97 104c36 0 58 -15 88 -43c20 -20 34 -27 58 -27c36 0 55 20 62 63l34 -3c-8 -61 -45 -97 -97 -97zM92 0v694h75l399 -613h6v613h47v-694h-56l-418 646h-6v-646h-47z" />
    <glyph glyph-name="Ograve" unicode="&#xd2;" horiz-adv-x="721" 
d="M363 745l-154 138h76l114 -138h-36zM360 -10c-197 0 -288 82 -288 357c0 274 91 357 288 357c196 0 288 -83 288 -357c0 -275 -92 -357 -288 -357zM360 33c182 0 239 85 239 314s-57 314 -239 314c-181 0 -239 -85 -239 -314s58 -314 239 -314z" />
    <glyph glyph-name="Oacute" unicode="&#xd3;" horiz-adv-x="721" 
d="M331 745l114 138h76l-154 -138h-36zM360 -10c-197 0 -288 82 -288 357c0 274 91 357 288 357c196 0 288 -83 288 -357c0 -275 -92 -357 -288 -357zM360 33c182 0 239 85 239 314s-57 314 -239 314c-181 0 -239 -85 -239 -314s58 -314 239 -314z" />
    <glyph glyph-name="Ocircumflex" unicode="&#xd4;" horiz-adv-x="721" 
d="M210 754l117 130h66l117 -130h-41l-109 93l-109 -93h-41zM360 -10c-197 0 -288 82 -288 357c0 274 91 357 288 357c196 0 288 -83 288 -357c0 -275 -92 -357 -288 -357zM360 33c182 0 239 85 239 314s-57 314 -239 314c-181 0 -239 -85 -239 -314s58 -314 239 -314z" />
    <glyph glyph-name="Otilde" unicode="&#xd5;" horiz-adv-x="721" 
d="M433 750c-39 0 -60 12 -83 35c-30 28 -47 34 -63 34c-36 0 -55 -23 -62 -69l-34 3c8 65 44 104 97 104c36 0 58 -15 88 -43c20 -20 34 -27 58 -27c36 0 55 20 62 63l34 -3c-8 -61 -45 -97 -97 -97zM360 -10c-197 0 -288 82 -288 357c0 274 91 357 288 357
c196 0 288 -83 288 -357c0 -275 -92 -357 -288 -357zM360 33c182 0 239 85 239 314s-57 314 -239 314c-181 0 -239 -85 -239 -314s58 -314 239 -314z" />
    <glyph glyph-name="Odieresis" unicode="&#xd6;" horiz-adv-x="721" 
d="M275 756c-24 0 -31 4 -31 33s7 33 31 33c22 0 30 -4 30 -33s-8 -33 -30 -33zM448 756c-24 0 -32 4 -32 33s8 33 32 33c21 0 29 -4 29 -33s-8 -33 -29 -33zM360 -10c-197 0 -288 82 -288 357c0 274 91 357 288 357c196 0 288 -83 288 -357c0 -275 -92 -357 -288 -357z
M360 33c182 0 239 85 239 314s-57 314 -239 314c-181 0 -239 -85 -239 -314s58 -314 239 -314z" />
    <glyph glyph-name="multiply" unicode="&#xd7;" horiz-adv-x="550" 
d="M496 489l-189 -189l189 -189l-32 -32l-189 189l-189 -189l-32 31l189 190l-189 189l31 32l190 -189l189 189z" />
    <glyph glyph-name="Oslash" unicode="&#xd8;" horiz-adv-x="721" 
d="M648 688l-58 -76c39 -56 58 -141 58 -265c0 -275 -92 -357 -288 -357c-87 0 -153 16 -200 57l-36 -47h-52l60 78c-41 56 -60 142 -60 269c0 274 91 357 288 357c88 0 155 -17 202 -60l34 44h52zM121 347c0 -104 12 -178 42 -228l371 487c-38 38 -94 55 -174 55
c-181 0 -239 -85 -239 -314zM599 347c0 102 -11 175 -40 225l-370 -487c38 -36 93 -52 171 -52c182 0 239 85 239 314z" />
    <glyph glyph-name="Ugrave" unicode="&#xd9;" horiz-adv-x="661" 
d="M333 745l-154 138h76l114 -138h-36zM329 -10c-164 0 -241 62 -241 232v472h47v-452c0 -163 54 -210 195 -210c147 0 199 47 199 210v452h45v-472c0 -170 -81 -232 -245 -232z" />
    <glyph glyph-name="Uacute" unicode="&#xda;" horiz-adv-x="661" 
d="M301 745l114 138h76l-154 -138h-36zM329 -10c-164 0 -241 62 -241 232v472h47v-452c0 -163 54 -210 195 -210c147 0 199 47 199 210v452h45v-472c0 -170 -81 -232 -245 -232z" />
    <glyph glyph-name="Ucircumflex" unicode="&#xdb;" horiz-adv-x="661" 
d="M180 754l117 130h66l117 -130h-41l-109 93l-109 -93h-41zM329 -10c-164 0 -241 62 -241 232v472h47v-452c0 -163 54 -210 195 -210c147 0 199 47 199 210v452h45v-472c0 -170 -81 -232 -245 -232z" />
    <glyph glyph-name="Udieresis" unicode="&#xdc;" horiz-adv-x="661" 
d="M245 756c-24 0 -31 4 -31 33s7 33 31 33c22 0 30 -4 30 -33s-8 -33 -30 -33zM418 756c-24 0 -32 4 -32 33s8 33 32 33c21 0 29 -4 29 -33s-8 -33 -29 -33zM329 -10c-164 0 -241 62 -241 232v472h47v-452c0 -163 54 -210 195 -210c147 0 199 47 199 210v452h45v-472
c0 -170 -81 -232 -245 -232z" />
    <glyph glyph-name="Yacute" unicode="&#xdd;" horiz-adv-x="526" 
d="M234 745l114 138h76l-154 -138h-36zM239 0v313l-241 381h54l210 -335h6l206 335h54l-242 -381v-313h-47z" />
    <glyph glyph-name="Thorn" unicode="&#xde;" horiz-adv-x="553" 
d="M255 545c190 0 241 -68 241 -192c0 -131 -54 -194 -241 -194h-116v-159h-47v694h47v-149h116zM248 202c152 0 199 36 199 151c0 103 -46 150 -199 150h-109v-301h109z" />
    <glyph glyph-name="germandbls" unicode="&#xdf;" horiz-adv-x="572" 
d="M287 -12c-36 0 -68 5 -95 12v43c32 -9 62 -13 94 -13c121 0 176 57 176 181c0 115 -63 167 -202 167h-26v42h25c118 0 172 49 172 158c0 99 -45 145 -144 145c-87 0 -147 -39 -147 -171v-552h-45v567c0 126 76 197 192 197c131 0 190 -67 190 -184
c0 -91 -37 -149 -120 -178v-3c92 -15 152 -72 152 -187c0 -154 -70 -224 -222 -224z" />
    <glyph glyph-name="agrave" unicode="&#xe0;" horiz-adv-x="588" 
d="M354 615h-31l-128 138h66zM301 550c162 0 193 -74 193 -169v-381h-38l-7 96c-32 -68 -115 -106 -212 -106c-129 0 -182 57 -182 157c0 138 94 168 212 168h182v59c0 85 -28 134 -151 134c-35 0 -80 -4 -121 -13v44c40 7 85 11 124 11zM236 32c106 0 186 44 213 126v117
h-176c-111 0 -173 -20 -173 -128c0 -78 47 -115 136 -115z" />
    <glyph glyph-name="aacute" unicode="&#xe1;" horiz-adv-x="588" 
d="M436 753l-128 -138h-31l92 138h67zM301 550c162 0 193 -74 193 -169v-381h-38l-7 96c-32 -68 -115 -106 -212 -106c-129 0 -182 57 -182 157c0 138 94 168 212 168h182v59c0 85 -28 134 -151 134c-35 0 -80 -4 -121 -13v44c40 7 85 11 124 11zM236 32
c106 0 186 44 213 126v117h-176c-111 0 -173 -20 -173 -128c0 -78 47 -115 136 -115z" />
    <glyph glyph-name="acircumflex" unicode="&#xe2;" horiz-adv-x="588" 
d="M307 720l-106 -105h-31l104 138h66l104 -138h-31zM301 550c162 0 193 -74 193 -169v-381h-38l-7 96c-32 -68 -115 -106 -212 -106c-129 0 -182 57 -182 157c0 138 94 168 212 168h182v59c0 85 -28 134 -151 134c-35 0 -80 -4 -121 -13v44c40 7 85 11 124 11zM236 32
c106 0 186 44 213 126v117h-176c-111 0 -173 -20 -173 -128c0 -78 47 -115 136 -115z" />
    <glyph glyph-name="atilde" unicode="&#xe3;" horiz-adv-x="588" 
d="M245 708c-29 0 -45 -22 -50 -69l-35 3c7 65 40 104 87 104c36 0 52 -17 76 -44c14 -16 25 -25 46 -25c30 0 45 20 51 62l34 -3c-7 -61 -39 -97 -86 -97c-37 0 -53 12 -71 34c-21 26 -33 35 -52 35zM301 550c162 0 193 -74 193 -169v-381h-38l-7 96
c-32 -68 -115 -106 -212 -106c-129 0 -182 57 -182 157c0 138 94 168 212 168h182v59c0 85 -28 134 -151 134c-35 0 -80 -4 -121 -13v44c40 7 85 11 124 11zM236 32c106 0 186 44 213 126v117h-176c-111 0 -173 -20 -173 -128c0 -78 47 -115 136 -115z" />
    <glyph glyph-name="adieresis" unicode="&#xe4;" horiz-adv-x="588" 
d="M232 660c-24 0 -31 4 -31 33s7 33 31 33c22 0 30 -4 30 -33s-8 -33 -30 -33zM385 660c-24 0 -32 4 -32 33s8 33 32 33c21 0 29 -4 29 -33s-8 -33 -29 -33zM301 550c162 0 193 -74 193 -169v-381h-38l-7 96c-32 -68 -115 -106 -212 -106c-129 0 -182 57 -182 157
c0 138 94 168 212 168h182v59c0 85 -28 134 -151 134c-35 0 -80 -4 -121 -13v44c40 7 85 11 124 11zM236 32c106 0 186 44 213 126v117h-176c-111 0 -173 -20 -173 -128c0 -78 47 -115 136 -115z" />
    <glyph glyph-name="aring" unicode="&#xe5;" horiz-adv-x="588" 
d="M307 615c-71 0 -106 36 -106 100c0 63 39 98 106 98c70 0 106 -36 106 -98c0 -65 -36 -100 -106 -100zM307 778c-45 0 -67 -20 -67 -64c0 -43 22 -63 67 -63s66 20 66 63c0 44 -21 64 -66 64zM301 550c162 0 193 -74 193 -169v-381h-38l-7 96
c-32 -68 -115 -106 -212 -106c-129 0 -182 57 -182 157c0 138 94 168 212 168h182v59c0 85 -28 134 -151 134c-35 0 -80 -4 -121 -13v44c40 7 85 11 124 11zM236 32c106 0 186 44 213 126v117h-176c-111 0 -173 -20 -173 -128c0 -78 47 -115 136 -115z" />
    <glyph glyph-name="ae" unicode="&#xe6;" horiz-adv-x="920" 
d="M851 275h-367v-14c0 -165 56 -230 186 -230c52 0 121 12 165 33v-43c-31 -14 -104 -31 -168 -31c-103 0 -173 33 -206 123c-38 -79 -123 -123 -224 -123c-129 0 -182 57 -182 157c0 138 95 168 212 168h172v59c0 85 -28 134 -141 134c-35 0 -80 -4 -121 -13v44
c40 7 85 11 124 11c103 0 151 -40 171 -96c36 70 100 96 190 96c175 0 193 -119 193 -220c0 -16 0 -32 -4 -55zM660 509c-115 0 -167 -55 -175 -194h327c0 118 -16 194 -152 194zM236 32c101 0 176 44 203 126v117h-166c-111 0 -173 -20 -173 -128c0 -78 47 -115 136 -115z
" />
    <glyph glyph-name="ccedilla" unicode="&#xe7;" horiz-adv-x="468" 
d="M424 15c-25 -10 -69 -21 -114 -24l-46 -53c10 2 20 2 30 2c51 0 80 -23 80 -63c0 -49 -46 -77 -130 -77c-28 0 -50 1 -74 4v38c24 -3 45 -4 73 -4c46 0 86 8 86 38c0 19 -17 30 -48 30c-36 0 -53 -3 -71 -9l-12 20l65 73c-144 7 -205 79 -205 280c0 211 67 280 226 280
c60 0 110 -9 138 -18v-45c-41 15 -89 22 -138 22c-134 0 -178 -58 -178 -239c0 -179 46 -239 178 -239c55 0 101 11 140 28v-44z" />
    <glyph glyph-name="egrave" unicode="&#xe8;" horiz-adv-x="552" 
d="M315 615h-31l-128 138h66zM487 330c0 -15 0 -31 -2 -52l-381 -27c2 -159 48 -220 194 -220c56 0 125 12 169 33v-43c-30 -14 -104 -31 -172 -31c-169 0 -237 68 -237 280s66 280 232 280c179 0 197 -119 197 -220zM104 289l340 26c0 118 -16 194 -156 194
s-182 -62 -184 -220z" />
    <glyph glyph-name="eacute" unicode="&#xe9;" horiz-adv-x="552" 
d="M397 753l-128 -138h-31l92 138h67zM487 330c0 -15 0 -31 -2 -52l-381 -27c2 -159 48 -220 194 -220c56 0 125 12 169 33v-43c-30 -14 -104 -31 -172 -31c-169 0 -237 68 -237 280s66 280 232 280c179 0 197 -119 197 -220zM104 289l340 26c0 118 -16 194 -156 194
s-182 -62 -184 -220z" />
    <glyph glyph-name="ecircumflex" unicode="&#xea;" horiz-adv-x="552" 
d="M267 720l-106 -105h-31l104 138h66l104 -138h-31zM487 330c0 -15 0 -31 -2 -52l-381 -27c2 -159 48 -220 194 -220c56 0 125 12 169 33v-43c-30 -14 -104 -31 -172 -31c-169 0 -237 68 -237 280s66 280 232 280c179 0 197 -119 197 -220zM104 289l340 26
c0 118 -16 194 -156 194s-182 -62 -184 -220z" />
    <glyph glyph-name="edieresis" unicode="&#xeb;" horiz-adv-x="552" 
d="M192 660c-24 0 -31 4 -31 33s7 33 31 33c22 0 30 -4 30 -33s-8 -33 -30 -33zM345 660c-24 0 -32 4 -32 33s8 33 32 33c21 0 29 -4 29 -33s-8 -33 -29 -33zM487 330c0 -15 0 -31 -2 -52l-381 -27c2 -159 48 -220 194 -220c56 0 125 12 169 33v-43
c-30 -14 -104 -31 -172 -31c-169 0 -237 68 -237 280s66 280 232 280c179 0 197 -119 197 -220zM104 289l340 26c0 118 -16 194 -156 194s-182 -62 -184 -220z" />
    <glyph glyph-name="igrave" unicode="&#xec;" horiz-adv-x="236" 
d="M134 615l-128 138h66l93 -138h-31zM95 0v540h45v-540h-45z" />
    <glyph glyph-name="iacute" unicode="&#xed;" horiz-adv-x="236" 
d="M88 615l92 138h67l-128 -138h-31zM95 0v540h45v-540h-45z" />
    <glyph glyph-name="icircumflex" unicode="&#xee;" horiz-adv-x="236" 
d="M-19 615l104 138h66l104 -138h-31l-106 105l-106 -105h-31zM95 0v540h45v-540h-45z" />
    <glyph glyph-name="idieresis" unicode="&#xef;" horiz-adv-x="236" 
d="M43 660c-24 0 -31 4 -31 33s7 33 31 33c22 0 30 -4 30 -33s-8 -33 -30 -33zM196 660c-24 0 -32 4 -32 33s8 33 32 33c21 0 29 -4 29 -33s-8 -33 -29 -33zM95 0v540h45v-540h-45z" />
    <glyph glyph-name="eth" unicode="&#xf0;" horiz-adv-x="588" 
d="M353 677c107 -119 172 -257 172 -407c0 -211 -68 -280 -232 -280s-230 69 -230 280c0 200 66 270 230 270c47 0 88 -7 121 -21c-26 49 -59 94 -100 138l-113 -59l-19 34l104 54c-25 25 -53 49 -83 74h65c20 -17 40 -35 58 -54l104 54l18 -34zM293 31
c143 0 185 61 185 239c0 168 -43 229 -185 229s-183 -61 -183 -229c0 -178 41 -239 183 -239z" />
    <glyph glyph-name="ntilde" unicode="&#xf1;" horiz-adv-x="586" 
d="M231 708c-29 0 -45 -22 -50 -69l-35 3c7 65 40 104 87 104c36 0 52 -17 76 -44c14 -16 25 -25 46 -25c30 0 45 20 51 62l34 -3c-7 -61 -39 -97 -86 -97c-37 0 -53 12 -71 34c-21 26 -33 35 -52 35zM321 550c136 0 176 -65 176 -172v-378h-45v350c0 113 -26 159 -136 159
c-73 0 -155 -21 -177 -130v-379h-45v540h45v-93c19 76 106 103 182 103z" />
    <glyph glyph-name="ograve" unicode="&#xf2;" horiz-adv-x="588" 
d="M310 615l-128 138h66l93 -138h-31zM293 -10c-164 0 -230 69 -230 280s66 280 230 280s232 -69 232 -280s-68 -280 -232 -280zM293 31c143 0 185 61 185 239s-43 239 -185 239s-183 -61 -183 -239s41 -239 183 -239z" />
    <glyph glyph-name="oacute" unicode="&#xf3;" horiz-adv-x="588" 
d="M264 615l92 138h67l-128 -138h-31zM293 -10c-164 0 -230 69 -230 280s66 280 230 280s232 -69 232 -280s-68 -280 -232 -280zM293 31c143 0 185 61 185 239s-43 239 -185 239s-183 -61 -183 -239s41 -239 183 -239z" />
    <glyph glyph-name="ocircumflex" unicode="&#xf4;" horiz-adv-x="588" 
d="M157 615l104 138h66l104 -138h-31l-106 105l-106 -105h-31zM293 -10c-164 0 -230 69 -230 280s66 280 230 280s232 -69 232 -280s-68 -280 -232 -280zM293 31c143 0 185 61 185 239s-43 239 -185 239s-183 -61 -183 -239s41 -239 183 -239z" />
    <glyph glyph-name="otilde" unicode="&#xf5;" horiz-adv-x="588" 
d="M355 639c-37 0 -53 12 -71 34c-21 26 -33 35 -52 35c-29 0 -45 -22 -50 -69l-35 3c7 65 40 104 87 104c36 0 52 -17 76 -44c14 -16 25 -25 46 -25c30 0 45 20 51 62l34 -3c-7 -61 -39 -97 -86 -97zM293 -10c-164 0 -230 69 -230 280s66 280 230 280s232 -69 232 -280
s-68 -280 -232 -280zM293 31c143 0 185 61 185 239s-43 239 -185 239s-183 -61 -183 -239s41 -239 183 -239z" />
    <glyph glyph-name="odieresis" unicode="&#xf6;" horiz-adv-x="588" 
d="M219 660c-24 0 -31 4 -31 33s7 33 31 33c22 0 30 -4 30 -33s-8 -33 -30 -33zM372 660c-24 0 -32 4 -32 33s8 33 32 33c21 0 29 -4 29 -33s-8 -33 -29 -33zM293 -10c-164 0 -230 69 -230 280s66 280 230 280s232 -69 232 -280s-68 -280 -232 -280zM293 31
c143 0 185 61 185 239s-43 239 -185 239s-183 -61 -183 -239s41 -239 183 -239z" />
    <glyph glyph-name="divide" unicode="&#xf7;" horiz-adv-x="550" 
d="M276 450c-32 0 -42 5 -42 43s10 43 42 43c30 0 40 -5 40 -43s-10 -43 -40 -43zM35 278v45h480v-45h-480zM276 64c-32 0 -42 5 -42 43s10 43 42 43c30 0 40 -5 40 -43s-10 -43 -40 -43z" />
    <glyph glyph-name="oslash" unicode="&#xf8;" horiz-adv-x="588" 
d="M525 578l-57 -86c39 -43 57 -114 57 -222c0 -211 -68 -280 -232 -280c-60 0 -107 9 -142 31l-40 -59h-48l57 85c-39 43 -57 114 -57 223c0 211 66 280 230 280c61 0 108 -9 144 -32l40 60h48zM110 270c0 -87 10 -146 36 -184l266 396c-28 19 -67 27 -119 27
c-142 0 -183 -61 -183 -239zM478 270c0 87 -10 145 -37 183l-266 -395c28 -19 66 -27 118 -27c143 0 185 61 185 239z" />
    <glyph glyph-name="ugrave" unicode="&#xf9;" horiz-adv-x="581" 
d="M329 615h-31l-128 138h66zM442 540h45v-540h-38l-7 95c-18 -78 -104 -105 -180 -105c-136 0 -174 65 -174 172v378h45v-350c0 -113 24 -158 134 -158c73 0 153 20 175 129v379z" />
    <glyph glyph-name="uacute" unicode="&#xfa;" horiz-adv-x="581" 
d="M412 753l-128 -138h-31l92 138h67zM442 540h45v-540h-38l-7 95c-18 -78 -104 -105 -180 -105c-136 0 -174 65 -174 172v378h45v-350c0 -113 24 -158 134 -158c73 0 153 20 175 129v379z" />
    <glyph glyph-name="ucircumflex" unicode="&#xfb;" horiz-adv-x="581" 
d="M282 720l-106 -105h-31l104 138h66l104 -138h-31zM442 540h45v-540h-38l-7 95c-18 -78 -104 -105 -180 -105c-136 0 -174 65 -174 172v378h45v-350c0 -113 24 -158 134 -158c73 0 153 20 175 129v379z" />
    <glyph glyph-name="udieresis" unicode="&#xfc;" horiz-adv-x="581" 
d="M207 660c-24 0 -31 4 -31 33s7 33 31 33c22 0 30 -4 30 -33s-8 -33 -30 -33zM360 660c-24 0 -32 4 -32 33s8 33 32 33c21 0 29 -4 29 -33s-8 -33 -29 -33zM442 540h45v-540h-38l-7 95c-18 -78 -104 -105 -180 -105c-136 0 -174 65 -174 172v378h45v-350
c0 -113 24 -158 134 -158c73 0 153 20 175 129v379z" />
    <glyph glyph-name="yacute" unicode="&#xfd;" horiz-adv-x="470" 
d="M206 615l92 138h67l-128 -138h-31zM49 -200v40c89 0 127 38 170 163l-216 537h48l189 -481h6l174 481h47l-201 -543c-45 -121 -85 -197 -217 -197z" />
    <glyph glyph-name="thorn" unicode="&#xfe;" horiz-adv-x="606" 
d="M333 550c160 0 210 -95 210 -280c0 -169 -50 -280 -210 -280c-117 0 -172 53 -195 124v-314h-45v960h45v-338c22 78 79 128 195 128zM326 31c139 0 170 92 170 239c0 156 -34 239 -170 239c-146 0 -190 -100 -190 -239c0 -137 44 -239 190 -239z" />
    <glyph glyph-name="ydieresis" unicode="&#xff;" horiz-adv-x="470" 
d="M160 660c-24 0 -31 4 -31 33s7 33 31 33c22 0 30 -4 30 -33s-8 -33 -30 -33zM313 660c-24 0 -32 4 -32 33s8 33 32 33c21 0 29 -4 29 -33s-8 -33 -29 -33zM49 -200v40c89 0 127 38 170 163l-216 537h48l189 -481h6l174 481h47l-201 -543c-45 -121 -85 -197 -217 -197z
" />
    <glyph glyph-name="Amacron" unicode="&#x100;" horiz-adv-x="607" 
d="M431 833v-39h-255v39h255zM551 0l-87 233h-322l-88 -233h-50l267 694h68l264 -694h-52zM158 274h291l-139 375h-10z" />
    <glyph glyph-name="amacron" unicode="&#x101;" horiz-adv-x="588" 
d="M435 712v-39h-255v39h255zM301 550c162 0 193 -74 193 -169v-381h-38l-7 96c-32 -68 -115 -106 -212 -106c-129 0 -182 57 -182 157c0 138 94 168 212 168h182v59c0 85 -28 134 -151 134c-35 0 -80 -4 -121 -13v44c40 7 85 11 124 11zM236 32c106 0 186 44 213 126v117
h-176c-111 0 -173 -20 -173 -128c0 -78 47 -115 136 -115z" />
    <glyph glyph-name="Abreve" unicode="&#x102;" horiz-adv-x="607" 
d="M304 747c-76 0 -131 45 -142 126h36c12 -53 54 -85 104 -85c54 0 96 32 107 85h35c-11 -81 -60 -126 -140 -126zM551 0l-87 233h-322l-88 -233h-50l267 694h68l264 -694h-52zM158 274h291l-139 375h-10z" />
    <glyph glyph-name="abreve" unicode="&#x103;" horiz-adv-x="588" 
d="M308 606c-71 0 -122 45 -132 126h36c11 -54 49 -85 94 -85c49 0 87 31 97 85h35c-10 -81 -56 -126 -130 -126zM301 550c162 0 193 -74 193 -169v-381h-38l-7 96c-32 -68 -115 -106 -212 -106c-129 0 -182 57 -182 157c0 138 94 168 212 168h182v59c0 85 -28 134 -151 134
c-35 0 -80 -4 -121 -13v44c40 7 85 11 124 11zM236 32c106 0 186 44 213 126v117h-176c-111 0 -173 -20 -173 -128c0 -78 47 -115 136 -115z" />
    <glyph glyph-name="Aogonek" unicode="&#x104;" horiz-adv-x="607" 
d="M575 -163c17 0 36 2 56 9v-33c-13 -5 -39 -13 -62 -13c-59 0 -97 33 -97 82s32 85 81 118h-2l-87 233h-322l-88 -233h-50l267 694h68l264 -694h-2c-60 -33 -79 -68 -79 -109c0 -37 19 -54 53 -54zM158 274h291l-139 375h-10z" />
    <glyph glyph-name="aogonek" unicode="&#x105;" horiz-adv-x="588" 
d="M468 -163c17 0 36 2 56 9v-33c-13 -5 -39 -13 -62 -13c-59 0 -97 33 -97 82c0 52 37 90 91 125l-7 89c-32 -68 -115 -106 -212 -106c-129 0 -182 57 -182 157c0 138 94 168 212 168h182v59c0 85 -28 134 -151 134c-35 0 -80 -4 -121 -13v44c40 7 85 11 124 11
c162 0 193 -74 193 -169v-381c-60 -33 -79 -68 -79 -109c0 -37 19 -54 53 -54zM236 32c106 0 186 44 213 126v117h-176c-111 0 -173 -20 -173 -128c0 -78 47 -115 136 -115z" />
    <glyph glyph-name="Cacute" unicode="&#x106;" horiz-adv-x="577" 
d="M315 745l114 138h76l-154 -138h-36zM375 -10c-184 0 -303 67 -303 357c0 268 123 357 319 357c63 0 103 -6 143 -18v-47c-38 13 -81 22 -144 22c-171 0 -269 -81 -269 -314c0 -249 96 -314 255 -314c69 0 113 10 166 30v-42c-44 -18 -98 -31 -167 -31z" />
    <glyph glyph-name="cacute" unicode="&#x107;" horiz-adv-x="468" 
d="M235 615l92 138h67l-128 -138h-31zM284 -10c-159 0 -226 69 -226 280s67 280 226 280c60 0 110 -9 138 -18v-45c-41 15 -89 22 -138 22c-134 0 -178 -58 -178 -239c0 -179 46 -239 178 -239c55 0 101 11 140 28v-44c-30 -12 -86 -25 -140 -25z" />
    <glyph glyph-name="Ccircumflex" unicode="&#x108;" horiz-adv-x="577" 
d="M194 754l117 130h66l117 -130h-41l-109 93l-109 -93h-41zM375 -10c-184 0 -303 67 -303 357c0 268 123 357 319 357c63 0 103 -6 143 -18v-47c-38 13 -81 22 -144 22c-171 0 -269 -81 -269 -314c0 -249 96 -314 255 -314c69 0 113 10 166 30v-42
c-44 -18 -98 -31 -167 -31z" />
    <glyph glyph-name="ccircumflex" unicode="&#x109;" horiz-adv-x="468" 
d="M128 615l104 138h66l104 -138h-31l-106 105l-106 -105h-31zM284 -10c-159 0 -226 69 -226 280s67 280 226 280c60 0 110 -9 138 -18v-45c-41 15 -89 22 -138 22c-134 0 -178 -58 -178 -239c0 -179 46 -239 178 -239c55 0 101 11 140 28v-44c-30 -12 -86 -25 -140 -25z
" />
    <glyph glyph-name="Cdotaccent" unicode="&#x10a;" horiz-adv-x="577" 
d="M345 771c-23 0 -31 4 -31 33s8 33 31 33c22 0 30 -4 30 -33s-8 -33 -30 -33zM375 -10c-184 0 -303 67 -303 357c0 268 123 357 319 357c63 0 103 -6 143 -18v-47c-38 13 -81 22 -144 22c-171 0 -269 -81 -269 -314c0 -249 96 -314 255 -314c69 0 113 10 166 30v-42
c-44 -18 -98 -31 -167 -31z" />
    <glyph glyph-name="cdotaccent" unicode="&#x10b;" horiz-adv-x="468" 
d="M265 660c-23 0 -31 4 -31 33s8 33 31 33c22 0 30 -4 30 -33s-8 -33 -30 -33zM284 -10c-159 0 -226 69 -226 280s67 280 226 280c60 0 110 -9 138 -18v-45c-41 15 -89 22 -138 22c-134 0 -178 -58 -178 -239c0 -179 46 -239 178 -239c55 0 101 11 140 28v-44
c-30 -12 -86 -25 -140 -25z" />
    <glyph glyph-name="Ccaron" unicode="&#x10c;" horiz-adv-x="577" 
d="M311 756l-117 130h41l108 -93l110 93h41l-117 -130h-66zM375 -10c-184 0 -303 67 -303 357c0 268 123 357 319 357c63 0 103 -6 143 -18v-47c-38 13 -81 22 -144 22c-171 0 -269 -81 -269 -314c0 -249 96 -314 255 -314c69 0 113 10 166 30v-42c-44 -18 -98 -31 -167 -31
z" />
    <glyph glyph-name="ccaron" unicode="&#x10d;" horiz-adv-x="468" 
d="M232 615l-104 138h31l105 -105l107 105h31l-104 -138h-66zM284 -10c-159 0 -226 69 -226 280s67 280 226 280c60 0 110 -9 138 -18v-45c-41 15 -89 22 -138 22c-134 0 -178 -58 -178 -239c0 -179 46 -239 178 -239c55 0 101 11 140 28v-44c-30 -12 -86 -25 -140 -25z" />
    <glyph glyph-name="Dcaron" unicode="&#x10e;" horiz-adv-x="670" 
d="M336 756h-66l-117 130h41l108 -93l110 93h41zM265 694c197 0 334 -58 334 -347c0 -268 -137 -347 -334 -347h-173v694h173zM269 42c165 0 280 67 280 305c0 252 -120 305 -280 305h-130v-610h130z" />
    <glyph glyph-name="dcaron" unicode="&#x10f;" horiz-adv-x="606" 
d="M468 426v334h45v-760h-38l-5 121c-21 -79 -79 -131 -197 -131c-160 0 -210 95 -210 280c0 169 50 280 210 280c117 0 172 -53 195 -124zM591 760c7 -17 10 -35 10 -53c0 -30 -9 -61 -25 -89h-33c11 25 18 53 18 80c0 21 -4 42 -13 62h43zM280 31c146 0 190 100 190 239
c0 137 -44 239 -190 239c-139 0 -170 -92 -170 -239c0 -155 34 -239 170 -239z" />
    <glyph glyph-name="Dcroat" unicode="&#x110;" horiz-adv-x="690" 
d="M285 694c197 0 334 -58 334 -347c0 -268 -137 -347 -334 -347h-173v344h-75v42h75v308h173zM289 42c165 0 280 67 280 305c0 252 -120 305 -280 305h-130v-266h188v-42h-188v-302h130z" />
    <glyph glyph-name="dcroat" unicode="&#x111;" horiz-adv-x="606" 
d="M590 663v-41h-77v-622h-38l-5 121c-21 -79 -79 -131 -197 -131c-160 0 -210 95 -210 280c0 169 50 280 210 280c117 0 172 -53 195 -124v196h-196v41h196v97h45v-97h77zM280 31c146 0 190 100 190 239c0 137 -44 239 -190 239c-139 0 -170 -92 -170 -239
c0 -155 34 -239 170 -239z" />
    <glyph glyph-name="Emacron" unicode="&#x112;" horiz-adv-x="532" 
d="M395 833v-39h-255v39h255zM139 45h345v-45h-392v694h359v-43h-312v-265h292v-42h-292v-299z" />
    <glyph glyph-name="emacron" unicode="&#x113;" horiz-adv-x="552" 
d="M395 712v-39h-255v39h255zM487 330c0 -15 0 -31 -2 -52l-381 -27c2 -159 48 -220 194 -220c56 0 125 12 169 33v-43c-30 -14 -104 -31 -172 -31c-169 0 -237 68 -237 280s66 280 232 280c179 0 197 -119 197 -220zM104 289l340 26c0 118 -16 194 -156 194
s-182 -62 -184 -220z" />
    <glyph glyph-name="Ebreve" unicode="&#x114;" horiz-adv-x="532" 
d="M268 747c-76 0 -131 45 -142 126h36c12 -53 54 -85 104 -85c54 0 96 32 107 85h35c-11 -81 -60 -126 -140 -126zM139 45h345v-45h-392v694h359v-43h-312v-265h292v-42h-292v-299z" />
    <glyph glyph-name="ebreve" unicode="&#x115;" horiz-adv-x="552" 
d="M268 606c-71 0 -122 45 -132 126h36c11 -54 49 -85 94 -85c49 0 87 31 97 85h35c-10 -81 -56 -126 -130 -126zM487 330c0 -15 0 -31 -2 -52l-381 -27c2 -159 48 -220 194 -220c56 0 125 12 169 33v-43c-30 -14 -104 -31 -172 -31c-169 0 -237 68 -237 280s66 280 232 280
c179 0 197 -119 197 -220zM104 289l340 26c0 118 -16 194 -156 194s-182 -62 -184 -220z" />
    <glyph glyph-name="Edotaccent" unicode="&#x116;" horiz-adv-x="532" 
d="M268 771c-23 0 -31 4 -31 33s8 33 31 33c22 0 30 -4 30 -33s-8 -33 -30 -33zM139 45h345v-45h-392v694h359v-43h-312v-265h292v-42h-292v-299z" />
    <glyph glyph-name="edotaccent" unicode="&#x117;" horiz-adv-x="552" 
d="M268 660c-23 0 -31 4 -31 33s8 33 31 33c22 0 30 -4 30 -33s-8 -33 -30 -33zM487 330c0 -15 0 -31 -2 -52l-381 -27c2 -159 48 -220 194 -220c56 0 125 12 169 33v-43c-30 -14 -104 -31 -172 -31c-169 0 -237 68 -237 280s66 280 232 280c179 0 197 -119 197 -220z
M104 289l340 26c0 118 -16 194 -156 194s-182 -62 -184 -220z" />
    <glyph glyph-name="Eogonek" unicode="&#x118;" horiz-adv-x="532" 
d="M434 0c-60 -33 -79 -68 -79 -109c0 -37 19 -54 53 -54c17 0 36 2 56 9v-33c-13 -5 -39 -13 -62 -13c-59 0 -97 33 -97 82s32 85 81 118h-294v694h359v-43h-312v-265h292v-42h-292v-299h345v-45h-50z" />
    <glyph glyph-name="eogonek" unicode="&#x119;" horiz-adv-x="552" 
d="M487 330c0 -15 0 -31 -2 -52l-381 -27c2 -159 48 -220 194 -220c56 0 125 12 169 33v-43c-6 -3 -14 -6 -23 -9c-59 -33 -78 -67 -78 -108c0 -37 19 -54 53 -54c17 0 36 2 56 9v-33c-13 -5 -39 -13 -62 -13c-59 0 -97 33 -97 82c0 41 23 73 58 102c-25 -4 -53 -7 -79 -7
c-169 0 -237 68 -237 280s66 280 232 280c179 0 197 -119 197 -220zM104 289l340 26c0 118 -16 194 -156 194s-182 -62 -184 -220z" />
    <glyph glyph-name="Ecaron" unicode="&#x11a;" horiz-adv-x="532" 
d="M300 756h-66l-117 130h41l108 -93l110 93h41zM139 45h345v-45h-392v694h359v-43h-312v-265h292v-42h-292v-299z" />
    <glyph glyph-name="ecaron" unicode="&#x11b;" horiz-adv-x="552" 
d="M300 615h-66l-104 138h31l105 -105l107 105h31zM487 330c0 -15 0 -31 -2 -52l-381 -27c2 -159 48 -220 194 -220c56 0 125 12 169 33v-43c-30 -14 -104 -31 -172 -31c-169 0 -237 68 -237 280s66 280 232 280c179 0 197 -119 197 -220zM104 289l340 26
c0 118 -16 194 -156 194s-182 -62 -184 -220z" />
    <glyph glyph-name="Gcircumflex" unicode="&#x11c;" horiz-adv-x="659" 
d="M217 754l117 130h66l117 -130h-41l-109 93l-109 -93h-41zM386 -10c-194 0 -314 67 -314 357c0 268 121 357 326 357c62 0 137 -8 178 -26v-46c-44 17 -106 29 -176 29c-157 0 -279 -55 -279 -314c0 -273 116 -315 276 -315c54 0 103 8 140 20v258h-155v42h202v-334
c-49 -16 -110 -28 -198 -28z" />
    <glyph glyph-name="gcircumflex" unicode="&#x11d;" horiz-adv-x="606" 
d="M278 720l-106 -105h-31l104 138h66l104 -138h-31zM468 540h45v-505c0 -149 -84 -235 -247 -235c-45 0 -94 4 -122 11v43c40 -10 74 -13 121 -13c141 0 203 68 203 206v71c-23 -75 -80 -118 -195 -118c-160 0 -210 90 -210 275c0 169 50 275 210 275
c117 0 172 -53 195 -125v115zM282 41c146 0 188 95 188 234c0 137 -42 234 -188 234c-139 0 -170 -87 -170 -234c0 -155 34 -234 170 -234z" />
    <glyph glyph-name="Gbreve" unicode="&#x11e;" horiz-adv-x="659" 
d="M368 747c-76 0 -131 45 -142 126h36c12 -53 54 -85 104 -85c54 0 96 32 107 85h35c-11 -81 -60 -126 -140 -126zM386 -10c-194 0 -314 67 -314 357c0 268 121 357 326 357c62 0 137 -8 178 -26v-46c-44 17 -106 29 -176 29c-157 0 -279 -55 -279 -314
c0 -273 116 -315 276 -315c54 0 103 8 140 20v258h-155v42h202v-334c-49 -16 -110 -28 -198 -28z" />
    <glyph glyph-name="gbreve" unicode="&#x11f;" horiz-adv-x="606" 
d="M278 606c-71 0 -122 45 -132 126h36c11 -54 49 -85 94 -85c49 0 87 31 97 85h35c-10 -81 -56 -126 -130 -126zM468 540h45v-505c0 -149 -84 -235 -247 -235c-45 0 -94 4 -122 11v43c40 -10 74 -13 121 -13c141 0 203 68 203 206v71c-23 -75 -80 -118 -195 -118
c-160 0 -210 90 -210 275c0 169 50 275 210 275c117 0 172 -53 195 -125v115zM282 41c146 0 188 95 188 234c0 137 -42 234 -188 234c-139 0 -170 -87 -170 -234c0 -155 34 -234 170 -234z" />
    <glyph glyph-name="Gdotaccent" unicode="&#x120;" horiz-adv-x="659" 
d="M368 771c-23 0 -31 4 -31 33s8 33 31 33c22 0 30 -4 30 -33s-8 -33 -30 -33zM386 -10c-194 0 -314 67 -314 357c0 268 121 357 326 357c62 0 137 -8 178 -26v-46c-44 17 -106 29 -176 29c-157 0 -279 -55 -279 -314c0 -273 116 -315 276 -315c54 0 103 8 140 20v258h-155
v42h202v-334c-49 -16 -110 -28 -198 -28z" />
    <glyph glyph-name="gdotaccent" unicode="&#x121;" horiz-adv-x="606" 
d="M278 660c-23 0 -31 4 -31 33s8 33 31 33c22 0 30 -4 30 -33s-8 -33 -30 -33zM468 540h45v-505c0 -149 -84 -235 -247 -235c-45 0 -94 4 -122 11v43c40 -10 74 -13 121 -13c141 0 203 68 203 206v71c-23 -75 -80 -118 -195 -118c-160 0 -210 90 -210 275
c0 169 50 275 210 275c117 0 172 -53 195 -125v115zM282 41c146 0 188 95 188 234c0 137 -42 234 -188 234c-139 0 -170 -87 -170 -234c0 -155 34 -234 170 -234z" />
    <glyph glyph-name="uni0122" unicode="&#x122;" horiz-adv-x="659" 
d="M386 -10c-194 0 -314 67 -314 357c0 268 121 357 326 357c62 0 137 -8 178 -26v-46c-44 17 -106 29 -176 29c-157 0 -279 -55 -279 -314c0 -273 116 -315 276 -315c54 0 103 8 140 20v258h-155v42h202v-334c-49 -16 -110 -28 -198 -28zM327 -199c26 46 48 95 48 138h54
c0 -41 -32 -94 -68 -138h-34z" />
    <glyph glyph-name="uni0123" unicode="&#x123;" horiz-adv-x="606" 
d="M348 750c-26 -46 -48 -95 -48 -138h-54c0 41 32 94 68 138h34zM468 540h45v-505c0 -149 -84 -235 -247 -235c-45 0 -94 4 -122 11v43c40 -10 74 -13 121 -13c141 0 203 68 203 206v71c-23 -75 -80 -118 -195 -118c-160 0 -210 90 -210 275c0 169 50 275 210 275
c117 0 172 -53 195 -125v115zM282 41c146 0 188 95 188 234c0 137 -42 234 -188 234c-139 0 -170 -87 -170 -234c0 -155 34 -234 170 -234z" />
    <glyph glyph-name="Hcircumflex" unicode="&#x124;" horiz-adv-x="671" 
d="M335 847l-109 -93h-41l117 130h66l117 -130h-41zM531 694h48v-694h-48v355h-392v-355h-47v694h47v-297h392v297z" />
    <glyph glyph-name="hcircumflex" unicode="&#x125;" horiz-adv-x="586" 
d="M219 795l-105 105l-107 -105h-31l104 138h66l104 -138h-31zM321 550c136 0 176 -65 176 -172v-378h-45v350c0 113 -26 159 -136 159c-73 0 -155 -21 -177 -130v-379h-45v760h45v-313c19 76 106 103 182 103z" />
    <glyph glyph-name="Hbar" unicode="&#x126;" horiz-adv-x="671" 
d="M638 565v-41h-59v-524h-48v355h-392v-355h-47v524h-59v41h59v129h47v-129h392v129h48v-129h59zM531 397v127h-392v-127h392z" />
    <glyph glyph-name="hbar" unicode="&#x127;" horiz-adv-x="586" 
d="M321 550c136 0 176 -65 176 -172v-378h-45v350c0 113 -26 159 -136 159c-73 0 -155 -21 -177 -130v-379h-45v622h-79v40h79v98h45v-98h166v-40h-166v-175c19 76 106 103 182 103z" />
    <glyph glyph-name="Itilde" unicode="&#x128;" horiz-adv-x="232" 
d="M177 753c-37 0 -53 12 -71 34c-21 26 -33 35 -51 35c-30 0 -45 -22 -51 -69l-34 3c6 65 39 104 86 104c36 0 53 -17 76 -44c15 -16 25 -25 46 -25c30 0 46 20 51 62l34 -3c-6 -61 -39 -97 -86 -97zM92 0v694h47v-694h-47z" />
    <glyph glyph-name="itilde" unicode="&#x129;" horiz-adv-x="236" 
d="M179 639c-37 0 -53 12 -71 34c-21 26 -33 35 -52 35c-29 0 -45 -22 -50 -69l-35 3c7 65 40 104 87 104c36 0 52 -17 76 -44c14 -16 25 -25 46 -25c30 0 45 20 51 62l34 -3c-7 -61 -39 -97 -86 -97zM95 0v540h45v-540h-45z" />
    <glyph glyph-name="Imacron" unicode="&#x12a;" horiz-adv-x="232" 
d="M-11 759v39h255v-39h-255zM92 0v694h47v-694h-47z" />
    <glyph glyph-name="imacron" unicode="&#x12b;" horiz-adv-x="236" 
d="M-9 673v39h255v-39h-255zM95 0v540h45v-540h-45z" />
    <glyph glyph-name="Ibreve" unicode="&#x12c;" horiz-adv-x="232" 
d="M117 750c-71 0 -122 45 -132 126h36c11 -54 49 -85 94 -85c49 0 87 31 97 85h35c-10 -81 -56 -126 -130 -126zM92 0v694h47v-694h-47z" />
    <glyph glyph-name="ibreve" unicode="&#x12d;" horiz-adv-x="236" 
d="M119 606c-71 0 -122 45 -132 126h36c11 -54 49 -85 94 -85c49 0 87 31 97 85h35c-10 -81 -56 -126 -130 -126zM95 0v540h45v-540h-45z" />
    <glyph glyph-name="Iogonek" unicode="&#x12e;" horiz-adv-x="232" 
d="M113 -163c17 0 36 2 56 9v-33c-13 -5 -39 -13 -62 -13c-59 0 -97 33 -97 82s33 86 82 119v693h47v-694c-60 -33 -79 -68 -79 -109c0 -37 19 -54 53 -54z" />
    <glyph glyph-name="iogonek" unicode="&#x12f;" horiz-adv-x="236" 
d="M114 -163c17 0 36 2 56 9v-33c-13 -5 -39 -13 -62 -13c-59 0 -97 33 -97 82c0 50 34 87 84 120v538h45v-540c-60 -33 -79 -68 -79 -109c0 -37 19 -54 53 -54zM118 660c-24 0 -31 4 -31 33s7 33 31 33c22 0 30 -4 30 -33s-8 -33 -30 -33z" />
    <glyph glyph-name="Idotaccent" unicode="&#x130;" horiz-adv-x="232" 
d="M117 814c-23 0 -31 4 -31 33s8 33 31 33c22 0 30 -4 30 -33s-8 -33 -30 -33zM92 0v694h47v-694h-47z" />
    <glyph glyph-name="IJ" unicode="&#x132;" horiz-adv-x="447" 
d="M92 0v694h47v-694h-47zM200 -180c-29 0 -54 4 -74 8v44c19 -4 42 -9 76 -9c79 0 109 48 109 140v691h47v-705c0 -95 -42 -169 -158 -169z" />
    <glyph glyph-name="ij" unicode="&#x133;" horiz-adv-x="472" 
d="M118 660c-24 0 -31 4 -31 33s7 33 31 33c22 0 30 -4 30 -33s-8 -33 -30 -33zM354 660c-24 0 -31 4 -31 33s7 33 31 33c22 0 30 -4 30 -33s-8 -33 -30 -33zM95 0v540h45v-540h-45zM232 -200c-21 0 -40 2 -61 6v42c26 -4 48 -6 61 -6c75 0 99 32 99 155v543h45v-554
c0 -157 -58 -186 -144 -186z" />
    <glyph glyph-name="Jcircumflex" unicode="&#x134;" horiz-adv-x="214" 
d="M-50 754l117 130h66l117 -130h-41l-109 93l-109 -93h-41zM-32 -180c-29 0 -54 4 -74 8v44c19 -4 42 -9 76 -9c79 0 109 48 109 140v691h47v-705c0 -95 -42 -169 -158 -169z" />
    <glyph glyph-name="jcircumflex" unicode="&#x135;" horiz-adv-x="236" 
d="M-19 615l104 138h66l104 -138h-31l-106 105l-106 -105h-31zM-4 -200c-21 0 -40 2 -61 6v42c26 -4 48 -6 61 -6c75 0 99 32 99 155v543h45v-554c0 -157 -58 -186 -144 -186z" />
    <glyph glyph-name="uni0136" unicode="&#x136;" horiz-adv-x="563" 
d="M240 369l304 -369h-62l-280 347h-63v-347h-47v694h47v-305h63l273 305h60zM234 -199c26 46 48 95 48 138h54c0 -41 -32 -94 -68 -138h-34z" />
    <glyph glyph-name="uni0137" unicode="&#x137;" horiz-adv-x="464" 
d="M205 288l263 -288h-60l-238 265h-31v-265h-45v760h45v-454h30l226 234h58zM201 -199c26 46 48 95 48 138h54c0 -41 -32 -94 -68 -138h-34z" />
    <glyph glyph-name="kgreenlandic" unicode="&#x138;" horiz-adv-x="464" 
d="M205 288l263 -288h-60l-238 265h-31v-265h-45v540h45v-234h30l226 234h58z" />
    <glyph glyph-name="Lacute" unicode="&#x139;" horiz-adv-x="473" 
d="M270 883l-154 -138h-36l114 138h76zM139 45h319v-45h-366v694h47v-649z" />
    <glyph glyph-name="lacute" unicode="&#x13a;" horiz-adv-x="246" 
d="M94 835l92 138h67l-128 -138h-31zM187 -6c-50 0 -92 18 -92 97v669h45v-657c0 -56 15 -70 53 -70c21 0 33 2 48 6v-39c-15 -4 -29 -6 -54 -6z" />
    <glyph glyph-name="uni013B" unicode="&#x13b;" horiz-adv-x="473" 
d="M139 45h319v-45h-366v694h47v-649zM222 -199c26 46 48 95 48 138h54c0 -41 -32 -94 -68 -138h-34z" />
    <glyph glyph-name="uni013C" unicode="&#x13c;" horiz-adv-x="246" 
d="M187 -6c-50 0 -92 18 -92 97v669h45v-657c0 -56 15 -70 53 -70c21 0 33 2 48 6v-39c-15 -4 -29 -6 -54 -6zM108 -199c26 46 48 95 48 138h54c0 -41 -32 -94 -68 -138h-34z" />
    <glyph glyph-name="Lcaron" unicode="&#x13d;" horiz-adv-x="473" 
d="M139 45h319v-45h-366v694h47v-649zM259 552h-33c11 25 18 53 18 80c0 21 -4 42 -13 62h43c7 -17 10 -35 10 -53c0 -30 -9 -61 -25 -89z" />
    <glyph glyph-name="lcaron" unicode="&#x13e;" horiz-adv-x="246" 
d="M187 -6c-50 0 -92 18 -92 97v669h45v-657c0 -56 15 -70 53 -70c21 0 33 2 48 6v-39c-15 -4 -29 -6 -54 -6zM177 618c11 25 18 53 18 80c0 21 -4 42 -13 62h43c7 -17 10 -35 10 -53c0 -30 -9 -61 -25 -89h-33z" />
    <glyph glyph-name="Ldot" unicode="&#x13f;" horiz-adv-x="473" 
d="M139 45h319v-45h-366v694h47v-649zM343 310c-24 0 -31 4 -31 33s7 33 31 33c22 0 30 -4 30 -33s-8 -33 -30 -33z" />
    <glyph glyph-name="ldot" unicode="&#x140;" horiz-adv-x="246" 
d="M187 -6c-50 0 -92 18 -92 97v669h45v-657c0 -56 15 -70 53 -70c21 0 33 2 48 6v-39c-15 -4 -29 -6 -54 -6zM242 326c-24 0 -32 4 -32 33s8 33 32 33c21 0 29 -4 29 -33s-8 -33 -29 -33z" />
    <glyph glyph-name="Lslash" unicode="&#x141;" horiz-adv-x="473" 
d="M139 45h319v-45h-366v316l-77 -49l-22 36l99 63v328h47v-298l148 94l22 -35l-170 -109v-301z" />
    <glyph glyph-name="lslash" unicode="&#x142;" horiz-adv-x="246" 
d="M140 103c0 -56 15 -70 53 -70c21 0 33 2 48 6v-39c-15 -4 -29 -6 -54 -6c-50 0 -92 18 -92 97v250l-78 -76l-29 29l107 105v361h45v-317l76 74l29 -30l-105 -102v-282z" />
    <glyph glyph-name="Nacute" unicode="&#x143;" horiz-adv-x="711" 
d="M326 745l114 138h76l-154 -138h-36zM92 0v694h75l399 -613h6v613h47v-694h-56l-418 646h-6v-646h-47z" />
    <glyph glyph-name="nacute" unicode="&#x144;" horiz-adv-x="586" 
d="M422 753l-128 -138h-31l92 138h67zM321 550c136 0 176 -65 176 -172v-378h-45v350c0 113 -26 159 -136 159c-73 0 -155 -21 -177 -130v-379h-45v540h45v-93c19 76 106 103 182 103z" />
    <glyph glyph-name="uni0145" unicode="&#x145;" horiz-adv-x="711" 
d="M92 0v694h75l399 -613h6v613h47v-694h-56l-418 646h-6v-646h-47zM310 -199c26 46 48 95 48 138h54c0 -41 -32 -94 -68 -138h-34z" />
    <glyph glyph-name="uni0146" unicode="&#x146;" horiz-adv-x="586" 
d="M321 550c136 0 176 -65 176 -172v-378h-45v350c0 113 -26 159 -136 159c-73 0 -155 -21 -177 -130v-379h-45v540h45v-93c19 76 106 103 182 103zM245 -199c26 46 48 95 48 138h54c0 -41 -32 -94 -68 -138h-34z" />
    <glyph glyph-name="Ncaron" unicode="&#x147;" horiz-adv-x="711" 
d="M322 756l-117 130h41l108 -93l110 93h41l-117 -130h-66zM92 0v694h75l399 -613h6v613h47v-694h-56l-418 646h-6v-646h-47z" />
    <glyph glyph-name="ncaron" unicode="&#x148;" horiz-adv-x="586" 
d="M326 615h-66l-104 138h31l105 -105l107 105h31zM321 550c136 0 176 -65 176 -172v-378h-45v350c0 113 -26 159 -136 159c-73 0 -155 -21 -177 -130v-379h-45v540h45v-93c19 76 106 103 182 103z" />
    <glyph glyph-name="napostrophe" unicode="&#x149;" horiz-adv-x="629" 
d="M-20 520c32 80 58 166 58 240h44c0 -70 -32 -164 -68 -240h-34zM364 550c136 0 176 -65 176 -172v-378h-45v350c0 113 -26 159 -136 159c-73 0 -156 -21 -178 -131v-378h-45v540h45v-94c20 77 107 104 183 104z" />
    <glyph glyph-name="Eng" unicode="&#x14a;" horiz-adv-x="711" 
d="M572 694h47v-741c0 -105 -50 -146 -130 -146c-8 0 -16 0 -21 1v42c7 -1 17 -1 26 -1c58 0 80 36 80 104v33l-429 660h-6v-646h-47v694h75l405 -619v619z" />
    <glyph glyph-name="eng" unicode="&#x14b;" horiz-adv-x="586" 
d="M321 550c136 0 176 -65 176 -172v-392c0 -157 -57 -186 -144 -186c-20 0 -39 2 -60 6v42c26 -4 47 -6 61 -6c74 0 98 32 98 155v353c0 113 -26 159 -136 159c-73 0 -155 -21 -177 -130v-379h-45v540h45v-93c19 76 106 103 182 103z" />
    <glyph glyph-name="Omacron" unicode="&#x14c;" horiz-adv-x="721" 
d="M233 794v39h255v-39h-255zM360 -10c-197 0 -288 82 -288 357c0 274 91 357 288 357c196 0 288 -83 288 -357c0 -275 -92 -357 -288 -357zM360 33c182 0 239 85 239 314s-57 314 -239 314c-181 0 -239 -85 -239 -314s58 -314 239 -314z" />
    <glyph glyph-name="omacron" unicode="&#x14d;" horiz-adv-x="588" 
d="M167 673v39h255v-39h-255zM293 -10c-164 0 -230 69 -230 280s66 280 230 280s232 -69 232 -280s-68 -280 -232 -280zM293 31c143 0 185 61 185 239s-43 239 -185 239s-183 -61 -183 -239s41 -239 183 -239z" />
    <glyph glyph-name="Obreve" unicode="&#x14e;" horiz-adv-x="721" 
d="M361 747c-76 0 -131 45 -142 126h36c12 -53 54 -85 104 -85c54 0 96 32 107 85h35c-11 -81 -60 -126 -140 -126zM360 -10c-197 0 -288 82 -288 357c0 274 91 357 288 357c196 0 288 -83 288 -357c0 -275 -92 -357 -288 -357zM360 33c182 0 239 85 239 314
s-57 314 -239 314c-181 0 -239 -85 -239 -314s58 -314 239 -314z" />
    <glyph glyph-name="obreve" unicode="&#x14f;" horiz-adv-x="588" 
d="M295 606c-71 0 -122 45 -132 126h36c11 -54 49 -85 94 -85c49 0 87 31 97 85h35c-10 -81 -56 -126 -130 -126zM293 -10c-164 0 -230 69 -230 280s66 280 230 280s232 -69 232 -280s-68 -280 -232 -280zM293 31c143 0 185 61 185 239s-43 239 -185 239s-183 -61 -183 -239
s41 -239 183 -239z" />
    <glyph glyph-name="Ohungarumlaut" unicode="&#x150;" horiz-adv-x="721" 
d="M247 757l123 138h67l-159 -138h-31zM370 757l123 138h68l-159 -138h-32zM360 -10c-197 0 -288 82 -288 357c0 274 91 357 288 357c196 0 288 -83 288 -357c0 -275 -92 -357 -288 -357zM360 33c182 0 239 85 239 314s-57 314 -239 314c-181 0 -239 -85 -239 -314
s58 -314 239 -314z" />
    <glyph glyph-name="ohungarumlaut" unicode="&#x151;" horiz-adv-x="588" 
d="M177 615l93 138h66l-128 -138h-31zM310 615l93 138h67l-129 -138h-31zM293 -10c-164 0 -230 69 -230 280s66 280 230 280s232 -69 232 -280s-68 -280 -232 -280zM293 31c143 0 185 61 185 239s-43 239 -185 239s-183 -61 -183 -239s41 -239 183 -239z" />
    <glyph glyph-name="OE" unicode="&#x152;" horiz-adv-x="999" 
d="M606 45h346v-45h-393v102c-41 -81 -113 -112 -220 -112c-176 0 -267 82 -267 357c0 274 91 357 267 357c107 0 179 -31 220 -111v101h359v-43h-312v-265h292v-42h-292v-299zM339 33c173 0 220 86 220 316c0 228 -47 312 -220 312c-160 0 -218 -85 -218 -314
s58 -314 218 -314z" />
    <glyph glyph-name="oe" unicode="&#x153;" horiz-adv-x="904" 
d="M839 330c0 -15 0 -31 -3 -52l-345 -27c2 -159 48 -220 176 -220c39 0 108 12 151 33v-43c-30 -14 -104 -31 -154 -31c-103 0 -167 33 -196 128c-26 -93 -87 -128 -192 -128c-147 0 -213 69 -213 280s66 280 213 280c106 0 166 -36 192 -127c27 91 87 127 191 127
c162 0 180 -119 180 -220zM276 31c133 0 168 61 168 239s-35 239 -168 239c-125 0 -166 -61 -166 -239s41 -239 166 -239zM491 289l305 26c0 118 -16 194 -139 194s-164 -62 -166 -220z" />
    <glyph glyph-name="Racute" unicode="&#x154;" horiz-adv-x="570" 
d="M444 883l-154 -138h-36l114 138h76zM556 0h-57l-210 302c-17 -1 -35 -1 -55 -1h-95v-301h-47v694h135c200 0 263 -43 263 -192c0 -126 -43 -178 -150 -194zM230 343c154 0 213 20 213 159c0 122 -59 150 -213 150h-91v-309h91z" />
    <glyph glyph-name="racute" unicode="&#x155;" horiz-adv-x="338" 
d="M323 753l-128 -138h-31l92 138h67zM138 443c30 89 110 107 174 107h11l-2 -41h-12c-70 0 -139 -23 -171 -125v-384h-45v540h45v-97z" />
    <glyph glyph-name="uni0156" unicode="&#x156;" horiz-adv-x="570" 
d="M340 308l216 -308h-57l-210 302c-17 -1 -35 -1 -55 -1h-95v-301h-47v694h135c200 0 263 -43 263 -192c0 -126 -43 -178 -150 -194zM230 343c154 0 213 20 213 159c0 122 -59 150 -213 150h-91v-309h91zM243 -199c26 46 48 95 48 138h54c0 -41 -32 -94 -68 -138h-34z" />
    <glyph glyph-name="uni0157" unicode="&#x157;" horiz-adv-x="338" 
d="M312 550h11l-2 -41h-12c-70 0 -139 -23 -171 -125v-384h-45v540h45v-97c30 89 110 107 174 107zM68 -199c26 46 48 95 48 138h54c0 -41 -32 -94 -68 -138h-34z" />
    <glyph glyph-name="Rcaron" unicode="&#x158;" horiz-adv-x="570" 
d="M316 756h-66l-117 130h41l108 -93l110 93h41zM556 0h-57l-210 302c-17 -1 -35 -1 -55 -1h-95v-301h-47v694h135c200 0 263 -43 263 -192c0 -126 -43 -178 -150 -194zM230 343c154 0 213 20 213 159c0 122 -59 150 -213 150h-91v-309h91z" />
    <glyph glyph-name="rcaron" unicode="&#x159;" horiz-adv-x="338" 
d="M226 615h-66l-104 138h31l105 -105l107 105h31zM138 443c30 89 110 107 174 107h11l-2 -41h-12c-70 0 -139 -23 -171 -125v-384h-45v540h45v-97z" />
    <glyph glyph-name="Sacute" unicode="&#x15a;" horiz-adv-x="538" 
d="M239 745l114 138h76l-154 -138h-36zM253 -10c-89 0 -175 17 -205 29v48c39 -15 120 -34 206 -34c121 0 188 42 188 148c0 101 -48 132 -180 165c-141 34 -194 67 -194 181c0 111 66 178 217 178c59 0 134 -12 170 -25v-46c-44 17 -106 28 -172 28
c-109 0 -168 -37 -168 -135c0 -79 29 -110 161 -140c147 -35 213 -74 213 -206c0 -134 -85 -191 -236 -191z" />
    <glyph glyph-name="sacute" unicode="&#x15b;" horiz-adv-x="452" 
d="M196 615l92 138h67l-128 -138h-31zM212 -6c-56 0 -113 6 -155 16v43c40 -10 96 -18 155 -18c95 0 142 33 142 107c0 64 -26 90 -130 117c-111 28 -156 51 -156 146c0 98 70 145 174 145c58 0 114 -9 140 -18l-3 -44c-33 12 -86 21 -137 21c-77 0 -129 -28 -129 -104
c0 -73 41 -87 118 -106c118 -30 168 -60 168 -157c0 -90 -55 -148 -187 -148z" />
    <glyph glyph-name="Scircumflex" unicode="&#x15c;" horiz-adv-x="538" 
d="M119 754l117 130h66l117 -130h-41l-109 93l-109 -93h-41zM253 -10c-89 0 -175 17 -205 29v48c39 -15 120 -34 206 -34c121 0 188 42 188 148c0 101 -48 132 -180 165c-141 34 -194 67 -194 181c0 111 66 178 217 178c59 0 134 -12 170 -25v-46c-44 17 -106 28 -172 28
c-109 0 -168 -37 -168 -135c0 -79 29 -110 161 -140c147 -35 213 -74 213 -206c0 -134 -85 -191 -236 -191z" />
    <glyph glyph-name="scircumflex" unicode="&#x15d;" horiz-adv-x="452" 
d="M88 615l104 138h66l104 -138h-31l-106 105l-106 -105h-31zM212 -6c-56 0 -113 6 -155 16v43c40 -10 96 -18 155 -18c95 0 142 33 142 107c0 64 -26 90 -130 117c-111 28 -156 51 -156 146c0 98 70 145 174 145c58 0 114 -9 140 -18l-3 -44c-33 12 -86 21 -137 21
c-77 0 -129 -28 -129 -104c0 -73 41 -87 118 -106c118 -30 168 -60 168 -157c0 -90 -55 -148 -187 -148z" />
    <glyph glyph-name="Scedilla" unicode="&#x15e;" horiz-adv-x="538" 
d="M489 181c0 -113 -60 -171 -170 -187l-49 -56c10 2 20 2 30 2c51 0 80 -23 80 -63c0 -49 -46 -77 -130 -77c-28 0 -50 1 -74 4v38c24 -3 45 -4 73 -4c46 0 86 8 86 38c0 19 -17 30 -48 30c-36 0 -53 -3 -71 -9l-12 20l65 73h-16c-89 0 -175 17 -205 29v48
c39 -15 120 -34 206 -34c121 0 188 42 188 148c0 101 -48 132 -180 165c-141 34 -194 67 -194 181c0 111 66 178 217 178c59 0 134 -12 170 -25v-46c-44 17 -106 28 -172 28c-109 0 -168 -37 -168 -135c0 -79 29 -110 161 -140c147 -35 213 -74 213 -206z" />
    <glyph glyph-name="scedilla" unicode="&#x15f;" horiz-adv-x="452" 
d="M399 142c0 -77 -40 -130 -134 -144l-52 -60c10 2 20 2 30 2c51 0 80 -23 80 -63c0 -49 -46 -77 -130 -77c-28 0 -50 1 -74 4v38c24 -3 45 -4 73 -4c46 0 86 8 86 38c0 19 -17 30 -48 30c-36 0 -53 -3 -71 -9l-12 20l68 77h-3c-56 0 -113 6 -155 16v43
c40 -10 96 -18 155 -18c95 0 142 33 142 107c0 64 -26 90 -130 117c-111 28 -156 51 -156 146c0 98 70 145 174 145c58 0 114 -9 140 -18l-3 -44c-33 12 -86 21 -137 21c-77 0 -129 -28 -129 -104c0 -73 41 -87 118 -106c118 -30 168 -60 168 -157z" />
    <glyph glyph-name="Scaron" unicode="&#x160;" horiz-adv-x="538" 
d="M236 756l-117 130h41l108 -93l110 93h41l-117 -130h-66zM253 -10c-89 0 -175 17 -205 29v48c39 -15 120 -34 206 -34c121 0 188 42 188 148c0 101 -48 132 -180 165c-141 34 -194 67 -194 181c0 111 66 178 217 178c59 0 134 -12 170 -25v-46c-44 17 -106 28 -172 28
c-109 0 -168 -37 -168 -135c0 -79 29 -110 161 -140c147 -35 213 -74 213 -206c0 -134 -85 -191 -236 -191z" />
    <glyph glyph-name="scaron" unicode="&#x161;" horiz-adv-x="452" 
d="M192 615l-104 138h31l105 -105l107 105h31l-104 -138h-66zM212 -6c-56 0 -113 6 -155 16v43c40 -10 96 -18 155 -18c95 0 142 33 142 107c0 64 -26 90 -130 117c-111 28 -156 51 -156 146c0 98 70 145 174 145c58 0 114 -9 140 -18l-3 -44c-33 12 -86 21 -137 21
c-77 0 -129 -28 -129 -104c0 -73 41 -87 118 -106c118 -30 168 -60 168 -157c0 -90 -55 -148 -187 -148z" />
    <glyph glyph-name="uni0162" unicode="&#x162;" horiz-adv-x="492" 
d="M270 651v-651l-54 -62c10 2 20 2 30 2c51 0 80 -23 80 -63c0 -49 -46 -77 -130 -77c-28 0 -50 1 -74 4v38c24 -3 45 -4 73 -4c46 0 86 8 86 38c0 19 -17 30 -48 30c-36 0 -53 -3 -71 -9l-12 20l73 83v651h-218v43h482v-43h-217z" />
    <glyph glyph-name="uni0163" unicode="&#x163;" horiz-adv-x="303" 
d="M298 1c-20 -4 -45 -7 -67 -7l-49 -56c10 2 20 2 30 2c51 0 80 -23 80 -63c0 -49 -46 -77 -130 -77c-28 0 -50 1 -74 4v38c24 -3 45 -4 73 -4c46 0 86 8 86 38c0 19 -17 30 -48 30c-36 0 -53 -3 -71 -9l-12 20l70 79c-67 9 -93 45 -93 165v338h-87v41h87v128h45v-128h149
v-41h-149v-340c0 -97 19 -124 89 -124c28 0 48 2 71 7v-41z" />
    <glyph glyph-name="Tcaron" unicode="&#x164;" horiz-adv-x="492" 
d="M279 756h-66l-117 130h41l108 -93l110 93h41zM487 694v-43h-217v-651h-47v651h-218v43h482z" />
    <glyph glyph-name="tcaron" unicode="&#x165;" horiz-adv-x="303" 
d="M222 596h-33c11 25 18 53 18 80c0 21 -4 42 -13 62h43c7 -17 10 -35 10 -53c0 -30 -9 -61 -25 -89zM227 35c28 0 48 2 71 7v-41c-21 -4 -47 -7 -70 -7c-99 0 -135 25 -135 167v338h-87v41h87v128h45v-128h149v-41h-149v-340c0 -97 19 -124 89 -124z" />
    <glyph glyph-name="Tbar" unicode="&#x166;" horiz-adv-x="492" 
d="M487 651h-217v-250h169v-41h-169v-360h-47v360h-160v41h160v250h-218v43h482v-43z" />
    <glyph glyph-name="tbar" unicode="&#x167;" horiz-adv-x="303" 
d="M227 35c28 0 48 2 71 7v-41c-21 -4 -47 -7 -70 -7c-99 0 -135 25 -135 167v130h-86v40h86v168h-87v41h87v128h45v-128h149v-41h-149v-168h148v-40h-148v-132c0 -97 19 -124 89 -124z" />
    <glyph glyph-name="Utilde" unicode="&#x168;" horiz-adv-x="661" 
d="M403 750c-39 0 -60 12 -83 35c-30 28 -47 34 -63 34c-36 0 -55 -23 -62 -69l-34 3c8 65 44 104 97 104c36 0 58 -15 88 -43c20 -20 34 -27 58 -27c36 0 55 20 62 63l34 -3c-8 -61 -45 -97 -97 -97zM329 -10c-164 0 -241 62 -241 232v472h47v-452c0 -163 54 -210 195 -210
c147 0 199 47 199 210v452h45v-472c0 -170 -81 -232 -245 -232z" />
    <glyph glyph-name="utilde" unicode="&#x169;" horiz-adv-x="581" 
d="M220 708c-29 0 -45 -22 -50 -69l-35 3c7 65 40 104 87 104c36 0 52 -17 76 -44c14 -16 25 -25 46 -25c30 0 45 20 51 62l34 -3c-7 -61 -39 -97 -86 -97c-37 0 -53 12 -71 34c-21 26 -33 35 -52 35zM442 540h45v-540h-38l-7 95c-18 -78 -104 -105 -180 -105
c-136 0 -174 65 -174 172v378h45v-350c0 -113 24 -158 134 -158c73 0 153 20 175 129v379z" />
    <glyph glyph-name="Umacron" unicode="&#x16a;" horiz-adv-x="661" 
d="M203 794v39h255v-39h-255zM329 -10c-164 0 -241 62 -241 232v472h47v-452c0 -163 54 -210 195 -210c147 0 199 47 199 210v452h45v-472c0 -170 -81 -232 -245 -232z" />
    <glyph glyph-name="umacron" unicode="&#x16b;" horiz-adv-x="581" 
d="M410 712v-39h-255v39h255zM442 540h45v-540h-38l-7 95c-18 -78 -104 -105 -180 -105c-136 0 -174 65 -174 172v378h45v-350c0 -113 24 -158 134 -158c73 0 153 20 175 129v379z" />
    <glyph glyph-name="Ubreve" unicode="&#x16c;" horiz-adv-x="661" 
d="M331 747c-76 0 -131 45 -142 126h36c12 -53 54 -85 104 -85c54 0 96 32 107 85h35c-11 -81 -60 -126 -140 -126zM329 -10c-164 0 -241 62 -241 232v472h47v-452c0 -163 54 -210 195 -210c147 0 199 47 199 210v452h45v-472c0 -170 -81 -232 -245 -232z" />
    <glyph glyph-name="ubreve" unicode="&#x16d;" horiz-adv-x="581" 
d="M283 606c-71 0 -122 45 -132 126h36c11 -54 49 -85 94 -85c49 0 87 31 97 85h35c-10 -81 -56 -126 -130 -126zM442 540h45v-540h-38l-7 95c-18 -78 -104 -105 -180 -105c-136 0 -174 65 -174 172v378h45v-350c0 -113 24 -158 134 -158c73 0 153 20 175 129v379z" />
    <glyph glyph-name="Uring" unicode="&#x16e;" horiz-adv-x="661" 
d="M330 729c-71 0 -106 36 -106 100c0 63 39 98 106 98c70 0 106 -36 106 -98c0 -65 -36 -100 -106 -100zM330 765c45 0 66 20 66 63c0 44 -21 64 -66 64s-67 -20 -67 -64c0 -43 22 -63 67 -63zM329 -10c-164 0 -241 62 -241 232v472h47v-452c0 -163 54 -210 195 -210
c147 0 199 47 199 210v452h45v-472c0 -170 -81 -232 -245 -232z" />
    <glyph glyph-name="uring" unicode="&#x16f;" horiz-adv-x="581" 
d="M282 615c-71 0 -106 36 -106 100c0 63 39 98 106 98c70 0 106 -36 106 -98c0 -65 -36 -100 -106 -100zM282 778c-45 0 -67 -20 -67 -64c0 -43 22 -63 67 -63s66 20 66 63c0 44 -21 64 -66 64zM442 540h45v-540h-38l-7 95c-18 -78 -104 -105 -180 -105
c-136 0 -174 65 -174 172v378h45v-350c0 -113 24 -158 134 -158c73 0 153 20 175 129v379z" />
    <glyph glyph-name="Uhungarumlaut" unicode="&#x170;" horiz-adv-x="661" 
d="M217 757l123 138h67l-159 -138h-31zM340 757l123 138h68l-159 -138h-32zM329 -10c-164 0 -241 62 -241 232v472h47v-452c0 -163 54 -210 195 -210c147 0 199 47 199 210v452h45v-472c0 -170 -81 -232 -245 -232z" />
    <glyph glyph-name="uhungarumlaut" unicode="&#x171;" horiz-adv-x="581" 
d="M324 753l-128 -138h-31l93 138h66zM329 615h-31l93 138h67zM442 540h45v-540h-38l-7 95c-18 -78 -104 -105 -180 -105c-136 0 -174 65 -174 172v378h45v-350c0 -113 24 -158 134 -158c73 0 153 20 175 129v379z" />
    <glyph glyph-name="Uogonek" unicode="&#x172;" horiz-adv-x="661" 
d="M529 694h45v-472c0 -156 -68 -221 -207 -231c-54 -32 -72 -66 -72 -105c0 -37 19 -54 53 -54c17 0 36 2 56 9v-33c-13 -5 -39 -13 -62 -13c-59 0 -97 33 -97 82c0 47 29 82 73 113c-156 3 -230 66 -230 232v472h47v-452c0 -163 54 -210 195 -210c147 0 199 47 199 210
v452z" />
    <glyph glyph-name="uogonek" unicode="&#x173;" horiz-adv-x="581" 
d="M462 -163c17 0 36 2 56 9v-33c-13 -5 -39 -13 -62 -13c-59 0 -97 33 -97 82c0 52 37 90 90 124l-7 89c-18 -78 -104 -105 -180 -105c-136 0 -174 65 -174 172v378h45v-350c0 -113 24 -158 134 -158c73 0 153 20 175 129v379h45v-540h1c-60 -33 -79 -68 -79 -109
c0 -37 19 -54 53 -54z" />
    <glyph glyph-name="Wcircumflex" unicode="&#x174;" horiz-adv-x="853" 
d="M276 754l117 130h66l117 -130h-41l-109 93l-109 -93h-41zM195 0l-176 694h49l158 -637h6l163 546h65l164 -546h6l157 637h48l-177 -694h-62l-166 548h-6l-167 -548h-62z" />
    <glyph glyph-name="wcircumflex" unicode="&#x175;" horiz-adv-x="776" 
d="M251 615l104 138h66l104 -138h-31l-106 105l-106 -105h-31zM164 0l-149 540h45l133 -490h6l159 490h58l162 -490h6l134 490h43l-152 -540h-55l-164 493h-6l-164 -493h-56z" />
    <glyph glyph-name="Ycircumflex" unicode="&#x176;" horiz-adv-x="526" 
d="M113 754l117 130h66l117 -130h-41l-109 93l-109 -93h-41zM239 0v313l-241 381h54l210 -335h6l206 335h54l-242 -381v-313h-47z" />
    <glyph glyph-name="ycircumflex" unicode="&#x177;" horiz-adv-x="470" 
d="M98 615l104 138h66l104 -138h-31l-106 105l-106 -105h-31zM49 -200v40c89 0 127 38 170 163l-216 537h48l189 -481h6l174 481h47l-201 -543c-45 -121 -85 -197 -217 -197z" />
    <glyph glyph-name="Ydieresis" unicode="&#x178;" horiz-adv-x="526" 
d="M178 756c-24 0 -31 4 -31 33s7 33 31 33c22 0 30 -4 30 -33s-8 -33 -30 -33zM351 756c-24 0 -32 4 -32 33s8 33 32 33c21 0 29 -4 29 -33s-8 -33 -29 -33zM239 0v313l-241 381h54l210 -335h6l206 335h54l-242 -381v-313h-47z" />
    <glyph glyph-name="Zacute" unicode="&#x179;" horiz-adv-x="590" 
d="M266 745l114 138h76l-154 -138h-36zM45 0v52l439 593l-1 6h-411v43h464v-53l-436 -590v-6h455v-45h-510z" />
    <glyph glyph-name="zacute" unicode="&#x17a;" horiz-adv-x="456" 
d="M199 615l92 138h67l-128 -138h-31zM32 0v37l325 457l1 6h-301v40h356v-39l-323 -454v-6h343v-41h-401z" />
    <glyph glyph-name="Zdotaccent" unicode="&#x17b;" horiz-adv-x="590" 
d="M296 771c-23 0 -31 4 -31 33s8 33 31 33c22 0 30 -4 30 -33s-8 -33 -30 -33zM45 0v52l439 593l-1 6h-411v43h464v-53l-436 -590v-6h455v-45h-510z" />
    <glyph glyph-name="zdotaccent" unicode="&#x17c;" horiz-adv-x="456" 
d="M229 660c-23 0 -31 4 -31 33s8 33 31 33c22 0 30 -4 30 -33s-8 -33 -30 -33zM32 0v37l325 457l1 6h-301v40h356v-39l-323 -454v-6h343v-41h-401z" />
    <glyph glyph-name="Zcaron" unicode="&#x17d;" horiz-adv-x="590" 
d="M262 756l-117 130h41l108 -93l110 93h41l-117 -130h-66zM45 0v52l439 593l-1 6h-411v43h464v-53l-436 -590v-6h455v-45h-510z" />
    <glyph glyph-name="zcaron" unicode="&#x17e;" horiz-adv-x="456" 
d="M195 615l-104 138h31l105 -105l107 105h31l-104 -138h-66zM32 0v37l325 457l1 6h-301v40h356v-39l-323 -454v-6h343v-41h-401z" />
    <glyph glyph-name="fi" unicode="&#xfb01;" horiz-adv-x="539" 
d="M105 567c0 140 57 197 153 197c19 0 39 -2 57 -5v-41c-17 3 -32 5 -58 5c-76 0 -107 -41 -107 -171v-12h143v-41h-143v-499h-45v499h-94v41h94v27zM421 726c22 0 30 -4 30 -33s-8 -33 -30 -33c-23 0 -31 4 -31 33s8 33 31 33zM398 0v540h45v-540h-45z" />
    <glyph glyph-name="fl" unicode="&#xfb02;" horiz-adv-x="550" 
d="M105 567c0 140 57 197 153 197c19 0 39 -2 57 -5v-41c-17 3 -32 5 -58 5c-76 0 -107 -41 -107 -171v-12h143v-41h-143v-499h-45v499h-94v41h94v27zM497 33c20 0 33 2 48 6v-39c-15 -4 -30 -6 -55 -6c-50 0 -92 18 -92 97v669h45v-657c0 -56 15 -70 54 -70z" />
    <glyph glyph-name="longs" unicode="&#x17f;" horiz-adv-x="274" 
d="M258 764c19 0 49 -2 67 -5v-41c-18 3 -38 5 -68 5c-76 0 -107 -41 -107 -171v-552h-45v499h-94v41h94v27c0 140 57 197 153 197z" />
    <glyph glyph-name="Aringacute" unicode="&#x1fa;" horiz-adv-x="607" 
d="M464 1097l-154 -138h-36l114 138h76zM304 729c-71 0 -106 36 -106 100c0 63 39 98 106 98c70 0 106 -36 106 -98c0 -65 -36 -100 -106 -100zM304 892c-45 0 -67 -20 -67 -64c0 -43 22 -63 67 -63s66 20 66 63c0 44 -21 64 -66 64zM551 0l-87 233h-322l-88 -233h-50
l267 694h68l264 -694h-52zM158 274h291l-139 375h-10z" />
    <glyph glyph-name="aringacute" unicode="&#x1fb;" horiz-adv-x="588" 
d="M436 1004l-128 -138h-31l93 138h66zM307 615c-71 0 -106 36 -106 100c0 63 39 98 106 98c70 0 106 -36 106 -98c0 -65 -36 -100 -106 -100zM307 778c-45 0 -67 -20 -67 -64c0 -43 22 -63 67 -63s66 20 66 63c0 44 -21 64 -66 64zM301 550c162 0 193 -74 193 -169v-381
h-38l-7 96c-32 -68 -115 -106 -212 -106c-129 0 -182 57 -182 157c0 138 94 168 212 168h182v59c0 85 -28 134 -151 134c-35 0 -80 -4 -121 -13v44c40 7 85 11 124 11zM236 32c106 0 186 44 213 126v117h-176c-111 0 -173 -20 -173 -128c0 -78 47 -115 136 -115z" />
    <glyph glyph-name="AEacute" unicode="&#x1fc;" horiz-adv-x="855" 
d="M720 883l-154 -138h-36l114 138h76zM462 45h345v-45h-392v233h-240l-120 -233h-53l364 694h408v-43h-312v-265h292v-42h-292v-299zM196 274h219v378h-24z" />
    <glyph glyph-name="aeacute" unicode="&#x1fd;" horiz-adv-x="920" 
d="M590 753l-128 -138h-31l92 138h67zM851 275h-367v-14c0 -165 56 -230 186 -230c52 0 121 12 165 33v-43c-31 -14 -104 -31 -168 -31c-103 0 -173 33 -206 123c-38 -79 -123 -123 -224 -123c-129 0 -182 57 -182 157c0 138 95 168 212 168h172v59c0 85 -28 134 -141 134
c-35 0 -80 -4 -121 -13v44c40 7 85 11 124 11c103 0 151 -40 171 -96c36 70 100 96 190 96c175 0 193 -119 193 -220c0 -16 0 -32 -4 -55zM660 509c-115 0 -167 -55 -175 -194h327c0 118 -16 194 -152 194zM236 32c101 0 176 44 203 126v117h-166c-111 0 -173 -20 -173 -128
c0 -78 47 -115 136 -115z" />
    <glyph glyph-name="Oslashacute" unicode="&#x1fe;" horiz-adv-x="721" 
d="M521 883l-154 -138h-36l114 138h76zM648 688l-58 -76c39 -56 58 -141 58 -265c0 -275 -92 -357 -288 -357c-87 0 -153 16 -200 57l-36 -47h-52l60 78c-41 56 -60 142 -60 269c0 274 91 357 288 357c88 0 155 -17 202 -60l34 44h52zM121 347c0 -104 12 -178 42 -228
l371 487c-38 38 -94 55 -174 55c-181 0 -239 -85 -239 -314zM599 347c0 102 -11 175 -40 225l-370 -487c38 -36 93 -52 171 -52c182 0 239 85 239 314z" />
    <glyph glyph-name="oslashacute" unicode="&#x1ff;" horiz-adv-x="588" 
d="M423 753l-128 -138h-31l92 138h67zM525 578l-57 -86c39 -43 57 -114 57 -222c0 -211 -68 -280 -232 -280c-60 0 -107 9 -142 31l-40 -59h-48l57 85c-39 43 -57 114 -57 223c0 211 66 280 230 280c61 0 108 -9 144 -32l40 60h48zM110 270c0 -87 10 -146 36 -184l266 396
c-28 19 -67 27 -119 27c-142 0 -183 -61 -183 -239zM478 270c0 87 -10 145 -37 183l-266 -395c28 -19 66 -27 118 -27c143 0 185 61 185 239z" />
    <glyph glyph-name="uni0218" unicode="&#x218;" horiz-adv-x="538" 
d="M253 -10c-89 0 -175 17 -205 29v48c39 -15 120 -34 206 -34c121 0 188 42 188 148c0 101 -48 132 -180 165c-141 34 -194 67 -194 181c0 111 66 178 217 178c59 0 134 -12 170 -25v-46c-44 17 -106 28 -172 28c-109 0 -168 -37 -168 -135c0 -79 29 -110 161 -140
c147 -35 213 -74 213 -206c0 -134 -85 -191 -236 -191zM224 -199c26 46 48 95 48 138h54c0 -41 -32 -94 -68 -138h-34z" />
    <glyph glyph-name="uni0219" unicode="&#x219;" horiz-adv-x="452" 
d="M212 -6c-56 0 -113 6 -155 16v43c40 -10 96 -18 155 -18c95 0 142 33 142 107c0 64 -26 90 -130 117c-111 28 -156 51 -156 146c0 98 70 145 174 145c58 0 114 -9 140 -18l-3 -44c-33 12 -86 21 -137 21c-77 0 -129 -28 -129 -104c0 -73 41 -87 118 -106
c118 -30 168 -60 168 -157c0 -90 -55 -148 -187 -148zM168 -199c26 46 48 95 48 138h54c0 -41 -32 -94 -68 -138h-34z" />
    <glyph glyph-name="uni021A" unicode="&#x21a;" horiz-adv-x="492" 
d="M487 694v-43h-217v-651h-47v651h-218v43h482zM170 -199c26 46 48 95 48 138h54c0 -41 -32 -94 -68 -138h-34z" />
    <glyph glyph-name="uni021B" unicode="&#x21b;" horiz-adv-x="303" 
d="M227 35c28 0 48 2 71 7v-41c-21 -4 -47 -7 -70 -7c-99 0 -135 25 -135 167v338h-87v41h87v128h45v-128h149v-41h-149v-340c0 -97 19 -124 89 -124zM137 -199c26 46 48 95 48 138h54c0 -41 -32 -94 -68 -138h-34z" />
    <glyph glyph-name="uni018F" unicode="&#x18f;" horiz-adv-x="679" 
d="M304 704c215 0 302 -85 302 -356s-84 -358 -296 -358c-229 0 -252 152 -252 281c0 19 0 39 4 67l495 33c-2 211 -62 290 -257 290c-72 0 -161 -15 -216 -41v46c39 18 133 38 220 38zM313 34c187 0 242 83 244 295l-452 -32c0 -160 21 -263 208 -263z" />
    <glyph glyph-name="uni0259" unicode="&#x259;" horiz-adv-x="552" 
d="M258 550c168 0 236 -68 236 -280s-66 -280 -231 -280c-180 0 -198 119 -198 220c0 15 0 31 3 52l381 27c-2 159 -49 220 -195 220c-56 0 -125 -12 -169 -33v43c31 14 104 31 173 31zM264 31c140 0 183 62 185 220l-341 -26c0 -118 16 -194 156 -194z" />
    <glyph glyph-name="uni2166" unicode="&#x2166;" horiz-adv-x="1006" 
d="M240 0l-232 694h49l212 -643h6l211 643h47l-233 -694h-60zM634 0v694h47v-694h-47zM866 0v694h47v-694h-47z" />
    <glyph glyph-name="uni02BC" unicode="&#x2bc;" horiz-adv-x="230" 
d="M62 520c31 80 57 166 57 240h44c0 -70 -32 -164 -68 -240h-33z" />
    <glyph glyph-name="circumflex" unicode="&#x2c6;" horiz-adv-x="305" 
d="M15 615l104 138h66l104 -138h-31l-106 105l-106 -105h-31z" />
    <glyph glyph-name="caron" unicode="&#x2c7;" horiz-adv-x="305" 
d="M119 615l-104 138h31l105 -105l107 105h31l-104 -138h-66z" />
    <glyph glyph-name="uni02C9" unicode="&#x2c9;" horiz-adv-x="305" 
d="M25 673v39h255v-39h-255z" />
    <glyph glyph-name="breve" unicode="&#x2d8;" horiz-adv-x="305" 
d="M153 606c-71 0 -122 45 -132 126h36c11 -54 49 -85 94 -85c49 0 87 31 97 85h35c-10 -81 -56 -126 -130 -126z" />
    <glyph glyph-name="dotaccent" unicode="&#x2d9;" horiz-adv-x="305" 
d="M153 660c-23 0 -31 4 -31 33s8 33 31 33c22 0 30 -4 30 -33s-8 -33 -30 -33z" />
    <glyph glyph-name="ring" unicode="&#x2da;" horiz-adv-x="305" 
d="M153 615c-71 0 -106 36 -106 100c0 63 39 98 106 98c70 0 106 -36 106 -98c0 -65 -36 -100 -106 -100zM153 651c45 0 66 20 66 63c0 44 -21 64 -66 64s-67 -20 -67 -64c0 -43 22 -63 67 -63z" />
    <glyph glyph-name="ogonek" unicode="&#x2db;" horiz-adv-x="305" 
d="M152 -200c-59 0 -97 33 -97 82c0 55 41 94 99 130l30 -12c-60 -33 -79 -68 -79 -109c0 -37 19 -54 53 -54c17 0 36 2 56 9v-33c-13 -5 -39 -13 -62 -13z" />
    <glyph glyph-name="tilde" unicode="&#x2dc;" horiz-adv-x="305" 
d="M215 639c-37 0 -53 12 -71 34c-21 26 -33 35 -52 35c-29 0 -45 -22 -50 -69l-35 3c7 65 40 104 87 104c36 0 52 -17 76 -44c14 -16 25 -25 46 -25c30 0 45 20 51 62l34 -3c-7 -61 -39 -97 -86 -97z" />
    <glyph glyph-name="hungarumlaut" unicode="&#x2dd;" horiz-adv-x="305" 
d="M29 615l93 138h66l-128 -138h-31zM162 615l93 138h67l-129 -138h-31z" />
    <glyph glyph-name="uni0374" unicode="&#x374;" horiz-adv-x="266" 
d="M52 464l97 296h64l-133 -296h-28z" />
    <glyph glyph-name="uni0375" unicode="&#x375;" horiz-adv-x="266" 
d="M52 -133l97 296h64l-133 -296h-28z" />
    <glyph glyph-name="uni037E" unicode="&#x37e;" horiz-adv-x="340" 
d="M170 459c-31 0 -42 5 -42 44c0 38 11 43 42 43c30 0 41 -5 41 -43c0 -39 -11 -44 -41 -44zM66 -136c59 85 95 170 95 241h45c0 -88 -55 -181 -101 -241h-39z" />
    <glyph glyph-name="Alphatonos" unicode="&#x386;" horiz-adv-x="607" 
d="M145 695l-73 -138h-27l38 138h62zM551 0l-87 233h-322l-88 -233h-50l267 694h68l264 -694h-52zM158 274h291l-139 375h-10z" />
    <glyph glyph-name="anoteleia" unicode="&#x387;" horiz-adv-x="327" 
d="M129 463c-32 0 -43 5 -43 43s11 44 43 44c30 0 41 -6 41 -44s-11 -43 -41 -43z" />
    <glyph glyph-name="Epsilontonos" unicode="&#x388;" horiz-adv-x="589" 
d="M-23 557l38 138h62l-73 -138h-27zM197 45h345v-45h-393v694h360v-43h-312v-265h292v-42h-292v-299z" />
    <glyph glyph-name="Etatonos" unicode="&#x389;" horiz-adv-x="728" 
d="M-23 557l38 138h62l-73 -138h-27zM589 694h47v-694h-47v355h-392v-355h-48v694h48v-297h392v297z" />
    <glyph glyph-name="Iotatonos" unicode="&#x38a;" horiz-adv-x="290" 
d="M-23 557l38 138h62l-73 -138h-27zM149 0v694h48v-694h-48z" />
    <glyph glyph-name="Omicrontonos" unicode="&#x38c;" horiz-adv-x="732" 
d="M370 -10c-197 0 -287 82 -287 357c0 274 90 357 287 357s289 -83 289 -357c0 -275 -92 -357 -289 -357zM-23 557l38 138h62l-73 -138h-27zM370 33c183 0 239 85 239 314s-56 314 -239 314c-181 0 -238 -85 -238 -314s57 -314 238 -314z" />
    <glyph glyph-name="Upsilontonos" unicode="&#x38e;" horiz-adv-x="634" 
d="M-23 557l38 138h62l-73 -138h-27zM347 0v313l-241 381h55l209 -335h6l206 335h54l-242 -381v-313h-47z" />
    <glyph glyph-name="Omegatonos" unicode="&#x38f;" horiz-adv-x="732" 
d="M78 0v40h156c-99 75 -151 175 -151 334c0 235 90 330 287 330s288 -95 288 -330c0 -159 -52 -259 -151 -334h157v-40h-212v39c119 99 157 198 157 334c0 192 -56 288 -239 288c-181 0 -238 -96 -238 -288c0 -136 39 -235 157 -334v-39h-211zM-23 557l38 138h62l-73 -138
h-27z" />
    <glyph glyph-name="iotadieresistonos" unicode="&#x390;" horiz-adv-x="299" 
d="M88 663l39 138h62l-74 -138h-27zM39 660c-24 0 -31 4 -31 33s7 33 31 33c22 0 30 -4 30 -33s-8 -33 -30 -33zM198 660c-24 0 -32 4 -32 33s8 33 32 33c21 0 29 -4 29 -33s-8 -33 -29 -33zM222 -6c-98 0 -134 25 -134 167v379h45v-381c0 -97 19 -124 88 -124
c29 0 49 2 71 7v-41c-21 -4 -47 -7 -70 -7z" />
    <glyph glyph-name="Alpha" unicode="&#x391;" horiz-adv-x="607" 
d="M551 0l-87 233h-322l-88 -233h-50l267 694h68l264 -694h-52zM158 274h291l-139 375h-10z" />
    <glyph glyph-name="Beta" unicode="&#x392;" horiz-adv-x="581" 
d="M92 0v694h178c167 0 215 -54 215 -179c0 -72 -26 -138 -107 -156v-4c95 -19 131 -75 131 -164c0 -126 -57 -191 -238 -191h-179zM139 376h106c152 0 193 32 193 139c0 115 -54 137 -200 137h-99v-276zM139 43h121c161 0 202 44 202 148c0 98 -49 143 -214 143h-109v-291z
" />
    <glyph glyph-name="Gamma" unicode="&#x393;" horiz-adv-x="473" 
d="M458 694v-45h-319v-649h-47v694h366z" />
    <glyph glyph-name="Epsilon" unicode="&#x395;" horiz-adv-x="532" 
d="M139 45h345v-45h-392v694h359v-43h-312v-265h292v-42h-292v-299z" />
    <glyph glyph-name="Zeta" unicode="&#x396;" horiz-adv-x="590" 
d="M45 0v52l439 593l-1 6h-411v43h464v-53l-436 -590v-6h455v-45h-510z" />
    <glyph glyph-name="Eta" unicode="&#x397;" horiz-adv-x="671" 
d="M531 694h48v-694h-48v355h-392v-355h-47v694h47v-297h392v297z" />
    <glyph glyph-name="Theta" unicode="&#x398;" horiz-adv-x="721" 
d="M360 -10c-197 0 -288 82 -288 357c0 274 91 357 288 357c196 0 288 -83 288 -357c0 -275 -92 -357 -288 -357zM360 33c182 0 239 85 239 314s-57 314 -239 314c-181 0 -239 -85 -239 -314s58 -314 239 -314zM214 330v42h295v-42h-295z" />
    <glyph glyph-name="Iota" unicode="&#x399;" horiz-adv-x="232" 
d="M92 0v694h47v-694h-47z" />
    <glyph glyph-name="Kappa" unicode="&#x39a;" horiz-adv-x="563" 
d="M240 369l304 -369h-62l-280 347h-63v-347h-47v694h47v-305h63l273 305h60z" />
    <glyph glyph-name="Lambda" unicode="&#x39b;" horiz-adv-x="542" 
d="M8 0l234 694h59l232 -694h-48l-212 643h-6l-212 -643h-47z" />
    <glyph glyph-name="Mu" unicode="&#x39c;" horiz-adv-x="784" 
d="M92 0v694h80l218 -466h6l216 466h80v-694h-48v648h-6l-219 -470h-54l-220 470h-6v-648h-47z" />
    <glyph glyph-name="Nu" unicode="&#x39d;" horiz-adv-x="711" 
d="M92 0v694h75l399 -613h6v613h47v-694h-56l-418 646h-6v-646h-47z" />
    <glyph glyph-name="Xi" unicode="&#x39e;" horiz-adv-x="532" 
d="M81 651v43h370v-43h-370zM101 344v42h330v-42h-330zM48 0v45h436v-45h-436z" />
    <glyph glyph-name="Omicron" unicode="&#x39f;" horiz-adv-x="721" 
d="M360 -10c-197 0 -288 82 -288 357c0 274 91 357 288 357c196 0 288 -83 288 -357c0 -275 -92 -357 -288 -357zM360 33c182 0 239 85 239 314s-57 314 -239 314c-181 0 -239 -85 -239 -314s58 -314 239 -314z" />
    <glyph glyph-name="Pi" unicode="&#x3a0;" horiz-adv-x="671" 
d="M579 694v-694h-48v652h-392v-652h-47v694h487z" />
    <glyph glyph-name="Rho" unicode="&#x3a1;" horiz-adv-x="553" 
d="M92 0v694h163c190 0 241 -68 241 -212c0 -151 -54 -214 -241 -214h-116v-268h-47zM139 310h109c152 0 199 37 199 172c0 123 -46 170 -199 170h-109v-342z" />
    <glyph glyph-name="Sigma" unicode="&#x3a3;" horiz-adv-x="552" 
d="M46 0v52l212 302l-200 288v52h426v-43h-379l205 -296l-215 -310h422v-45h-471z" />
    <glyph glyph-name="Tau" unicode="&#x3a4;" horiz-adv-x="492" 
d="M487 694v-43h-217v-651h-47v651h-218v43h482z" />
    <glyph glyph-name="Upsilon" unicode="&#x3a5;" horiz-adv-x="526" 
d="M239 0v313l-241 381h54l210 -335h6l206 335h54l-242 -381v-313h-47z" />
    <glyph glyph-name="Phi" unicode="&#x3a6;" horiz-adv-x="791" 
d="M726 351c0 -192 -87 -278 -307 -281v-84h-47v84c-220 3 -307 88 -307 281s87 279 307 282v75h47v-75c220 -3 307 -88 307 -282zM115 351c0 -150 55 -236 257 -239v479c-202 -3 -257 -88 -257 -240zM419 112c202 3 257 89 257 239s-55 237 -257 240v-479z" />
    <glyph glyph-name="Chi" unicode="&#x3a7;" horiz-adv-x="562" 
d="M18 0l230 353l-217 341h55l193 -310h6l194 310h53l-216 -340l227 -354h-56l-202 321h-6l-206 -321h-55z" />
    <glyph glyph-name="Psi" unicode="&#x3a8;" horiz-adv-x="773" 
d="M657 694h47v-228c0 -167 -95 -230 -294 -232v-234h-48v234c-203 1 -294 63 -294 232v228h47v-208c0 -162 67 -208 247 -209v417h48v-417c186 2 247 49 247 209v208z" />
    <glyph glyph-name="Iotadieresis" unicode="&#x3aa;" horiz-adv-x="232" 
d="M41 756c-23 0 -31 4 -31 33s8 33 31 33c22 0 30 -4 30 -33s-8 -33 -30 -33zM194 756c-24 0 -32 4 -32 33s8 33 32 33c21 0 29 -4 29 -33s-8 -33 -29 -33zM92 0v694h47v-694h-47z" />
    <glyph glyph-name="Upsilondieresis" unicode="&#x3ab;" horiz-adv-x="526" 
d="M178 756c-24 0 -31 4 -31 33s7 33 31 33c22 0 30 -4 30 -33s-8 -33 -30 -33zM351 756c-24 0 -32 4 -32 33s8 33 32 33c21 0 29 -4 29 -33s-8 -33 -29 -33zM239 0v313l-241 381h54l210 -335h6l206 335h54l-242 -381v-313h-47z" />
    <glyph glyph-name="alphatonos" unicode="&#x3ac;" horiz-adv-x="592" 
d="M350 753l-73 -138h-27l38 138h62zM533 35c14 0 30 2 42 6v-41c-13 -3 -31 -6 -46 -6c-54 0 -79 25 -93 111c-28 -70 -77 -115 -175 -115c-143 0 -198 95 -198 280c0 177 58 280 207 280c111 0 156 -66 177 -177c8 57 17 112 29 167h47c-20 -80 -37 -158 -48 -240
c-3 -25 -6 -49 -10 -73c18 -176 30 -192 68 -192zM260 31c109 0 143 65 164 181l-4 55c-12 140 -37 242 -147 242c-131 0 -163 -96 -163 -239c0 -165 42 -239 150 -239z" />
    <glyph glyph-name="epsilontonos" unicode="&#x3ad;" horiz-adv-x="498" 
d="M235 615l38 138h62l-73 -138h-27zM298 -10c-158 0 -230 47 -230 149c0 85 47 128 148 140v2c-89 15 -131 55 -131 129c0 90 65 141 207 141c57 0 106 -9 134 -18v-45c-39 14 -81 22 -134 22c-114 0 -160 -29 -160 -100c0 -74 57 -109 184 -109h55v-43h-56
c-138 0 -200 -36 -200 -117c0 -75 58 -110 183 -110c66 0 118 11 160 28v-44c-32 -12 -95 -25 -160 -25z" />
    <glyph glyph-name="etatonos" unicode="&#x3ae;" horiz-adv-x="594" 
d="M394 753l-73 -138h-27l38 138h62zM329 550c136 0 176 -65 176 -172v-578h-45v550c0 113 -26 159 -136 159c-74 0 -156 -21 -178 -131v-382h-45v442c0 57 -12 71 -45 71c-18 0 -28 -2 -41 -6v39c13 4 26 6 46 6c43 0 85 -18 85 -97v-5c20 77 107 104 183 104z" />
    <glyph glyph-name="iotatonos" unicode="&#x3af;" horiz-adv-x="299" 
d="M95 615l38 138h62l-73 -138h-27zM222 -6c-98 0 -134 25 -134 167v379h45v-381c0 -97 19 -124 88 -124c29 0 49 2 71 7v-41c-21 -4 -47 -7 -70 -7z" />
    <glyph glyph-name="upsilondieresistonos" unicode="&#x3b0;" horiz-adv-x="561" 
d="M238 663l39 138h62l-74 -138h-27zM189 660c-24 0 -31 4 -31 33s7 33 31 33c22 0 30 -4 30 -33s-8 -33 -30 -33zM348 660c-24 0 -32 4 -32 33s8 33 32 33c21 0 29 -4 29 -33s-8 -33 -29 -33zM281 -10c-126 0 -193 60 -193 213v337h45v-320c0 -148 48 -188 149 -188
c111 0 161 69 161 256c0 87 -14 172 -40 252h45c26 -80 40 -164 40 -253c0 -207 -68 -297 -207 -297z" />
    <glyph glyph-name="alpha" unicode="&#x3b1;" horiz-adv-x="592" 
d="M533 35c14 0 30 2 42 6v-41c-13 -3 -31 -6 -46 -6c-54 0 -79 25 -93 111c-28 -70 -77 -115 -175 -115c-143 0 -198 95 -198 280c0 177 58 280 207 280c111 0 156 -66 177 -177c8 57 17 112 29 167h47c-20 -80 -37 -158 -48 -240c-3 -25 -6 -49 -10 -73
c18 -176 30 -192 68 -192zM260 31c109 0 143 65 164 181l-4 55c-12 140 -37 242 -147 242c-131 0 -163 -96 -163 -239c0 -165 42 -239 150 -239z" />
    <glyph glyph-name="beta" unicode="&#x3b2;" horiz-adv-x="572" 
d="M343 401c100 -17 166 -73 166 -189c0 -153 -71 -224 -222 -224c-55 0 -106 11 -147 28v-216h-45v767c0 126 76 197 182 197c125 0 180 -67 180 -184c0 -91 -36 -148 -114 -177v-2zM285 30c122 0 177 57 177 181c0 115 -68 167 -220 167h-26v42h25c116 0 170 49 170 158
c0 99 -40 145 -134 145c-77 0 -137 -39 -137 -171v-493c50 -20 96 -29 145 -29z" />
    <glyph glyph-name="gamma" unicode="&#x3b3;" horiz-adv-x="469" 
d="M212 -204v204l-209 540h47l181 -477h9l179 477h47l-209 -541v-203h-45z" />
    <glyph glyph-name="delta" unicode="&#x3b4;" horiz-adv-x="588" 
d="M350 520c143 -44 175 -125 175 -270c0 -191 -68 -260 -232 -260s-230 69 -230 260c0 178 57 250 198 259c-112 27 -146 71 -146 134c0 68 53 125 187 125c58 0 111 -8 151 -26v-45c-52 20 -94 29 -150 29c-94 0 -141 -24 -141 -83c0 -62 62 -83 188 -123zM293 31
c143 0 185 61 185 219s-43 219 -185 219s-183 -61 -183 -219s41 -219 183 -219z" />
    <glyph glyph-name="epsilon" unicode="&#x3b5;" horiz-adv-x="498" 
d="M298 -10c-158 0 -230 47 -230 149c0 85 47 128 148 140v2c-89 15 -131 55 -131 129c0 90 65 141 207 141c57 0 106 -9 134 -18v-45c-39 14 -81 22 -134 22c-114 0 -160 -29 -160 -100c0 -74 57 -109 184 -109h55v-43h-56c-138 0 -200 -36 -200 -117
c0 -75 58 -110 183 -110c66 0 118 11 160 28v-44c-32 -12 -95 -25 -160 -25z" />
    <glyph glyph-name="zeta" unicode="&#x3b6;" horiz-adv-x="416" 
d="M269 -198v41c61 0 88 21 88 67c0 45 -28 58 -125 86c-130 38 -184 98 -184 247c0 192 112 316 280 476h-243v40h299v-39c-200 -190 -288 -313 -288 -466c0 -141 39 -181 158 -218c123 -39 151 -61 151 -127c0 -71 -44 -107 -136 -107z" />
    <glyph glyph-name="eta" unicode="&#x3b7;" horiz-adv-x="594" 
d="M329 550c136 0 176 -65 176 -172v-578h-45v550c0 113 -26 159 -136 159c-74 0 -156 -21 -178 -131v-382h-45v442c0 57 -12 71 -45 71c-18 0 -28 -2 -41 -6v39c13 4 26 6 46 6c43 0 85 -18 85 -97v-5c20 77 107 104 183 104z" />
    <glyph glyph-name="theta" unicode="&#x3b8;" horiz-adv-x="608" 
d="M303 769c164 0 232 -96 232 -389c0 -294 -68 -390 -232 -390s-230 96 -230 390c0 293 66 389 230 389zM303 728c-139 0 -181 -82 -183 -329h368c-2 247 -46 329 -185 329zM303 31c139 0 183 81 185 327h-368c2 -246 45 -327 183 -327z" />
    <glyph glyph-name="iota" unicode="&#x3b9;" horiz-adv-x="299" 
d="M222 -6c-98 0 -134 25 -134 167v379h45v-381c0 -97 19 -124 88 -124c29 0 49 2 71 7v-41c-21 -4 -47 -7 -70 -7z" />
    <glyph glyph-name="kappa" unicode="&#x3ba;" horiz-adv-x="464" 
d="M205 288l263 -288h-60l-238 265h-31v-265h-45v540h45v-234h30l226 234h58z" />
    <glyph glyph-name="lambda" unicode="&#x3bb;" horiz-adv-x="469" 
d="M466 0h-48l-180 482l-187 -482h-48l213 541l-82 219h46z" />
    <glyph glyph-name="uni00B5" unicode="&#xb5;" horiz-adv-x="581" 
d="M442 540h45v-540h-38l-7 95c-18 -78 -104 -105 -180 -105c-72 0 -111 18 -129 51v-241h-45v740h45v-350c0 -113 24 -158 134 -158c73 0 153 20 175 129v379z" />
    <glyph glyph-name="nu" unicode="&#x3bd;" horiz-adv-x="469" 
d="M209 0l-206 540h47l183 -491h6l180 491h47l-204 -540h-53z" />
    <glyph glyph-name="xi" unicode="&#x3be;" horiz-adv-x="416" 
d="M269 -198v41c63 0 88 22 88 67c0 44 -27 57 -124 85c-127 36 -186 95 -186 224c0 116 54 179 150 200c-74 23 -110 73 -110 148c0 76 30 122 97 152h-99v40h299v-39c-152 0 -250 -27 -250 -152c0 -94 51 -130 165 -130h24v-42h-25c-142 0 -204 -52 -204 -177
c0 -105 44 -151 161 -184c138 -41 150 -70 150 -126c0 -70 -47 -107 -136 -107z" />
    <glyph glyph-name="omicron" unicode="&#x3bf;" horiz-adv-x="588" 
d="M293 -10c-164 0 -230 69 -230 280s66 280 230 280s232 -69 232 -280s-68 -280 -232 -280zM293 31c143 0 185 61 185 239s-43 239 -185 239s-183 -61 -183 -239s41 -239 183 -239z" />
    <glyph glyph-name="pi" unicode="&#x3c0;" horiz-adv-x="608" 
d="M583 499h-107l-2 -345c0 -90 13 -119 56 -119c18 0 31 2 45 7v-41c-14 -4 -30 -7 -46 -7c-66 0 -98 37 -98 142v363h-268v-46c0 -173 -11 -355 -22 -453h-47c15 127 24 276 24 453v46h-102v41h567v-41z" />
    <glyph glyph-name="rho" unicode="&#x3c1;" horiz-adv-x="588" 
d="M303 550c155 0 222 -69 222 -280c0 -205 -73 -280 -213 -280c-103 0 -167 37 -195 118v-308h-45v470c0 215 77 280 231 280zM305 31c123 0 173 62 173 239s-43 239 -175 239c-134 0 -186 -59 -186 -239c0 -160 63 -239 188 -239z" />
    <glyph glyph-name="uni03C2" unicode="&#x3c2;" horiz-adv-x="468" 
d="M298 -198v41c62 0 88 21 88 67c0 49 -41 65 -136 92c-137 41 -192 102 -192 255c0 224 67 293 226 293c60 0 110 -9 138 -18v-45c-41 15 -89 22 -138 22c-134 0 -178 -58 -178 -242c0 -146 41 -186 169 -226c129 -40 159 -63 159 -132c0 -71 -44 -107 -136 -107z" />
    <glyph glyph-name="sigma" unicode="&#x3c3;" horiz-adv-x="608" 
d="M592 540v-40h-130c43 -70 63 -137 63 -242c0 -199 -68 -268 -232 -268s-230 69 -230 281c0 198 75 269 267 269h262zM478 258c0 100 -18 170 -68 242h-78c-173 0 -222 -61 -222 -231c0 -177 41 -238 183 -238c143 0 185 61 185 227z" />
    <glyph glyph-name="tau" unicode="&#x3c4;" horiz-adv-x="412" 
d="M387 499h-180v-340c0 -97 16 -124 71 -124c24 0 41 2 58 7v-41c-17 -4 -37 -7 -57 -7c-80 0 -117 30 -117 167v338h-157v41h382v-41z" />
    <glyph glyph-name="upsilon" unicode="&#x3c5;" horiz-adv-x="561" 
d="M281 -10c-126 0 -193 60 -193 213v337h45v-320c0 -148 48 -188 149 -188c111 0 161 69 161 256c0 87 -14 172 -40 252h45c26 -80 40 -164 40 -253c0 -207 -68 -297 -207 -297z" />
    <glyph glyph-name="phi" unicode="&#x3c6;" horiz-adv-x="718" 
d="M658 276c0 -193 -87 -282 -277 -286v-190h-44v190c-200 4 -277 97 -277 280c0 187 87 276 277 280v210h44v-210c200 -4 277 -97 277 -274zM381 31c152 5 230 65 230 242c0 165 -63 232 -230 236v-478zM107 272c0 -164 58 -236 230 -241v477c-157 -8 -230 -64 -230 -236z
" />
    <glyph glyph-name="chi" unicode="&#x3c7;" horiz-adv-x="470" 
d="M18 -200l187 380l-177 360h49l153 -319h8l154 319h48l-176 -360l188 -380h-48l-165 339h-10l-162 -339h-49z" />
    <glyph glyph-name="psi" unicode="&#x3c8;" horiz-adv-x="693" 
d="M630 321c0 -222 -74 -318 -253 -331v-190h-45v190c-178 1 -244 55 -244 213v337h45v-320c0 -155 48 -187 199 -188v508h45v-508c147 13 208 85 208 288c0 76 -14 150 -40 220h45c26 -70 40 -143 40 -219z" />
    <glyph glyph-name="omega" unicode="&#x3c9;" horiz-adv-x="759" 
d="M236 -10c-100 0 -163 67 -163 280c0 103 14 186 39 270h45c-26 -84 -39 -168 -39 -271c0 -154 30 -237 117 -237c69 0 122 47 122 196v179h45v-179c0 -149 52 -196 122 -196c86 0 117 83 117 236c0 103 -13 188 -40 272h45c26 -84 40 -168 40 -271
c0 -212 -63 -279 -163 -279c-75 0 -119 38 -145 118c-21 -79 -66 -118 -142 -118z" />
    <glyph glyph-name="iotadieresis" unicode="&#x3ca;" horiz-adv-x="299" 
d="M42 660c-24 0 -31 4 -31 33s7 33 31 33c22 0 30 -4 30 -33s-8 -33 -30 -33zM195 660c-24 0 -32 4 -32 33s8 33 32 33c21 0 29 -4 29 -33s-8 -33 -29 -33zM222 -6c-98 0 -134 25 -134 167v379h45v-381c0 -97 19 -124 88 -124c29 0 49 2 71 7v-41c-21 -4 -47 -7 -70 -7z
" />
    <glyph glyph-name="upsilondieresis" unicode="&#x3cb;" horiz-adv-x="561" 
d="M192 660c-24 0 -31 4 -31 33s7 33 31 33c22 0 30 -4 30 -33s-8 -33 -30 -33zM345 660c-24 0 -32 4 -32 33s8 33 32 33c21 0 29 -4 29 -33s-8 -33 -29 -33zM281 -10c-126 0 -193 60 -193 213v337h45v-320c0 -148 48 -188 149 -188c111 0 161 69 161 256
c0 87 -14 172 -40 252h45c26 -80 40 -164 40 -253c0 -207 -68 -297 -207 -297z" />
    <glyph glyph-name="omicrontonos" unicode="&#x3cc;" horiz-adv-x="588" 
d="M272 615l38 138h62l-73 -138h-27zM293 -10c-164 0 -230 69 -230 280s66 280 230 280s232 -69 232 -280s-68 -280 -232 -280zM293 31c143 0 185 61 185 239s-43 239 -185 239s-183 -61 -183 -239s41 -239 183 -239z" />
    <glyph glyph-name="upsilontonos" unicode="&#x3cd;" horiz-adv-x="561" 
d="M245 615l38 138h62l-73 -138h-27zM281 -10c-126 0 -193 60 -193 213v337h45v-320c0 -148 48 -188 149 -188c111 0 161 69 161 256c0 87 -14 172 -40 252h45c26 -80 40 -164 40 -253c0 -207 -68 -297 -207 -297z" />
    <glyph glyph-name="omegatonos" unicode="&#x3ce;" horiz-adv-x="759" 
d="M357 615l38 138h62l-73 -138h-27zM236 -10c-100 0 -163 67 -163 280c0 103 14 186 39 270h45c-26 -84 -39 -168 -39 -271c0 -154 30 -237 117 -237c69 0 122 47 122 196v179h45v-179c0 -149 52 -196 122 -196c86 0 117 83 117 236c0 103 -13 188 -40 272h45
c26 -84 40 -168 40 -271c0 -212 -63 -279 -163 -279c-75 0 -119 38 -145 118c-21 -79 -66 -118 -142 -118z" />
    <glyph glyph-name="uni0400" unicode="&#x400;" horiz-adv-x="532" 
d="M306 745h-36l-154 138h76zM139 45h345v-45h-392v694h359v-43h-312v-265h292v-42h-292v-299z" />
    <glyph glyph-name="uni0401" unicode="&#x401;" horiz-adv-x="532" 
d="M192 756c-23 0 -31 4 -31 33s8 33 31 33c22 0 30 -4 30 -33s-8 -33 -30 -33zM345 756c-24 0 -32 4 -32 33s8 33 32 33c22 0 30 -4 30 -33s-8 -33 -30 -33zM139 45h345v-45h-392v694h359v-43h-312v-265h292v-42h-292v-299z" />
    <glyph glyph-name="uni0402" unicode="&#x402;" horiz-adv-x="723" 
d="M452 425c165 0 217 -81 217 -215c0 -151 -67 -216 -200 -216c-41 0 -55 1 -66 3v44c15 -2 29 -3 67 -3c103 0 150 41 150 169c0 119 -41 175 -171 175c-61 0 -124 -8 -179 -20v-362h-47v651h-218v43h482v-43h-217v-247c50 11 118 21 182 21z" />
    <glyph glyph-name="uni0403" unicode="&#x403;" horiz-adv-x="475" 
d="M413 883l-154 -138h-36l114 138h76zM451 694v-43h-312v-651h-47v694h359z" />
    <glyph glyph-name="uni0404" unicode="&#x404;" horiz-adv-x="577" 
d="M376 33c69 0 113 10 166 30v-42c-44 -18 -98 -31 -167 -31c-184 0 -303 67 -303 357c0 268 123 357 319 357c63 0 103 -6 143 -18v-47c-38 13 -81 22 -144 22c-163 0 -260 -74 -268 -284h384v-41h-385c3 -240 98 -303 255 -303z" />
    <glyph glyph-name="uni0405" unicode="&#x405;" horiz-adv-x="538" 
d="M253 -10c-89 0 -175 17 -205 29v48c39 -15 120 -34 206 -34c121 0 188 42 188 148c0 101 -48 132 -180 165c-141 34 -194 67 -194 181c0 111 66 178 217 178c59 0 134 -12 170 -25v-46c-44 17 -106 28 -172 28c-109 0 -168 -37 -168 -135c0 -79 29 -110 161 -140
c147 -35 213 -74 213 -206c0 -134 -85 -191 -236 -191z" />
    <glyph glyph-name="uni0406" unicode="&#x406;" horiz-adv-x="232" 
d="M92 0v694h47v-694h-47z" />
    <glyph glyph-name="uni0407" unicode="&#x407;" horiz-adv-x="232" 
d="M41 756c-23 0 -31 4 -31 33s8 33 31 33c22 0 30 -4 30 -33s-8 -33 -30 -33zM194 756c-24 0 -32 4 -32 33s8 33 32 33c21 0 29 -4 29 -33s-8 -33 -29 -33zM92 0v694h47v-694h-47z" />
    <glyph glyph-name="uni0408" unicode="&#x408;" horiz-adv-x="214" 
d="M-32 -180c-29 0 -54 4 -74 8v44c19 -4 42 -9 76 -9c79 0 109 48 109 140v691h47v-705c0 -95 -42 -169 -158 -169z" />
    <glyph glyph-name="uni0409" unicode="&#x409;" horiz-adv-x="1016" 
d="M719 395c178 0 241 -60 241 -194c0 -135 -57 -201 -238 -201h-204v652h-243l-54 -385c-29 -207 -88 -278 -212 -278v43c85 0 135 33 166 245l59 417h331v-299h154zM711 43c160 0 201 45 201 158c0 108 -48 152 -211 152h-136v-310h146z" />
    <glyph glyph-name="uni040A" unicode="&#x40a;" horiz-adv-x="1029" 
d="M732 395c179 0 241 -60 241 -194c0 -135 -57 -201 -237 -201h-205v355h-392v-355h-47v694h47v-297h392v297h48v-299h153zM724 43c161 0 202 45 202 158c0 108 -48 152 -212 152h-135v-310h145z" />
    <glyph glyph-name="uni040B" unicode="&#x40b;" horiz-adv-x="747" 
d="M456 425c163 0 211 -79 211 -211v-214h-47v207c0 120 -41 175 -171 175c-61 0 -124 -10 -179 -23v-359h-47v651h-218v43h482v-43h-217v-249c50 12 120 23 186 23z" />
    <glyph glyph-name="uni040C" unicode="&#x40c;" horiz-adv-x="563" 
d="M443 883l-154 -138h-36l114 138h76zM252 370c100 -25 151 -87 273 -370h-52c-115 273 -166 333 -287 333h-47v-333h-47v694h47v-319h66l249 319h58z" />
    <glyph glyph-name="uni040D" unicode="&#x40d;" horiz-adv-x="711" 
d="M358 745l-154 138h76l114 -138h-36zM92 0v694h47v-616h6l415 616h59v-694h-47v628h-6l-423 -628h-51z" />
    <glyph glyph-name="uni040E" unicode="&#x40e;" horiz-adv-x="532" 
d="M272 771c-88 0 -131 43 -132 118h46c1 -56 30 -88 84 -88c58 0 87 32 87 88h45c-1 -75 -45 -118 -130 -118zM52 -9v43c110 2 160 28 200 119l-244 541h50l217 -487h5l202 487h48l-223 -528c-46 -110 -96 -175 -255 -175z" />
    <glyph glyph-name="uni040F" unicode="&#x40f;" horiz-adv-x="671" 
d="M531 694h48v-694h-220v-157h-47v157h-220v694h47v-651h392v651z" />
    <glyph glyph-name="uni0410" unicode="&#x410;" horiz-adv-x="607" 
d="M551 0l-87 233h-322l-88 -233h-50l267 694h68l264 -694h-52zM158 274h291l-139 375h-10z" />
    <glyph glyph-name="uni0411" unicode="&#x411;" horiz-adv-x="578" 
d="M293 395c178 0 241 -60 241 -194c0 -135 -57 -201 -238 -201h-204v694h375v-43h-328v-256h154zM285 43c161 0 202 45 202 158c0 108 -49 152 -212 152h-136v-310h146z" />
    <glyph glyph-name="uni0412" unicode="&#x412;" horiz-adv-x="581" 
d="M92 0v694h178c167 0 215 -54 215 -179c0 -72 -26 -138 -107 -156v-4c95 -19 131 -75 131 -164c0 -126 -57 -191 -238 -191h-179zM139 376h106c152 0 193 32 193 139c0 115 -54 137 -200 137h-99v-276zM139 43h121c161 0 202 44 202 148c0 98 -49 143 -214 143h-109v-291z
" />
    <glyph glyph-name="uni0413" unicode="&#x413;" horiz-adv-x="475" 
d="M451 694v-43h-312v-651h-47v694h359z" />
    <glyph glyph-name="uni0414" unicode="&#x414;" horiz-adv-x="687" 
d="M563 43h106v-200h-47v157h-560v-157h-48v200h68c41 43 75 110 103 309l48 342h330v-651zM516 43v609h-242l-43 -310c-25 -177 -57 -254 -92 -299h377z" />
    <glyph glyph-name="uni0415" unicode="&#x415;" horiz-adv-x="532" 
d="M139 45h345v-45h-392v694h359v-43h-312v-265h292v-42h-292v-299z" />
    <glyph glyph-name="uni0416" unicode="&#x416;" horiz-adv-x="844" 
d="M559 370c99 -25 150 -87 272 -370h-51c-116 273 -166 333 -287 333h-47v-333h-47v333h-47c-121 0 -172 -60 -288 -333h-51c122 283 173 345 273 370l-260 324h57l250 -319h66v319h47v-319h66l249 319h57z" />
    <glyph glyph-name="uni0417" unicode="&#x417;" horiz-adv-x="546" 
d="M219 -10c-81 0 -140 11 -186 22v45c56 -15 108 -25 191 -25c141 0 202 53 202 154c0 114 -60 152 -218 152h-96v42h95c149 0 201 55 201 146c0 92 -47 136 -171 136c-69 0 -123 -12 -171 -25v44c42 11 93 23 174 23c152 0 215 -59 215 -176c0 -94 -51 -144 -128 -163v-6
c106 -14 146 -70 146 -172c0 -125 -76 -197 -254 -197z" />
    <glyph glyph-name="uni0418" unicode="&#x418;" horiz-adv-x="711" 
d="M92 0v694h47v-616h6l415 616h59v-694h-47v628h-6l-423 -628h-51z" />
    <glyph glyph-name="uni0419" unicode="&#x419;" horiz-adv-x="711" 
d="M356 771c-88 0 -131 43 -132 118h46c1 -56 30 -88 84 -88c58 0 87 32 87 88h45c-1 -75 -45 -118 -130 -118zM92 0v694h47v-616h6l415 616h59v-694h-47v628h-6l-423 -628h-51z" />
    <glyph glyph-name="uni041A" unicode="&#x41a;" horiz-adv-x="563" 
d="M252 370c100 -25 151 -87 273 -370h-52c-115 273 -166 333 -287 333h-47v-333h-47v694h47v-319h66l249 319h58z" />
    <glyph glyph-name="uni041B" unicode="&#x41b;" horiz-adv-x="671" 
d="M565 694v-694h-47v652h-243l-54 -385c-29 -207 -88 -278 -212 -278v43c85 0 135 33 166 245l59 417h331z" />
    <glyph glyph-name="uni041C" unicode="&#x41c;" horiz-adv-x="784" 
d="M92 0v694h80l218 -466h6l216 466h80v-694h-48v648h-6l-219 -470h-54l-220 470h-6v-648h-47z" />
    <glyph glyph-name="uni041D" unicode="&#x41d;" horiz-adv-x="671" 
d="M531 694h48v-694h-48v355h-392v-355h-47v694h47v-297h392v297z" />
    <glyph glyph-name="uni041E" unicode="&#x41e;" horiz-adv-x="721" 
d="M360 -10c-197 0 -288 82 -288 357c0 274 91 357 288 357c196 0 288 -83 288 -357c0 -275 -92 -357 -288 -357zM360 33c182 0 239 85 239 314s-57 314 -239 314c-181 0 -239 -85 -239 -314s58 -314 239 -314z" />
    <glyph glyph-name="uni041F" unicode="&#x41f;" horiz-adv-x="671" 
d="M579 694v-694h-48v651h-392v-651h-47v694h487z" />
    <glyph glyph-name="uni0420" unicode="&#x420;" horiz-adv-x="553" 
d="M92 0v694h163c190 0 241 -68 241 -212c0 -151 -54 -214 -241 -214h-116v-268h-47zM139 310h109c152 0 199 37 199 172c0 123 -46 170 -199 170h-109v-342z" />
    <glyph glyph-name="uni0421" unicode="&#x421;" horiz-adv-x="577" 
d="M375 -10c-184 0 -303 67 -303 357c0 268 123 357 319 357c63 0 103 -6 143 -18v-47c-38 13 -81 22 -144 22c-171 0 -269 -81 -269 -314c0 -249 96 -314 255 -314c69 0 113 10 166 30v-42c-44 -18 -98 -31 -167 -31z" />
    <glyph glyph-name="uni0422" unicode="&#x422;" horiz-adv-x="492" 
d="M487 694v-43h-217v-651h-47v651h-218v43h482z" />
    <glyph glyph-name="uni0423" unicode="&#x423;" horiz-adv-x="532" 
d="M52 -9v43c110 2 160 28 200 119l-244 541h50l217 -487h5l202 487h48l-223 -528c-46 -110 -96 -175 -255 -175z" />
    <glyph glyph-name="uni0424" unicode="&#x424;" horiz-adv-x="791" 
d="M726 351c0 -192 -87 -278 -307 -281v-84h-47v84c-220 3 -307 88 -307 281s87 279 307 282v75h47v-75c220 -3 307 -88 307 -282zM115 351c0 -150 55 -236 257 -239v479c-202 -3 -257 -88 -257 -240zM419 112c202 3 257 89 257 239s-55 237 -257 240v-479z" />
    <glyph glyph-name="uni0425" unicode="&#x425;" horiz-adv-x="562" 
d="M18 0l230 353l-217 341h55l193 -310h6l194 310h53l-216 -340l227 -354h-56l-202 321h-6l-206 -321h-55z" />
    <glyph glyph-name="uni0426" unicode="&#x426;" horiz-adv-x="701" 
d="M579 43h105v-200h-47v157h-545v694h47v-651h392v651h48v-651z" />
    <glyph glyph-name="uni0427" unicode="&#x427;" horiz-adv-x="616" 
d="M477 694h47v-694h-47v292c-50 -12 -120 -23 -184 -23c-164 0 -212 79 -212 211v214h48v-207c0 -120 41 -175 171 -175c61 0 123 10 177 22v360z" />
    <glyph glyph-name="uni0428" unicode="&#x428;" horiz-adv-x="987" 
d="M848 694h47v-694h-803v694h47v-651h331v651h47v-651h331v651z" />
    <glyph glyph-name="uni0429" unicode="&#x429;" horiz-adv-x="1017" 
d="M895 43h104v-200h-47v157h-860v694h47v-651h331v651h47v-651h331v651h47v-651z" />
    <glyph glyph-name="uni042A" unicode="&#x42a;" horiz-adv-x="700" 
d="M403 395c178 0 241 -60 241 -194c0 -135 -57 -201 -238 -201h-204v651h-197v43h244v-299h154zM395 43c161 0 202 45 202 158c0 108 -49 152 -212 152h-136v-310h146z" />
    <glyph glyph-name="uni042B" unicode="&#x42b;" horiz-adv-x="773" 
d="M293 395c178 0 241 -60 241 -194c0 -135 -57 -201 -238 -201h-204v694h47v-299h154zM632 694h48v-694h-48v694zM285 43c161 0 202 45 202 158c0 108 -49 152 -212 152h-136v-310h146z" />
    <glyph glyph-name="uni042C" unicode="&#x42c;" horiz-adv-x="590" 
d="M293 395c178 0 241 -60 241 -194c0 -135 -57 -201 -238 -201h-204v694h47v-299h154zM285 43c161 0 202 45 202 158c0 108 -49 152 -212 152h-136v-310h146z" />
    <glyph glyph-name="uni042D" unicode="&#x42d;" horiz-adv-x="577" 
d="M202 704c184 0 303 -67 303 -357c0 -268 -123 -357 -319 -357c-63 0 -103 6 -143 18v47c38 -13 81 -22 144 -22c169 0 266 79 269 305h-385v41h384c-8 223 -102 282 -254 282c-69 0 -113 -10 -166 -30v42c44 18 98 31 167 31z" />
    <glyph glyph-name="uni042E" unicode="&#x42e;" horiz-adv-x="1024" 
d="M677 704c182 0 273 -83 273 -357c0 -275 -91 -357 -273 -357c-183 0 -273 82 -273 357v8h-265v-355h-47v694h47v-297h266c11 234 101 307 272 307zM677 33c168 0 224 85 224 314s-56 314 -224 314c-166 0 -224 -85 -224 -314s58 -314 224 -314z" />
    <glyph glyph-name="uni042F" unicode="&#x42f;" horiz-adv-x="570" 
d="M343 694h135v-694h-48v301h-94c-20 0 -38 0 -55 1l-210 -302h-58l216 308c-107 17 -150 68 -150 194c0 149 63 192 264 192zM430 343v309h-90c-154 0 -213 -28 -213 -150c0 -139 59 -159 213 -159h90z" />
    <glyph glyph-name="uni0430" unicode="&#x430;" horiz-adv-x="588" 
d="M301 550c162 0 193 -74 193 -169v-381h-38l-7 96c-32 -68 -115 -106 -212 -106c-129 0 -182 57 -182 157c0 138 94 168 212 168h182v59c0 85 -28 134 -151 134c-35 0 -80 -4 -121 -13v44c40 7 85 11 124 11zM236 32c106 0 186 44 213 126v117h-176
c-111 0 -173 -20 -173 -128c0 -78 47 -115 136 -115z" />
    <glyph glyph-name="uni0431" unicode="&#x431;" horiz-adv-x="588" 
d="M304 531c155 0 221 -66 221 -270s-68 -271 -232 -271c-165 0 -230 66 -230 353c0 312 68 382 257 397l163 13v-42l-168 -13c-121 -9 -171 -53 -194 -156c-9 -42 -14 -82 -16 -130c23 79 86 119 199 119zM293 30c143 0 185 59 185 231c0 178 -52 231 -182 231
c-116 0 -186 -45 -186 -192c0 -211 47 -270 183 -270z" />
    <glyph glyph-name="uni0432" unicode="&#x432;" horiz-adv-x="550" 
d="M94 -1v542h198c125 0 172 -37 172 -138c0 -62 -28 -107 -76 -120v-4c62 -15 93 -52 93 -129c0 -105 -52 -151 -173 -151h-214zM139 295h120c117 0 159 25 159 104c0 84 -38 103 -142 103h-137v-207zM139 39h139c122 0 156 24 156 110c0 83 -43 109 -156 109h-139v-219z
" />
    <glyph glyph-name="uni0433" unicode="&#x433;" horiz-adv-x="370" 
d="M349 540v-42h-211v-498h-45v540h256z" />
    <glyph glyph-name="uni0434" unicode="&#x434;" horiz-adv-x="598" 
d="M490 43h79v-184h-44v141h-459v-141h-45v184h53c44 31 78 103 100 270l31 227h285v-497zM445 43v455h-199l-26 -195c-20 -149 -48 -219 -85 -260h310z" />
    <glyph glyph-name="uni0435" unicode="&#x435;" horiz-adv-x="552" 
d="M487 330c0 -15 0 -31 -2 -52l-381 -27c2 -159 48 -220 194 -220c56 0 125 12 169 33v-43c-30 -14 -104 -31 -172 -31c-169 0 -237 68 -237 280s66 280 232 280c179 0 197 -119 197 -220zM104 289l340 26c0 118 -16 194 -156 194s-182 -62 -184 -220z" />
    <glyph glyph-name="uni0436" unicode="&#x436;" horiz-adv-x="691" 
d="M447 291c90 -14 141 -57 236 -291h-46c-88 212 -136 255 -224 255h-45v-255h-45v255h-45c-88 0 -136 -43 -224 -255h-46c95 234 146 277 236 291l-232 249h58l223 -244h30v244h45v-244h30l223 244h58z" />
    <glyph glyph-name="uni0437" unicode="&#x437;" horiz-adv-x="457" 
d="M181 -13c-67 0 -116 10 -152 18v43c45 -12 88 -20 156 -20c110 0 157 38 157 116c0 86 -43 116 -167 116h-79v40h78c105 0 154 35 154 111c0 71 -38 103 -132 103c-58 0 -101 -10 -140 -20v41c32 8 76 19 142 19c121 0 176 -44 176 -141c0 -69 -32 -111 -98 -129v-2
c79 -12 112 -53 112 -137c0 -104 -68 -158 -207 -158z" />
    <glyph glyph-name="uni0438" unicode="&#x438;" horiz-adv-x="606" 
d="M94 0v540h45v-467h6l311 467h56v-540h-45v479h-6l-319 -479h-48z" />
    <glyph glyph-name="uni0439" unicode="&#x439;" horiz-adv-x="606" 
d="M305 617c-88 0 -131 43 -132 118h46c1 -56 30 -88 84 -88c58 0 87 32 87 88h45c-1 -75 -45 -118 -130 -118zM94 0v540h45v-467h6l311 467h56v-540h-45v479h-6l-319 -479h-48z" />
    <glyph glyph-name="uni043A" unicode="&#x43a;" horiz-adv-x="462" 
d="M218 291c90 -14 140 -57 236 -291h-46c-88 212 -136 255 -224 255h-45v-255h-45v540h45v-244h30l223 244h58z" />
    <glyph glyph-name="uni043B" unicode="&#x43b;" horiz-adv-x="583" 
d="M490 540v-540h-45v498h-199l-32 -241c-26 -200 -81 -268 -198 -268v42c79 0 126 31 153 236l36 273h285z" />
    <glyph glyph-name="uni043C" unicode="&#x43c;" horiz-adv-x="699" 
d="M94 0v540h75l178 -366h6l177 366h75v-540h-45v493h-6l-179 -370h-50l-181 370h-6v-493h-44z" />
    <glyph glyph-name="uni043D" unicode="&#x43d;" horiz-adv-x="602" 
d="M463 540h45v-540h-45v261h-324v-261h-45v540h45v-236h324v236z" />
    <glyph glyph-name="uni043E" unicode="&#x43e;" horiz-adv-x="588" 
d="M293 -10c-164 0 -230 69 -230 280s66 280 230 280s232 -69 232 -280s-68 -280 -232 -280zM293 31c143 0 185 61 185 239s-43 239 -185 239s-183 -61 -183 -239s41 -239 183 -239z" />
    <glyph glyph-name="uni043F" unicode="&#x43f;" horiz-adv-x="602" 
d="M508 540v-540h-45v497h-324v-497h-45v540h414z" />
    <glyph glyph-name="uni0440" unicode="&#x440;" horiz-adv-x="606" 
d="M333 550c160 0 210 -95 210 -280c0 -169 -50 -280 -210 -280c-117 0 -172 53 -195 124v-314h-45v740h45v-118c22 78 79 128 195 128zM326 31c139 0 170 92 170 239c0 156 -34 239 -170 239c-146 0 -190 -100 -190 -239c0 -137 44 -239 190 -239z" />
    <glyph glyph-name="uni0441" unicode="&#x441;" horiz-adv-x="468" 
d="M284 -10c-159 0 -226 69 -226 280s67 280 226 280c60 0 110 -9 138 -18v-45c-41 15 -89 22 -138 22c-134 0 -178 -58 -178 -239c0 -179 46 -239 178 -239c55 0 101 11 140 28v-44c-30 -12 -86 -25 -140 -25z" />
    <glyph glyph-name="uni0442" unicode="&#x442;" horiz-adv-x="441" 
d="M428 540v-42h-185v-498h-45v498h-185v42h415z" />
    <glyph glyph-name="uni0443" unicode="&#x443;" horiz-adv-x="470" 
d="M49 -200v40c89 0 127 38 170 163l-216 537h48l189 -481h6l174 481h47l-201 -543c-45 -121 -85 -197 -217 -197z" />
    <glyph glyph-name="uni0444" unicode="&#x444;" horiz-adv-x="884" 
d="M629 550c135 0 192 -71 192 -280c0 -193 -58 -280 -192 -280c-96 0 -143 48 -164 114v-304h-45v308c-22 -72 -70 -118 -165 -118c-135 0 -192 71 -192 280c0 193 58 280 192 280c97 0 143 -49 165 -115v325h45v-327c21 71 70 117 164 117zM263 31c126 0 159 100 159 239
c0 137 -33 239 -159 239c-113 0 -153 -69 -153 -239c0 -180 43 -239 153 -239zM621 31c113 0 153 69 153 239c0 180 -43 239 -153 239c-126 0 -159 -100 -159 -239c0 -137 33 -239 159 -239z" />
    <glyph glyph-name="uni0445" unicode="&#x445;" horiz-adv-x="455" 
d="M15 0l181 271l-179 269h51l156 -240h6l155 240h50l-177 -267l183 -273h-50l-160 244h-6l-160 -244h-50z" />
    <glyph glyph-name="uni0446" unicode="&#x446;" horiz-adv-x="613" 
d="M508 43h76v-184h-45v141h-445v540h45v-497h324v497h45v-497z" />
    <glyph glyph-name="uni0447" unicode="&#x447;" horiz-adv-x="573" 
d="M434 540h45v-540h-45v281c-19 -77 -104 -103 -180 -103c-136 0 -174 65 -174 172v190h45v-162c0 -113 24 -158 134 -158c73 0 153 20 175 129v191z" />
    <glyph glyph-name="uni0448" unicode="&#x448;" horiz-adv-x="862" 
d="M723 540h45v-540h-674v540h45v-497h270v497h45v-497h269v497z" />
    <glyph glyph-name="uni0449" unicode="&#x449;" horiz-adv-x="864" 
d="M768 43h75v-184h-44v141h-705v540h45v-497h270v497h45v-497h269v497h45v-497z" />
    <glyph glyph-name="uni044A" unicode="&#x44a;" horiz-adv-x="630" 
d="M404 307c123 0 172 -48 172 -151c0 -109 -54 -156 -173 -156h-219v498h-171v42h216v-233h175zM385 40c109 0 144 27 144 115c0 77 -34 112 -143 112h-157v-227h156z" />
    <glyph glyph-name="uni044B" unicode="&#x44b;" horiz-adv-x="726" 
d="M94 0v540h45v-233h175c123 0 172 -48 172 -151c0 -109 -54 -156 -173 -156h-219zM585 0v540h45v-540h-45zM139 40h156c109 0 144 27 144 115c0 77 -34 112 -143 112h-157v-227z" />
    <glyph glyph-name="uni044C" unicode="&#x44c;" horiz-adv-x="540" 
d="M94 0v540h45v-233h175c123 0 172 -48 172 -151c0 -109 -54 -156 -173 -156h-219zM139 40h156c109 0 144 27 144 115c0 77 -34 112 -143 112h-157v-227z" />
    <glyph glyph-name="uni044D" unicode="&#x44d;" horiz-adv-x="468" 
d="M184 550c159 0 226 -69 226 -280s-67 -280 -226 -280c-60 0 -110 9 -138 18v45c41 -15 89 -22 138 -22c129 0 175 54 178 221h-276v42h276c-4 160 -52 215 -178 215c-55 0 -101 -11 -140 -28v44c30 12 86 25 140 25z" />
    <glyph glyph-name="uni044E" unicode="&#x44e;" horiz-adv-x="800" 
d="M515 550c154 0 222 -69 222 -280s-68 -280 -222 -280c-153 0 -219 67 -221 271h-155v-261h-45v540h45v-236h156c7 184 74 246 220 246zM515 31c132 0 175 61 175 239s-43 239 -175 239c-133 0 -173 -61 -173 -239s41 -239 173 -239z" />
    <glyph glyph-name="uni044F" unicode="&#x44f;" horiz-adv-x="508" 
d="M285 540h129v-540h-44v231h-99c-12 0 -24 0 -35 1l-162 -232h-57l168 236c-99 14 -127 59 -127 149c0 115 57 155 227 155zM370 271v227h-88c-134 0 -177 -29 -177 -112c0 -82 24 -115 169 -115h96z" />
    <glyph glyph-name="uni0450" unicode="&#x450;" horiz-adv-x="552" 
d="M315 615h-31l-128 138h66zM487 330c0 -15 0 -31 -2 -52l-381 -27c2 -159 48 -220 194 -220c56 0 125 12 169 33v-43c-30 -14 -104 -31 -172 -31c-169 0 -237 68 -237 280s66 280 232 280c179 0 197 -119 197 -220zM104 289l340 26c0 118 -16 194 -156 194
s-182 -62 -184 -220z" />
    <glyph glyph-name="uni0451" unicode="&#x451;" horiz-adv-x="552" 
d="M192 660c-24 0 -31 4 -31 33s7 33 31 33c22 0 30 -4 30 -33s-8 -33 -30 -33zM345 660c-24 0 -32 4 -32 33s8 33 32 33c21 0 29 -4 29 -33s-8 -33 -29 -33zM487 330c0 -15 0 -31 -2 -52l-381 -27c2 -159 48 -220 194 -220c56 0 125 12 169 33v-43
c-30 -14 -104 -31 -172 -31c-169 0 -237 68 -237 280s66 280 232 280c179 0 197 -119 197 -220zM104 289l340 26c0 118 -16 194 -156 194s-182 -62 -184 -220z" />
    <glyph glyph-name="uni0452" unicode="&#x452;" horiz-adv-x="586" 
d="M353 -200c-20 0 -39 2 -60 6v42c26 -4 47 -6 61 -6c74 0 98 32 98 155v353c0 113 -26 159 -136 159c-72 0 -155 -20 -177 -131v-378h-45v622h-79v40h79v98h45v-98h166v-40h-166v-175c20 77 106 103 182 103c136 0 176 -65 176 -172v-392c0 -157 -57 -186 -144 -186z" />
    <glyph glyph-name="uni0453" unicode="&#x453;" horiz-adv-x="370" 
d="M314 753l-128 -138h-31l92 138h67zM349 540v-42h-211v-498h-45v540h256z" />
    <glyph glyph-name="uni0454" unicode="&#x454;" horiz-adv-x="468" 
d="M284 31c55 0 101 11 140 28v-44c-30 -12 -86 -25 -140 -25c-159 0 -226 69 -226 280s67 280 226 280c60 0 110 -9 138 -18v-45c-41 15 -89 22 -138 22c-127 0 -173 -52 -178 -213h275v-42h-275c3 -167 50 -223 178 -223z" />
    <glyph glyph-name="uni0455" unicode="&#x455;" horiz-adv-x="452" 
d="M212 -6c-56 0 -113 6 -155 16v43c40 -10 96 -18 155 -18c95 0 142 33 142 107c0 64 -26 90 -130 117c-111 28 -156 51 -156 146c0 98 70 145 174 145c58 0 114 -9 140 -18l-3 -44c-33 12 -86 21 -137 21c-77 0 -129 -28 -129 -104c0 -73 41 -87 118 -106
c118 -30 168 -60 168 -157c0 -90 -55 -148 -187 -148z" />
    <glyph glyph-name="uni0456" unicode="&#x456;" horiz-adv-x="236" 
d="M118 660c-24 0 -31 4 -31 33s7 33 31 33c22 0 30 -4 30 -33s-8 -33 -30 -33zM95 0v540h45v-540h-45z" />
    <glyph glyph-name="uni0457" unicode="&#x457;" horiz-adv-x="236" 
d="M43 660c-24 0 -31 4 -31 33s7 33 31 33c22 0 30 -4 30 -33s-8 -33 -30 -33zM196 660c-24 0 -32 4 -32 33s8 33 32 33c21 0 29 -4 29 -33s-8 -33 -29 -33zM95 0v540h45v-540h-45z" />
    <glyph glyph-name="uni0458" unicode="&#x458;" horiz-adv-x="236" 
d="M118 660c-24 0 -31 4 -31 33s7 33 31 33c22 0 30 -4 30 -33s-8 -33 -30 -33zM-4 -200c-21 0 -40 2 -61 6v42c26 -4 48 -6 61 -6c75 0 99 32 99 155v543h45v-554c0 -157 -58 -186 -144 -186z" />
    <glyph glyph-name="uni0459" unicode="&#x459;" horiz-adv-x="891" 
d="M665 307c123 0 172 -48 172 -151c0 -109 -54 -156 -173 -156h-219v498h-199l-32 -241c-26 -200 -81 -268 -198 -268v42c79 0 126 31 153 236l36 273h285v-233h175zM645 40c110 0 145 27 145 115c0 77 -34 112 -144 112h-156v-227h155z" />
    <glyph glyph-name="uni045A" unicode="&#x45a;" horiz-adv-x="910" 
d="M684 307c122 0 171 -48 171 -151c0 -109 -53 -156 -172 -156h-220v261h-324v-261h-45v540h45v-236h324v236h45v-233h176zM664 40c109 0 144 27 144 115c0 77 -33 112 -143 112h-157v-227h156z" />
    <glyph glyph-name="uni045B" unicode="&#x45b;" horiz-adv-x="586" 
d="M321 550c136 0 176 -65 176 -172v-378h-45v350c0 113 -26 159 -136 159c-73 0 -155 -21 -177 -130v-379h-45v622h-79v40h79v98h45v-98h166v-40h-166v-175c19 76 106 103 182 103z" />
    <glyph glyph-name="uni045C" unicode="&#x45c;" horiz-adv-x="462" 
d="M361 753l-128 -138h-31l92 138h67zM218 291c90 -14 140 -57 236 -291h-46c-88 212 -136 255 -224 255h-45v-255h-45v540h45v-244h30l223 244h58z" />
    <glyph glyph-name="uni045D" unicode="&#x45d;" horiz-adv-x="606" 
d="M320 615l-128 138h66l93 -138h-31zM94 0v540h45v-467h6l311 467h56v-540h-45v479h-6l-319 -479h-48z" />
    <glyph glyph-name="uni045E" unicode="&#x45e;" horiz-adv-x="470" 
d="M236 617c-88 0 -131 43 -132 118h46c1 -56 30 -88 84 -88c58 0 87 32 87 88h45c-1 -75 -45 -118 -130 -118zM49 -200v40c89 0 127 38 170 163l-216 537h48l189 -481h6l174 481h47l-201 -543c-45 -121 -85 -197 -217 -197z" />
    <glyph glyph-name="uni045F" unicode="&#x45f;" horiz-adv-x="602" 
d="M463 540h45v-540h-185v-141h-44v141h-185v540h45v-497h324v497z" />
    <glyph glyph-name="uni0490" unicode="&#x490;" horiz-adv-x="475" 
d="M404 851h47v-200h-312v-651h-47v694h312v157z" />
    <glyph glyph-name="uni0491" unicode="&#x491;" horiz-adv-x="370" 
d="M305 660h44v-162h-211v-498h-45v540h212v120z" />
    <glyph glyph-name="uni0492" unicode="&#x492;" horiz-adv-x="475" 
d="M451 651h-312v-286h207v-38h-207v-327h-47v327h-86v38h86v329h359v-43z" />
    <glyph glyph-name="uni0493" unicode="&#x493;" horiz-adv-x="370" 
d="M349 498h-211v-212h146v-41h-146v-245h-45v245h-78v41h78v254h256v-42z" />
    <glyph glyph-name="uni0496" unicode="&#x496;" horiz-adv-x="865" 
d="M554 370c100 -25 151 -87 273 -370h-53c-116 273 -166 333 -287 333h-31v-333h-47v333h-31c-120 0 -171 -60 -286 -333h-53c122 283 173 345 272 370l-259 324h57l249 -319h51v319h47v-319h51l249 319h58z" />
    <glyph glyph-name="uni0497" unicode="&#x497;" horiz-adv-x="671" 
d="M427 291c90 -14 141 -57 236 -291h-46c-88 212 -136 255 -224 255h-35v-255h-45v255h-35c-88 0 -136 -43 -224 -255h-46c95 234 146 277 236 291l-232 249h58l223 -244h20v244h45v-244h20l223 244h58z" />
    <glyph glyph-name="uni049A" unicode="&#x49a;" horiz-adv-x="624" 
d="M506 43h89v-200h-47v157h-75c-115 273 -166 333 -287 333h-47v-333h-47v694h47v-319h66l249 319h58l-260 -324c95 -24 145 -81 254 -327z" />
    <glyph glyph-name="uni049B" unicode="&#x49b;" horiz-adv-x="528" 
d="M436 43h62v-184h-44v141h-46c-88 212 -136 255 -224 255h-45v-255h-45v540h45v-244h30l223 244h58l-232 -249c84 -13 133 -52 218 -248z" />
    <glyph glyph-name="uni049C" unicode="&#x49c;" horiz-adv-x="586" 
d="M295 370c99 -25 150 -87 252 -370h-53c-90 258 -140 326 -248 332v-177h-38v178h-69v-333h-47v694h47v-319h69v175h38v-175h2l229 319h57z" />
    <glyph glyph-name="uni049D" unicode="&#x49d;" horiz-adv-x="483" 
d="M279 291c80 -13 131 -57 196 -291h-46c-58 210 -105 254 -193 255v-145h-38v145h-59v-255h-45v540h45v-244h59v146h38v-138l177 236h58z" />
    <glyph glyph-name="uni04A2" unicode="&#x4a2;" horiz-adv-x="671" 
d="M579 43h108v-200h-47v157h-109v355h-392v-355h-47v694h47v-297h392v297h48v-651z" />
    <glyph glyph-name="uni04A3" unicode="&#x4a3;" horiz-adv-x="613" 
d="M508 43h76v-184h-45v141h-76v261h-324v-261h-45v540h45v-236h324v236h45v-497z" />
    <glyph glyph-name="uni04AE" unicode="&#x4ae;" horiz-adv-x="526" 
d="M239 0v313l-241 381h54l210 -335h6l206 335h54l-242 -381v-313h-47z" />
    <glyph glyph-name="uni04AF" unicode="&#x4af;" horiz-adv-x="470" 
d="M221 -200v201l-218 539h48l189 -475h6l174 475h47l-201 -539v-201h-45z" />
    <glyph glyph-name="uni04B2" unicode="&#x4b2;" horiz-adv-x="635" 
d="M515 43h91v-200h-48v157h-71l-202 321h-6l-206 -321h-55l230 353l-217 341h55l193 -310h6l194 310h53l-216 -340z" />
    <glyph glyph-name="uni04B3" unicode="&#x4b3;" horiz-adv-x="455" 
d="M412 43h64v-184h-44v141h-41l-160 244h-6l-160 -244h-50l181 271l-179 269h51l156 -240h6l155 240h50l-177 -267z" />
    <glyph glyph-name="uni04B8" unicode="&#x4b8;" horiz-adv-x="617" 
d="M477 694h47v-694h-47v292c-44 -11 -103 -20 -160 -23v-155h-39v155c-152 5 -197 83 -197 211v214h48v-207c0 -113 36 -168 149 -174v196h39v-197c55 2 111 11 160 22v360z" />
    <glyph glyph-name="uni04B9" unicode="&#x4b9;" horiz-adv-x="573" 
d="M434 540h45v-540h-45v281c-16 -64 -77 -92 -140 -101v-121h-38v119h-2c-136 0 -174 65 -174 172v190h45v-162c0 -112 24 -157 131 -158v171h38v-169c62 7 122 35 140 127v191z" />
    <glyph glyph-name="uni04BA" unicode="&#x4ba;" horiz-adv-x="616" 
d="M323 425c164 0 211 -79 211 -211v-214h-47v207c0 120 -41 175 -171 175c-60 0 -123 -9 -177 -22v-360h-47v694h47v-292c51 12 120 23 184 23z" />
    <glyph glyph-name="uni04BB" unicode="&#x4bb;" horiz-adv-x="586" 
d="M321 550c136 0 176 -65 176 -172v-378h-45v350c0 113 -26 159 -136 159c-73 0 -155 -21 -177 -130v-379h-45v760h45v-313c19 76 106 103 182 103z" />
    <glyph glyph-name="uni04C0" unicode="&#x4c0;" horiz-adv-x="232" 
d="M92 0v694h47v-694h-47z" />
    <glyph glyph-name="uni04CF" unicode="&#x4cf;" horiz-adv-x="234" 
d="M95 0v760h45v-760h-45z" />
    <glyph glyph-name="uni04D8" unicode="&#x4d8;" horiz-adv-x="679" 
d="M304 704c215 0 302 -85 302 -356s-84 -358 -296 -358c-229 0 -252 152 -252 281c0 19 0 39 4 67l495 33c-2 211 -62 290 -257 290c-72 0 -161 -15 -216 -41v46c39 18 133 38 220 38zM313 34c187 0 242 83 244 295l-452 -32c0 -160 21 -263 208 -263z" />
    <glyph glyph-name="uni04D9" unicode="&#x4d9;" horiz-adv-x="552" 
d="M257 550c169 0 237 -68 237 -280s-66 -280 -232 -280c-179 0 -197 119 -197 220c0 15 0 31 3 52l381 27c-2 159 -49 220 -195 220c-56 0 -125 -12 -169 -33v43c30 14 104 31 172 31zM264 31c140 0 183 62 185 220l-341 -26c0 -118 16 -194 156 -194z" />
    <glyph glyph-name="uni04E8" unicode="&#x4e8;" horiz-adv-x="721" 
d="M360 704c196 0 288 -83 288 -357c0 -275 -92 -357 -288 -357c-197 0 -288 82 -288 357c0 274 91 357 288 357zM360 661c-175 0 -235 -80 -239 -292h478c-4 212 -63 292 -239 292zM360 33c178 0 236 81 239 298h-478c3 -217 62 -298 239 -298z" />
    <glyph glyph-name="uni04E9" unicode="&#x4e9;" horiz-adv-x="588" 
d="M293 550c164 0 232 -69 232 -280s-68 -280 -232 -280s-230 69 -230 280s66 280 230 280zM293 509c-136 0 -179 -56 -183 -217h368c-4 161 -49 217 -185 217zM293 31c138 0 182 57 185 220h-368c3 -163 46 -220 183 -220z" />
    <glyph glyph-name="Wgrave" unicode="&#x1e80;" horiz-adv-x="853" 
d="M429 745l-154 138h76l114 -138h-36zM195 0l-176 694h49l158 -637h6l163 546h65l164 -546h6l157 637h48l-177 -694h-62l-166 548h-6l-167 -548h-62z" />
    <glyph glyph-name="wgrave" unicode="&#x1e81;" horiz-adv-x="776" 
d="M404 615l-128 138h66l93 -138h-31zM164 0l-149 540h45l133 -490h6l159 490h58l162 -490h6l134 490h43l-152 -540h-55l-164 493h-6l-164 -493h-56z" />
    <glyph glyph-name="Wacute" unicode="&#x1e82;" horiz-adv-x="853" 
d="M397 745l114 138h76l-154 -138h-36zM195 0l-176 694h49l158 -637h6l163 546h65l164 -546h6l157 637h48l-177 -694h-62l-166 548h-6l-167 -548h-62z" />
    <glyph glyph-name="wacute" unicode="&#x1e83;" horiz-adv-x="776" 
d="M359 615l92 138h67l-128 -138h-31zM164 0l-149 540h45l133 -490h6l159 490h58l162 -490h6l134 490h43l-152 -540h-55l-164 493h-6l-164 -493h-56z" />
    <glyph glyph-name="Wdieresis" unicode="&#x1e84;" horiz-adv-x="853" 
d="M341 756c-24 0 -31 4 -31 33s7 33 31 33c22 0 30 -4 30 -33s-8 -33 -30 -33zM514 756c-24 0 -32 4 -32 33s8 33 32 33c21 0 29 -4 29 -33s-8 -33 -29 -33zM195 0l-176 694h49l158 -637h6l163 546h65l164 -546h6l157 637h48l-177 -694h-62l-166 548h-6l-167 -548h-62z" />
    <glyph glyph-name="wdieresis" unicode="&#x1e85;" horiz-adv-x="776" 
d="M313 660c-24 0 -31 4 -31 33s7 33 31 33c22 0 30 -4 30 -33s-8 -33 -30 -33zM466 660c-24 0 -32 4 -32 33s8 33 32 33c21 0 29 -4 29 -33s-8 -33 -29 -33zM164 0l-149 540h45l133 -490h6l159 490h58l162 -490h6l134 490h43l-152 -540h-55l-164 493h-6l-164 -493h-56z" />
    <glyph glyph-name="uni1E9E" unicode="&#x1e9e;" horiz-adv-x="679" 
d="M469 386c119 -41 161 -85 161 -205c0 -134 -65 -191 -180 -191c-69 0 -136 17 -159 29v48c31 -15 93 -34 160 -34c85 0 132 42 132 148c0 100 -34 128 -130 165c-113 42 -145 79 -145 174c0 74 28 122 81 144h-23c-201 0 -231 -83 -231 -218v-446h-48v454
c0 159 58 250 279 250c98 0 181 -12 239 -29v-43c-34 12 -80 21 -131 21c-78 0 -119 -40 -119 -131c0 -72 23 -104 114 -136z" />
    <glyph glyph-name="Ygrave" unicode="&#x1ef2;" horiz-adv-x="526" 
d="M265 745l-154 138h76l114 -138h-36zM239 0v313l-241 381h54l210 -335h6l206 335h54l-242 -381v-313h-47z" />
    <glyph glyph-name="ygrave" unicode="&#x1ef3;" horiz-adv-x="470" 
d="M252 615l-128 138h66l93 -138h-31zM49 -200v40c89 0 127 38 170 163l-216 537h48l189 -481h6l174 481h47l-201 -543c-45 -121 -85 -197 -217 -197z" />
    <glyph glyph-name="uni2010" unicode="&#x2010;" horiz-adv-x="420" 
d="M66 288v38h288v-38h-288z" />
    <glyph glyph-name="endash" unicode="&#x2013;" horiz-adv-x="475" 
d="M64 288v38h348v-38h-348z" />
    <glyph glyph-name="emdash" unicode="&#x2014;" horiz-adv-x="647" 
d="M64 288v38h520v-38h-520z" />
    <glyph glyph-name="uni2015" unicode="&#x2015;" horiz-adv-x="647" 
d="M64 288v38h520v-38h-520z" />
    <glyph glyph-name="underscoredbl" unicode="&#x2017;" horiz-adv-x="500" 
d="M0 -157v44h500v-44h-500zM0 -279v43h500v-43h-500z" />
    <glyph glyph-name="quoteleft" unicode="&#x2018;" horiz-adv-x="230" 
d="M62 520c0 70 31 164 68 240h33c-31 -80 -57 -166 -57 -240h-44z" />
    <glyph glyph-name="quoteright" unicode="&#x2019;" horiz-adv-x="230" 
d="M62 520c31 80 57 166 57 240h44c0 -70 -32 -164 -68 -240h-33z" />
    <glyph glyph-name="quotesinglbase" unicode="&#x201a;" horiz-adv-x="230" 
d="M62 -132c31 80 57 166 57 240h44c0 -70 -32 -164 -68 -240h-33z" />
    <glyph glyph-name="quotereversed" unicode="&#x201b;" horiz-adv-x="230" 
d="M130 520c-37 76 -68 170 -68 240h44c0 -74 26 -160 57 -240h-33z" />
    <glyph glyph-name="quotedblleft" unicode="&#x201c;" horiz-adv-x="409" 
d="M62 520c0 70 31 164 68 240h33c-31 -80 -57 -166 -57 -240h-44zM241 520c0 70 32 164 68 240h34c-32 -80 -58 -166 -58 -240h-44z" />
    <glyph glyph-name="quotedblright" unicode="&#x201d;" horiz-adv-x="409" 
d="M62 520c31 80 57 166 57 240h44c0 -70 -32 -164 -68 -240h-33zM241 520c32 80 58 166 58 240h44c0 -70 -32 -164 -68 -240h-34z" />
    <glyph glyph-name="quotedblbase" unicode="&#x201e;" horiz-adv-x="409" 
d="M62 -132c31 80 57 166 57 240h44c0 -70 -32 -164 -68 -240h-33zM241 -132c32 80 58 166 58 240h44c0 -70 -32 -164 -68 -240h-34z" />
    <glyph glyph-name="dagger" unicode="&#x2020;" horiz-adv-x="500" 
d="M445 505v-42h-174v-463h-42v463h-174v42h174v199h42v-199h174z" />
    <glyph glyph-name="daggerdbl" unicode="&#x2021;" horiz-adv-x="500" 
d="M445 485h-174v-147h174v-42h-174v-296h-42v296h-174v42h174v147h-174v41h174v178h42v-178h174v-41z" />
    <glyph glyph-name="bullet" unicode="&#x2022;" horiz-adv-x="271" 
d="M138 200c-65 0 -87 11 -87 89c0 77 22 88 87 88c60 0 82 -11 82 -88c0 -78 -22 -89 -82 -89z" />
    <glyph glyph-name="ellipsis" unicode="&#x2026;" horiz-adv-x="768" 
d="M129 -10c-32 0 -43 6 -43 44s11 43 43 43c30 0 41 -5 41 -43s-11 -44 -41 -44zM385 -10c-32 0 -43 6 -43 44s11 43 43 43c30 0 41 -5 41 -43s-11 -44 -41 -44zM641 -10c-32 0 -43 6 -43 44s11 43 43 43c30 0 41 -5 41 -43s-11 -44 -41 -44z" />
    <glyph glyph-name="perthousand" unicode="&#x2030;" horiz-adv-x="1156" 
d="M201 323c-86 0 -134 39 -134 190s48 191 134 191c85 0 133 -40 133 -191s-48 -190 -133 -190zM177 0l406 694h45l-407 -694h-44zM201 360c65 0 90 33 90 153c0 122 -25 154 -90 154c-63 0 -91 -32 -91 -154c0 -120 28 -153 91 -153zM601 -10c-86 0 -134 39 -134 190
s48 191 134 191c85 0 133 -40 133 -191s-48 -190 -133 -190zM958 -10c-86 0 -134 39 -134 190s48 191 134 191c84 0 132 -40 132 -191s-48 -190 -132 -190zM601 27c65 0 90 33 90 153c0 122 -25 154 -90 154c-63 0 -91 -32 -91 -154c0 -120 28 -153 91 -153zM958 27
c65 0 89 33 89 153c0 122 -24 154 -89 154c-63 0 -91 -32 -91 -154c0 -120 28 -153 91 -153z" />
    <glyph glyph-name="minute" unicode="&#x2032;" horiz-adv-x="266" 
d="M107 464l12 296h64l-49 -296h-27z" />
    <glyph glyph-name="second" unicode="&#x2033;" horiz-adv-x="476" 
d="M107 464l12 296h64l-49 -296h-27zM317 464l12 296h64l-49 -296h-27z" />
    <glyph glyph-name="guilsinglleft" unicode="&#x2039;" horiz-adv-x="265" 
d="M177 100l-147 175l147 175h58l-147 -175l147 -175h-58z" />
    <glyph glyph-name="guilsinglright" unicode="&#x203a;" horiz-adv-x="265" 
d="M30 100l147 175l-147 175h58l147 -175l-147 -175h-58z" />
    <glyph glyph-name="exclamdbl" unicode="&#x203c;" horiz-adv-x="530" 
d="M143 158l-6 536h50l-7 -536h-37zM347 158l-6 536h50l-7 -536h-37zM164 -10c-32 0 -43 6 -43 44s11 43 43 43c30 0 41 -5 41 -43s-11 -44 -41 -44zM367 -10c-31 0 -42 6 -42 44s11 43 42 43c30 0 41 -5 41 -43s-11 -44 -41 -44z" />
    <glyph glyph-name="uni203D" unicode="&#x203d;" horiz-adv-x="419" 
d="M155 156l-5 508c-44 -2 -81 -10 -123 -24v41c50 16 99 25 161 25c139 0 206 -56 206 -181c0 -186 -196 -155 -196 -315v-54h-43zM193 315c11 21 31 38 60 60c69 52 95 84 95 150c0 109 -55 139 -151 139zM180 -10c-32 0 -43 6 -43 44s11 43 43 43c30 0 41 -5 41 -43
s-11 -44 -41 -44z" />
    <glyph glyph-name="uni203E" unicode="&#x203e;" horiz-adv-x="500" 
d="M0 809v43h500v-43h-500z" />
    <glyph glyph-name="fraction" unicode="&#x2044;" horiz-adv-x="119" 
d="M-170 0l409 694h50l-407 -694h-52z" />
    <glyph glyph-name="uni2070" unicode="&#x2070;" 
d="M205 406c-92 0 -150 43 -150 214s58 214 150 214c93 0 150 -43 150 -214s-57 -214 -150 -214zM205 445c71 0 104 36 104 175s-33 175 -104 175s-104 -36 -104 -175s33 -175 104 -175z" />
    <glyph glyph-name="uni2074" unicode="&#x2074;" 
d="M347 557v-39h-55v-106h-44v106h-216v50l203 260h57v-271h55zM72 557h176v223h-4l-172 -219v-4z" />
    <glyph glyph-name="uni2075" unicode="&#x2075;" 
d="M171 406c-35 0 -64 3 -92 8v41c30 -7 56 -10 92 -10c79 0 131 25 131 97c0 65 -36 94 -137 94c-23 0 -55 -4 -83 -9l30 201h203v-39h-168l-20 -122c19 3 37 4 55 4c108 0 165 -37 165 -126c0 -100 -70 -139 -176 -139z" />
    <glyph glyph-name="uni2076" unicode="&#x2076;" 
d="M200 406c-81 0 -145 38 -145 168c0 153 69 260 235 260v-39c-117 0 -177 -67 -185 -148h2c17 17 52 37 104 37c83 0 132 -46 132 -135c0 -80 -37 -143 -143 -143zM200 445c68 0 100 35 100 104c0 66 -36 99 -93 99c-72 0 -107 -37 -107 -88c0 -77 35 -115 100 -115z" />
    <glyph glyph-name="uni2077" unicode="&#x2077;" 
d="M99 412l199 377h-255v39h296v-45l-192 -371h-48z" />
    <glyph glyph-name="uni2078" unicode="&#x2078;" 
d="M198 406c-94 0 -150 37 -150 116c0 64 40 93 78 105v2c-38 16 -62 44 -62 95c0 64 40 110 134 110c98 0 135 -46 135 -110c0 -48 -20 -79 -62 -95v-2c44 -12 78 -41 78 -105c0 -80 -55 -116 -151 -116zM198 644c70 0 93 34 93 77c0 47 -30 77 -93 77
c-62 0 -92 -27 -92 -77c0 -43 21 -77 92 -77zM198 444c77 0 107 32 107 80c0 58 -33 85 -107 85c-71 0 -106 -27 -106 -85c0 -48 30 -80 106 -80z" />
    <glyph glyph-name="uni2079" unicode="&#x2079;" 
d="M112 405l1 39c118 0 176 67 185 150h-2c-18 -19 -52 -36 -104 -36c-83 0 -132 43 -132 132c0 80 38 144 144 144c81 0 143 -40 143 -169c0 -153 -67 -260 -235 -260zM196 594c71 0 107 34 107 85c0 77 -34 117 -100 117c-67 0 -100 -36 -100 -106c0 -65 35 -96 93 -96z
" />
    <glyph glyph-name="uni207A" unicode="&#x207a;" horiz-adv-x="433" 
d="M380 640v-38h-144v-145h-38v145h-145v38h145v144h38v-144h144z" />
    <glyph glyph-name="uni207B" unicode="&#x207b;" horiz-adv-x="433" 
d="M44 602v38h345v-38h-345z" />
    <glyph glyph-name="uni207C" unicode="&#x207c;" horiz-adv-x="433" 
d="M44 674v38h345v-38h-345zM44 530v38h345v-38h-345z" />
    <glyph glyph-name="uni207D" unicode="&#x207d;" horiz-adv-x="207" 
d="M145 353c-54 82 -81 173 -81 265c0 98 29 188 82 271h42c-57 -93 -82 -176 -82 -268s25 -178 81 -268h-42z" />
    <glyph glyph-name="uni207E" unicode="&#x207e;" horiz-adv-x="207" 
d="M19 353c57 94 82 177 82 268c0 93 -25 178 -80 268h41c54 -81 81 -172 81 -265c0 -98 -29 -188 -82 -271h-42z" />
    <glyph glyph-name="uni207F" unicode="&#x207f;" horiz-adv-x="459" 
d="M254 612c95 0 116 -48 116 -105v-225h-45v207c0 44 -6 84 -77 84c-46 0 -94 -11 -110 -71v-220h-44v324h44v-50c16 41 65 56 116 56z" />
    <glyph glyph-name="uni2080" unicode="&#x2080;" 
d="M205 -146c-92 0 -150 43 -150 214s58 214 150 214c93 0 150 -43 150 -214s-57 -214 -150 -214zM205 -107c71 0 104 36 104 175s-33 175 -104 175s-104 -36 -104 -175s33 -175 104 -175z" />
    <glyph glyph-name="uni2081" unicode="&#x2081;" 
d="M191 -140v374l-112 -20v38l130 24h28v-416h-46z" />
    <glyph glyph-name="uni2082" unicode="&#x2082;" 
d="M51 -140v48c194 141 225 194 225 256c0 61 -43 80 -99 80c-30 0 -62 -4 -94 -11v39c30 7 60 10 98 10c85 0 141 -31 141 -117c0 -79 -45 -135 -189 -241l-27 -20v-4h237v-40h-292z" />
    <glyph glyph-name="uni2083" unicode="&#x2083;" 
d="M162 -146c-37 0 -71 3 -101 8v41c37 -8 71 -10 103 -10c72 0 124 20 124 80c0 68 -54 84 -135 84h-35v36h35c83 0 125 33 125 79c0 50 -34 72 -105 72c-24 0 -59 -4 -88 -12v39c22 6 55 11 91 11c97 0 145 -34 145 -107c0 -56 -34 -83 -83 -96v-4c66 -10 95 -44 95 -103
c0 -74 -53 -118 -171 -118z" />
    <glyph glyph-name="uni2084" unicode="&#x2084;" 
d="M347 5v-39h-55v-106h-44v106h-216v50l203 260h57v-271h55zM72 5h176v223h-4l-172 -219v-4z" />
    <glyph glyph-name="uni2085" unicode="&#x2085;" 
d="M171 -146c-35 0 -64 3 -92 8v41c30 -7 56 -10 92 -10c79 0 131 25 131 97c0 65 -36 94 -137 94c-23 0 -55 -4 -83 -9l30 201h203v-39h-168l-20 -122c19 3 37 4 55 4c108 0 165 -37 165 -126c0 -100 -70 -139 -176 -139z" />
    <glyph glyph-name="uni2086" unicode="&#x2086;" 
d="M200 -146c-81 0 -145 38 -145 168c0 153 69 260 235 260v-39c-117 0 -177 -67 -185 -148h2c17 17 52 37 104 37c83 0 132 -46 132 -135c0 -80 -37 -143 -143 -143zM200 -108c68 0 100 36 100 105c0 66 -36 99 -93 99c-72 0 -107 -37 -107 -88c0 -77 35 -116 100 -116z
" />
    <glyph glyph-name="uni2087" unicode="&#x2087;" 
d="M99 -140l199 377h-255v39h296v-45l-192 -371h-48z" />
    <glyph glyph-name="uni2088" unicode="&#x2088;" 
d="M198 -146c-94 0 -150 37 -150 116c0 64 40 93 78 105v2c-38 16 -62 44 -62 95c0 64 40 110 134 110c98 0 135 -46 135 -110c0 -48 -20 -79 -62 -95v-2c44 -12 78 -41 78 -105c0 -80 -55 -116 -151 -116zM198 92c70 0 93 34 93 77c0 47 -30 77 -93 77
c-62 0 -92 -27 -92 -77c0 -43 21 -77 92 -77zM198 -108c77 0 107 32 107 80c0 58 -33 85 -107 85c-71 0 -106 -27 -106 -85c0 -48 30 -80 106 -80z" />
    <glyph glyph-name="uni2089" unicode="&#x2089;" 
d="M112 -147l1 39c118 0 176 67 185 150h-2c-18 -19 -52 -36 -104 -36c-83 0 -132 43 -132 132c0 80 38 144 144 144c81 0 143 -40 143 -169c0 -153 -67 -260 -235 -260zM196 42c71 0 107 34 107 85c0 77 -34 117 -100 117c-67 0 -100 -36 -100 -106c0 -65 35 -96 93 -96z
" />
    <glyph glyph-name="uni208A" unicode="&#x208a;" horiz-adv-x="433" 
d="M380 95v-39h-144v-144h-38v144h-145v39h145v144h38v-144h144z" />
    <glyph glyph-name="uni208B" unicode="&#x208b;" horiz-adv-x="433" 
d="M44 56v39h345v-39h-345z" />
    <glyph glyph-name="uni208C" unicode="&#x208c;" horiz-adv-x="433" 
d="M44 129v38h345v-38h-345zM44 -16v38h345v-38h-345z" />
    <glyph glyph-name="uni208D" unicode="&#x208d;" horiz-adv-x="207" 
d="M145 -192c-54 81 -81 173 -81 265c0 98 29 188 82 271h42c-57 -93 -82 -176 -82 -268c0 -93 25 -178 81 -268h-42z" />
    <glyph glyph-name="uni208E" unicode="&#x208e;" horiz-adv-x="207" 
d="M19 -192c57 93 82 176 82 268c0 93 -25 178 -80 268h41c54 -81 81 -173 81 -265c0 -98 -29 -188 -82 -271h-42z" />
    <glyph glyph-name="florin" unicode="&#x192;" horiz-adv-x="545" 
d="M402 661c-76 0 -107 -41 -107 -171v-55h124v-41h-124v-204c0 -140 -56 -197 -152 -197c-19 0 -49 2 -67 5v41c17 -3 38 -5 68 -5c76 0 106 42 106 172v188h-115v41h115v70c0 140 56 197 153 197c19 0 49 -2 67 -5v-41c-18 3 -38 5 -68 5z" />
    <glyph glyph-name="franc" unicode="&#x20a3;" horiz-adv-x="499" 
d="M451 651h-312v-239h292v-43h-292v-150h167v-38h-167v-181h-47v181h-88v38h88v475h359v-43z" />
    <glyph glyph-name="lira" unicode="&#x20a4;" horiz-adv-x="548" 
d="M170 44h334v-44h-397v35c56 58 84 122 84 197c0 9 0 17 -1 25h-114v38h110c-7 39 -18 72 -29 106h-81v38h71c-7 26 -11 53 -11 83c0 120 71 183 216 183c44 0 87 -7 130 -20v-42c-49 15 -96 21 -141 21c-106 0 -160 -46 -160 -138c0 -32 5 -60 11 -87h223v-38h-212
c10 -34 21 -67 28 -106h184v-38h-180c1 -8 1 -17 1 -26c0 -68 -22 -131 -66 -187z" />
    <glyph glyph-name="peseta" unicode="&#x20a7;" horiz-adv-x="545" 
d="M539 490v-38h-80c-6 -140 -67 -201 -242 -201h-77v-251h-48v452h-82v38h82v204h125c184 0 238 -63 242 -204h80zM140 652v-162h270c-4 119 -54 162 -200 162h-70zM210 293c145 0 195 32 200 159h-270v-159h70z" />
    <glyph glyph-name="Euro" unicode="&#x20ac;" horiz-adv-x="545" 
d="M356 33c61 0 104 9 146 24v-41c-40 -15 -86 -26 -147 -26c-132 0 -229 52 -250 265h-79v37h76c-1 17 -1 36 -1 55c0 17 0 33 1 49h-76v38h79c22 201 125 270 264 270c56 0 91 -6 126 -14v-45c-33 9 -71 16 -126 16c-119 0 -196 -60 -215 -227h242v-38h-245
c-1 -16 -1 -32 -1 -49c0 -19 0 -38 1 -55h245v-37h-242c18 -174 91 -222 202 -222z" />
    <glyph glyph-name="uni20B9" unicode="&#x20b9;" horiz-adv-x="545" 
d="M502 694v-42h-177c53 -22 77 -64 80 -144h97v-42h-98c-7 -139 -76 -182 -245 -184l275 -282h-66l-269 282v42h45c145 0 205 17 212 142h-257v42h258c-5 118 -65 144 -213 144h-45v42h403z" />
    <glyph glyph-name="uni20BA" unicode="&#x20ba;" horiz-adv-x="545" 
d="M467 219l46 -3c-14 -135 -90 -235 -243 -235c-78 0 -123 16 -169 31v211l-77 -49l-21 34l98 63v117l-77 -49l-21 35l98 63v257h48v-227l147 94l22 -34l-169 -108v-118l148 95l21 -34l-169 -108v-209c34 -12 73 -20 127 -20c116 0 178 77 191 194z" />
    <glyph glyph-name="uni20BD" unicode="&#x20bd;" horiz-adv-x="545" 
d="M274 328h-107v-119h200v-43h-200v-166h-47v166h-97v43h97v119h-97v42h97v324h154c189 0 239 -68 239 -182c0 -121 -53 -184 -239 -184zM167 652v-282h100c151 0 196 37 196 142c0 93 -44 140 -196 140h-100z" />
    <glyph glyph-name="uni2105" unicode="&#x2105;" horiz-adv-x="776" 
d="M199 336c-106 0 -150 47 -150 186c0 141 44 186 150 186c40 0 72 -6 91 -11v-37c-27 9 -58 13 -88 13c-85 0 -114 -36 -114 -151c0 -112 30 -149 114 -149c34 0 63 6 89 16v-35c-19 -8 -56 -18 -92 -18zM134 0l409 694h50l-407 -694h-52zM572 -10
c-109 0 -153 47 -153 186c0 140 44 186 153 186c110 0 154 -46 154 -186c0 -139 -44 -186 -154 -186zM572 24c90 0 116 40 116 152s-26 153 -116 153c-89 0 -115 -41 -115 -153s26 -152 115 -152z" />
    <glyph glyph-name="uni2113" unicode="&#x2113;" horiz-adv-x="357" 
d="M225 -15c-64 0 -103 38 -103 117v152l-82 -72l-24 27l106 98v268c0 91 35 140 102 140c61 0 95 -45 95 -123c0 -106 -47 -196 -157 -304v-178c0 -59 25 -87 70 -87c34 0 63 16 89 40v-44c-28 -22 -61 -34 -96 -34zM162 344c78 77 116 155 116 245c0 57 -21 88 -57 88
c-39 0 -59 -33 -59 -102v-231z" />
    <glyph glyph-name="uni2116" unicode="&#x2116;" horiz-adv-x="1106" 
d="M92 0v694h75l399 -613h6v613h47v-694h-56l-418 646h-6v-646h-47zM883 162c-121 0 -169 52 -169 209s51 209 175 209c121 0 171 -51 171 -206c0 -159 -52 -212 -177 -212zM883 203c100 0 130 44 130 171c0 122 -29 165 -124 165c-99 0 -128 -43 -128 -168
c0 -124 27 -168 122 -168zM758 2v38h258v-38h-258z" />
    <glyph glyph-name="uni2117" unicode="&#x2117;" horiz-adv-x="806" 
d="M402 -13c-212 0 -359 146 -359 358c0 211 147 363 362 363c209 0 358 -148 358 -357c0 -212 -152 -364 -361 -364zM403 27c186 0 315 136 315 322c0 191 -126 319 -315 319c-187 0 -315 -137 -315 -320c0 -192 126 -321 315 -321zM269 124v426h134
c143 0 187 -43 187 -139c0 -98 -49 -139 -187 -139h-89v-148h-45zM314 313h80c117 0 148 21 148 99c0 71 -31 97 -148 97h-80v-196z" />
    <glyph glyph-name="trademark" unicode="&#x2122;" horiz-adv-x="858" 
d="M325 698v-41h-135v-375h-47v375h-136v41h318zM724 698h75v-416h-47v369h-4l-128 -271h-51l-128 271h-4v-369h-45v416h75l126 -270h4z" />
    <glyph glyph-name="estimated" unicode="&#x212e;" horiz-adv-x="903" 
d="M452 -3c-243 0 -382 156 -382 335c0 180 143 351 380 351c293 0 382 -190 382 -353h-617c-3 0 -5 -1 -5 -5v-176c0 -9 2 -22 7 -28c50 -63 132 -99 232 -99c109 0 183 46 249 108h67c-75 -90 -156 -133 -313 -133zM215 350h472c3 0 5 1 5 5v180c0 9 -4 18 -10 25
c-64 80 -168 99 -235 99c-75 0 -161 -28 -228 -97c-6 -6 -9 -16 -9 -26v-181c0 -4 2 -5 5 -5z" />
    <glyph glyph-name="oneeighth" unicode="&#x215b;" horiz-adv-x="870" 
d="M191 282v374l-112 -20v38l130 24h28v-416h-46zM184 0l408 694h51l-407 -694h-52zM671 -6c-94 0 -150 37 -150 116c0 64 40 93 78 105v2c-38 16 -62 44 -62 95c0 64 40 110 134 110c98 0 135 -46 135 -110c0 -48 -20 -79 -62 -95v-2c44 -12 78 -41 78 -105
c0 -80 -55 -116 -151 -116zM671 232c70 0 93 34 93 77c0 47 -30 77 -93 77c-62 0 -92 -27 -92 -77c0 -43 21 -77 92 -77zM671 32c77 0 107 32 107 80c0 58 -33 85 -107 85c-71 0 -106 -27 -106 -85c0 -48 30 -80 106 -80z" />
    <glyph glyph-name="threeeighths" unicode="&#x215c;" horiz-adv-x="912" 
d="M162 276c-37 0 -71 3 -101 8v41c37 -8 71 -10 103 -10c72 0 124 20 124 80c0 68 -54 84 -135 84h-35v36h35c83 0 125 33 125 79c0 50 -34 72 -105 72c-24 0 -59 -4 -88 -12v39c22 6 55 11 91 11c97 0 145 -34 145 -107c0 -56 -34 -83 -83 -96v-4c66 -10 95 -44 95 -103
c0 -74 -53 -118 -171 -118zM226 0l409 694h50l-407 -694h-52zM713 -6c-94 0 -150 37 -150 116c0 64 40 93 78 105v2c-38 16 -62 44 -62 95c0 64 40 110 134 110c98 0 135 -46 135 -110c0 -48 -20 -79 -62 -95v-2c44 -12 78 -41 78 -105c0 -80 -55 -116 -151 -116zM713 232
c70 0 93 34 93 77c0 47 -30 77 -93 77c-62 0 -92 -27 -92 -77c0 -43 21 -77 92 -77zM713 32c77 0 107 32 107 80c0 58 -33 85 -107 85c-71 0 -106 -27 -106 -85c0 -48 30 -80 106 -80z" />
    <glyph glyph-name="fiveeighths" unicode="&#x215d;" horiz-adv-x="912" 
d="M171 276c-35 0 -64 3 -92 8v41c30 -7 56 -10 92 -10c79 0 131 25 131 97c0 65 -36 94 -137 94c-23 0 -55 -4 -83 -9l30 201h203v-39h-168l-20 -122c19 3 37 4 55 4c108 0 165 -37 165 -126c0 -100 -70 -139 -176 -139zM226 0l409 694h50l-407 -694h-52zM713 -6
c-94 0 -150 37 -150 116c0 64 40 93 78 105v2c-38 16 -62 44 -62 95c0 64 40 110 134 110c98 0 135 -46 135 -110c0 -48 -20 -79 -62 -95v-2c44 -12 78 -41 78 -105c0 -80 -55 -116 -151 -116zM713 232c70 0 93 34 93 77c0 47 -30 77 -93 77c-62 0 -92 -27 -92 -77
c0 -43 21 -77 92 -77zM713 32c77 0 107 32 107 80c0 58 -33 85 -107 85c-71 0 -106 -27 -106 -85c0 -48 30 -80 106 -80z" />
    <glyph glyph-name="seveneighths" unicode="&#x215e;" horiz-adv-x="852" 
d="M99 282l199 377h-255v39h296v-45l-192 -371h-48zM166 0l409 694h50l-406 -694h-53zM654 -6c-95 0 -150 37 -150 116c0 64 39 93 77 105v2c-38 16 -62 44 -62 95c0 64 40 110 135 110c97 0 134 -46 134 -110c0 -48 -19 -79 -62 -95v-2c44 -12 78 -41 78 -105
c0 -80 -55 -116 -150 -116zM654 232c69 0 92 34 92 77c0 47 -30 77 -92 77c-63 0 -92 -27 -92 -77c0 -43 21 -77 92 -77zM654 32c76 0 107 32 107 80c0 58 -34 85 -107 85c-72 0 -107 -27 -107 -85c0 -48 31 -80 107 -80z" />
    <glyph glyph-name="uni03A9" unicode="&#x3a9;" horiz-adv-x="721" 
d="M67 0v40h157c-100 75 -152 175 -152 334c0 235 91 330 288 330c196 0 288 -95 288 -330c0 -159 -52 -259 -152 -334h157v-40h-212v39c119 99 158 198 158 334c0 192 -57 288 -239 288c-181 0 -239 -96 -239 -288c0 -136 39 -235 158 -334v-39h-212z" />
    <glyph glyph-name="partialdiff" unicode="&#x2202;" horiz-adv-x="529" 
d="M246 0c-109 0 -192 77 -192 213c0 127 82 211 203 211c80 0 137 -40 168 -83c-2 223 -51 344 -189 344c-49 0 -90 -18 -127 -48l-22 31c43 35 93 55 154 55c156 0 226 -134 226 -374c0 -228 -78 -349 -221 -349zM248 36c107 0 169 98 174 254c-38 58 -92 95 -165 95
c-97 0 -160 -65 -160 -171c0 -112 65 -178 151 -178z" />
    <glyph glyph-name="uni0394" unicode="&#x394;" horiz-adv-x="607" 
d="M339 694l245 -642v-52h-560v52l247 642h68zM71 45h463l-224 604h-10z" />
    <glyph glyph-name="product" unicode="&#x220f;" horiz-adv-x="671" 
d="M671 694v-43h-102v-851h-48v851h-372v-851h-47v851h-102v43h671z" />
    <glyph glyph-name="summation" unicode="&#x2211;" horiz-adv-x="552" 
d="M46 -200v52l232 405l-220 385v52h426v-43h-379l227 -394l-237 -412h422v-45h-471z" />
    <glyph glyph-name="minus" unicode="&#x2212;" horiz-adv-x="550" 
d="M35 278v45h480v-45h-480z" />
    <glyph glyph-name="uni2215" unicode="&#x2215;" horiz-adv-x="468" 
d="M17 -30l391 754h43l-390 -754h-44z" />
    <glyph glyph-name="uni2219" unicode="&#x2219;" horiz-adv-x="550" 
d="M276 252c-32 0 -43 5 -43 43s11 44 43 44c30 0 41 -6 41 -44s-11 -43 -41 -43z" />
    <glyph glyph-name="radical" unicode="&#x221a;" horiz-adv-x="600" 
d="M300 -200l-171 372l-81 -37l-16 39l122 56l161 -359l170 823h47l-189 -894h-43z" />
    <glyph glyph-name="infinity" unicode="&#x221e;" horiz-adv-x="680" 
d="M162 112c-76 0 -128 63 -128 156c0 92 53 157 127 157c69 0 120 -54 179 -127c63 76 112 129 177 129c76 0 129 -64 129 -157c0 -94 -51 -158 -128 -158c-57 0 -116 39 -177 121c-66 -74 -113 -121 -179 -121zM520 150c51 0 84 49 84 118c0 71 -33 120 -86 120
c-52 0 -98 -58 -147 -123c56 -75 106 -115 149 -115zM164 150c41 0 92 40 148 115c-61 79 -113 122 -151 122c-49 0 -85 -52 -85 -119c0 -71 34 -118 88 -118z" />
    <glyph glyph-name="integral" unicode="&#x222b;" horiz-adv-x="531" 
d="M171 -200c-40 0 -70 21 -70 53c0 19 17 36 38 36c12 0 22 -7 32 -21s17 -21 21 -21c9 0 16 10 21 29c5 20 7 62 7 125v488c0 110 12 183 35 218s55 53 95 53c43 0 80 -20 80 -56c0 -25 -19 -39 -42 -39c-13 0 -24 8 -35 22s-18 21 -23 21c-11 0 -18 -8 -23 -25
s-7 -56 -7 -117v-503c0 -115 -7 -187 -50 -233c-19 -20 -46 -30 -79 -30z" />
    <glyph glyph-name="approxequal" unicode="&#x2248;" horiz-adv-x="600" 
d="M393 345c-61 0 -100 32 -132 60c-33 27 -59 49 -103 49c-49 0 -78 -35 -84 -106l-44 3c8 94 54 147 128 147c60 0 99 -31 131 -58c33 -28 59 -51 104 -51c48 0 77 36 83 107l44 -3c-8 -94 -54 -148 -127 -148zM393 97c-61 0 -100 32 -132 60c-33 27 -59 49 -103 49
c-49 0 -78 -35 -84 -106l-44 3c8 94 54 147 128 147c60 0 99 -31 131 -58c33 -28 59 -51 104 -51c48 0 77 36 83 107l44 -3c-8 -94 -54 -148 -127 -148z" />
    <glyph glyph-name="notequal" unicode="&#x2260;" horiz-adv-x="550" 
d="M515 387h-141l-134 -173h275v-46h-310l-78 -95h-57l79 95h-114v46h149l134 173h-283v45h314l74 95h57l-75 -95h110v-45z" />
    <glyph glyph-name="lessequal" unicode="&#x2264;" horiz-adv-x="550" 
d="M515 570v-45l-460 -185l460 -184v-45l-480 196v67zM35 30v41h480v-41h-480z" />
    <glyph glyph-name="greaterequal" unicode="&#x2265;" horiz-adv-x="550" 
d="M35 570l480 -196v-67l-480 -196v45l460 184l-460 185v45zM35 30v41h480v-41h-480z" />
    <glyph glyph-name="lozenge" unicode="&#x25ca;" horiz-adv-x="600" 
d="M286 -105l-178 401l178 398h27l179 -398l-179 -401h-27zM300 -45l148 341l-148 340l-148 -340z" />
    <glyph glyph-name="uni0326" unicode="&#x326;" horiz-adv-x="0" 
d="M-204 -199c26 46 48 95 48 138h54c0 -41 -32 -94 -68 -138h-34z" />
    <glyph glyph-name="A.001" horiz-adv-x="659" 
d="M601 0l-95 230h-356l-95 -230h-50l287 694h73l287 -694h-51zM167 273h322l-154 374h-14z" />
    <glyph glyph-name="J.001" horiz-adv-x="349" 
d="M102 -9c-29 0 -54 4 -74 8v44c19 -4 42 -9 76 -9c79 0 109 48 109 140v520h48v-534c0 -95 -43 -169 -159 -169z" />
    <glyph glyph-name="dotlessi" unicode="&#x131;" horiz-adv-x="236" 
d="M95 0v540h45v-540h-45z" />
    <glyph glyph-name="uni0237" unicode="&#x237;" horiz-adv-x="236" 
d="M-4 -200c-21 0 -40 2 -61 6v42c26 -4 48 -6 61 -6c75 0 99 32 99 155v543h45v-554c0 -157 -58 -186 -144 -186z" />
    <glyph glyph-name="l.001" horiz-adv-x="232" 
d="M94 0v760h45v-760h-45z" />
    <glyph glyph-name="uni2099" unicode="&#x2099;" horiz-adv-x="459" 
d="M254 192c95 0 116 -48 116 -105v-225h-45v207c0 44 -6 84 -77 84c-46 0 -94 -11 -110 -71v-220h-44v324h44v-50c16 41 65 56 116 56z" />
    <glyph glyph-name="zero.lf" horiz-adv-x="563" 
d="M282 -10c-143 0 -227 71 -227 357c0 285 84 357 227 357s226 -72 226 -357c0 -286 -83 -357 -226 -357zM282 32c121 0 177 66 177 315c0 248 -56 315 -177 315c-122 0 -178 -67 -178 -315c0 -249 56 -315 178 -315z" />
    <glyph glyph-name="one.lf" horiz-adv-x="383" 
d="M188 0v647l-175 -34v41l197 40h25v-694h-47z" />
    <glyph glyph-name="two.lf" horiz-adv-x="524" 
d="M41 0v52c296 238 354 337 354 459c0 109 -62 151 -161 151c-46 0 -90 -7 -141 -20v47c43 9 89 15 141 15c125 0 209 -45 209 -192c0 -142 -77 -239 -297 -426l-42 -36v-6h376v-44h-439z" />
    <glyph glyph-name="three.lf" horiz-adv-x="503" 
d="M195 -10c-50 0 -108 6 -155 15v45c57 -13 107 -18 160 -18c119 0 203 41 203 149c0 117 -70 157 -218 157h-56v42h55c137 0 201 65 201 146c0 93 -54 136 -171 136c-38 0 -87 -6 -136 -20v44c41 12 89 18 139 18c146 0 215 -59 215 -176c0 -94 -58 -142 -133 -163v-6
c107 -15 151 -72 151 -177c0 -118 -77 -192 -255 -192z" />
    <glyph glyph-name="four.lf" horiz-adv-x="554" 
d="M505 230v-42h-86v-188h-46v188h-341v57l323 449h64v-464h86zM77 230h296v409h-6l-290 -403v-6z" />
    <glyph glyph-name="five.lf" horiz-adv-x="515" 
d="M209 -10c-50 0 -98 6 -140 15v45c45 -12 90 -18 140 -18c133 0 215 53 215 187c0 120 -56 171 -224 171c-34 0 -81 -5 -125 -14l46 318h300v-42h-263l-33 -229c25 5 54 8 88 8c174 0 257 -60 257 -210c0 -168 -104 -231 -261 -231z" />
    <glyph glyph-name="six.lf" horiz-adv-x="545" 
d="M275 -10c-123 0 -214 64 -214 281c0 250 100 433 349 433l-1 -42c-186 1 -278 -130 -292 -279h3c29 37 82 72 170 72c130 0 197 -79 197 -226c0 -131 -45 -239 -212 -239zM278 32c116 0 162 67 162 198c0 123 -55 184 -152 184c-119 0 -179 -68 -179 -161
c0 -149 58 -221 169 -221z" />
    <glyph glyph-name="seven.lf" horiz-adv-x="491" 
d="M113 0l316 652h-408v42h452v-50l-309 -644h-51z" />
    <glyph glyph-name="eight.lf" horiz-adv-x="545" 
d="M273 -9c-141 0 -225 59 -225 192c0 107 59 158 119 176v4c-60 27 -94 72 -94 157c0 104 54 183 200 183c149 0 198 -79 198 -183c0 -80 -28 -130 -93 -157v-4c70 -18 118 -70 118 -177c0 -132 -78 -191 -223 -191zM273 378c117 0 152 63 152 141c0 87 -47 142 -152 142
c-104 0 -154 -49 -154 -142c0 -78 34 -141 154 -141zM273 33c128 0 177 59 177 149c0 108 -54 156 -177 156c-120 0 -178 -48 -178 -156c0 -90 51 -149 178 -149z" />
    <glyph glyph-name="nine.lf" horiz-adv-x="545" 
d="M137 -10l1 42c187 -1 277 131 291 280h-3c-28 -36 -82 -66 -169 -66c-130 0 -197 74 -197 222c0 131 48 236 215 236c123 0 210 -65 210 -281c0 -250 -100 -433 -348 -433zM259 287c118 0 178 61 178 154c0 148 -54 221 -165 221c-116 0 -166 -64 -166 -195
c0 -122 55 -180 153 -180z" />
    <glyph glyph-name="zero.dnom" 
d="M205 -6c-92 0 -150 43 -150 214s58 214 150 214c93 0 150 -43 150 -214s-57 -214 -150 -214zM205 33c71 0 104 36 104 175s-33 175 -104 175s-104 -36 -104 -175s33 -175 104 -175z" />
    <glyph glyph-name="one.dnom" 
d="M191 0v374l-112 -20v38l130 24h28v-416h-46z" />
    <glyph glyph-name="two.dnom" 
d="M51 0v48c194 141 225 194 225 256c0 61 -43 80 -99 80c-30 0 -62 -4 -94 -11v39c30 7 60 10 98 10c85 0 141 -31 141 -117c0 -79 -45 -135 -189 -241l-27 -20v-4h237v-40h-292z" />
    <glyph glyph-name="three.dnom" 
d="M162 -6c-37 0 -71 3 -101 8v41c37 -8 71 -10 103 -10c72 0 124 20 124 80c0 68 -54 84 -135 84h-35v36h35c83 0 125 33 125 79c0 50 -34 72 -105 72c-24 0 -59 -4 -88 -12v39c22 6 55 11 91 11c97 0 145 -34 145 -107c0 -56 -34 -83 -83 -96v-4c66 -10 95 -44 95 -103
c0 -74 -53 -118 -171 -118z" />
    <glyph glyph-name="four.dnom" 
d="M347 145v-39h-55v-106h-44v106h-216v50l203 260h57v-271h55zM72 145h176v223h-4l-172 -219v-4z" />
    <glyph glyph-name="five.dnom" 
d="M171 -6c-35 0 -64 3 -92 8v41c30 -7 56 -10 92 -10c79 0 131 25 131 97c0 65 -36 94 -137 94c-23 0 -55 -4 -83 -9l30 201h203v-39h-168l-20 -122c19 3 37 4 55 4c108 0 165 -37 165 -126c0 -100 -70 -139 -176 -139z" />
    <glyph glyph-name="six.dnom" 
d="M200 -6c-81 0 -145 38 -145 168c0 153 69 260 235 260v-39c-117 0 -177 -67 -185 -148h2c17 17 52 37 104 37c83 0 132 -46 132 -135c0 -80 -37 -143 -143 -143zM200 33c68 0 100 35 100 104c0 66 -36 99 -93 99c-72 0 -107 -37 -107 -88c0 -77 35 -115 100 -115z" />
    <glyph glyph-name="seven.dnom" 
d="M99 0l199 377h-255v39h296v-45l-192 -371h-48z" />
    <glyph glyph-name="eight.dnom" 
d="M198 -6c-94 0 -150 37 -150 116c0 64 40 93 78 105v2c-38 16 -62 44 -62 95c0 64 40 110 134 110c98 0 135 -46 135 -110c0 -48 -20 -79 -62 -95v-2c44 -12 78 -41 78 -105c0 -80 -55 -116 -151 -116zM198 232c70 0 93 34 93 77c0 47 -30 77 -93 77
c-62 0 -92 -27 -92 -77c0 -43 21 -77 92 -77zM198 32c77 0 107 32 107 80c0 58 -33 85 -107 85c-71 0 -106 -27 -106 -85c0 -48 30 -80 106 -80z" />
    <glyph glyph-name="nine.dnom" 
d="M112 -7l1 39c118 0 176 67 185 150h-2c-18 -19 -52 -36 -104 -36c-83 0 -132 43 -132 132c0 80 38 144 144 144c81 0 143 -40 143 -169c0 -153 -67 -260 -235 -260zM196 182c71 0 107 34 107 85c0 77 -34 117 -100 117c-67 0 -100 -36 -100 -106c0 -65 35 -96 93 -96z
" />
    <glyph glyph-name="zero.numr" 
d="M205 276c-92 0 -150 43 -150 214s58 214 150 214c93 0 150 -43 150 -214s-57 -214 -150 -214zM205 315c71 0 104 36 104 175s-33 175 -104 175s-104 -36 -104 -175s33 -175 104 -175z" />
    <glyph glyph-name="one.numr" 
d="M191 282v374l-112 -20v38l130 24h28v-416h-46z" />
    <glyph glyph-name="two.numr" 
d="M51 282v48c194 141 225 194 225 256c0 61 -43 80 -99 80c-30 0 -62 -4 -94 -11v39c30 7 60 10 98 10c85 0 141 -31 141 -117c0 -79 -45 -135 -189 -241l-27 -20v-4h237v-40h-292z" />
    <glyph glyph-name="three.numr" 
d="M162 276c-37 0 -71 3 -101 8v41c37 -8 71 -10 103 -10c72 0 124 20 124 80c0 68 -54 84 -135 84h-35v36h35c83 0 125 33 125 79c0 50 -34 72 -105 72c-24 0 -59 -4 -88 -12v39c22 6 55 11 91 11c97 0 145 -34 145 -107c0 -56 -34 -83 -83 -96v-4c66 -10 95 -44 95 -103
c0 -74 -53 -118 -171 -118z" />
    <glyph glyph-name="four.numr" 
d="M347 427v-39h-55v-106h-44v106h-216v50l203 260h57v-271h55zM72 427h176v223h-4l-172 -219v-4z" />
    <glyph glyph-name="five.numr" 
d="M171 276c-35 0 -64 3 -92 8v41c30 -7 56 -10 92 -10c79 0 131 25 131 97c0 65 -36 94 -137 94c-23 0 -55 -4 -83 -9l30 201h203v-39h-168l-20 -122c19 3 37 4 55 4c108 0 165 -37 165 -126c0 -100 -70 -139 -176 -139z" />
    <glyph glyph-name="six.numr" 
d="M200 276c-81 0 -145 38 -145 168c0 153 69 260 235 260v-39c-117 0 -177 -67 -185 -148h2c17 17 52 37 104 37c83 0 132 -46 132 -135c0 -80 -37 -143 -143 -143zM200 315c68 0 100 35 100 104c0 66 -36 99 -93 99c-72 0 -107 -37 -107 -88c0 -77 35 -115 100 -115z" />
    <glyph glyph-name="seven.numr" 
d="M99 282l199 377h-255v39h296v-45l-192 -371h-48z" />
    <glyph glyph-name="eight.numr" 
d="M198 276c-94 0 -150 37 -150 116c0 64 40 93 78 105v2c-38 16 -62 44 -62 95c0 64 40 110 134 110c98 0 135 -46 135 -110c0 -48 -20 -79 -62 -95v-2c44 -12 78 -41 78 -105c0 -80 -55 -116 -151 -116zM198 514c70 0 93 34 93 77c0 47 -30 77 -93 77
c-62 0 -92 -27 -92 -77c0 -43 21 -77 92 -77zM198 314c77 0 107 32 107 80c0 58 -33 85 -107 85c-71 0 -106 -27 -106 -85c0 -48 30 -80 106 -80z" />
    <glyph glyph-name="nine.numr" 
d="M112 275l1 39c118 0 176 67 185 150h-2c-18 -19 -52 -36 -104 -36c-83 0 -132 43 -132 132c0 80 38 144 144 144c81 0 143 -40 143 -169c0 -153 -67 -260 -235 -260zM196 464c71 0 107 34 107 85c0 77 -34 117 -100 117c-67 0 -100 -36 -100 -106c0 -65 35 -96 93 -96z
" />
    <glyph glyph-name="uni2011" unicode="&#x2011;" horiz-adv-x="420" 
d="M66 288v38h288v-38h-288z" />
    <glyph glyph-name="space.frac" horiz-adv-x="184" 
 />
    <glyph glyph-name="uniFEFF" unicode="&#xfeff;" horiz-adv-x="0" 
 />
    <glyph glyph-name="uni20B3" unicode="&#x20b3;" horiz-adv-x="607" 
d="M593 344h-126l39 -105h87v-36h-74l74 -203h-52l-72 203h-331l-74 -203h-50l75 203h-75v36h89l38 105h-127v37h141l116 313h68l115 -313h139v-37zM300 649l-97 -268h202l-95 268h-10zM456 239l-37 105h-230l-38 -105h305z" />
    <glyph glyph-name="uni20BF" unicode="&#x20bf;" horiz-adv-x="581" 
d="M509 191c0 -105 -39 -167 -156 -185v-144h-37v140c-14 -1 -29 -2 -45 -2h-38v-138h-37v138h-104v694h104v93h37v-93h37c16 0 32 -1 46 -2v95h37v-99c101 -17 132 -72 132 -173c0 -72 -26 -138 -107 -156v-4c95 -19 131 -75 131 -164zM139 652v-276h106
c152 0 193 32 193 139c0 115 -54 137 -200 137h-99zM260 43c161 0 202 44 202 148c0 98 -49 143 -214 143h-109v-291h121z" />
    <glyph glyph-name="uni20B5" unicode="&#x20b5;" horiz-adv-x="577" 
d="M376 33c69 0 113 10 166 30v-42c-44 -18 -98 -31 -167 -31h-19v-128h-37v130c-152 15 -247 96 -247 355c0 233 93 331 247 352v88h37v-84c11 1 23 1 35 1c63 0 103 -6 143 -18v-47c-38 13 -81 22 -144 22c-12 0 -23 0 -34 -1v-627h20zM121 347c0 -218 73 -295 198 -311
v619c-127 -21 -198 -109 -198 -308z" />
    <glyph glyph-name="colonmonetary" unicode="&#x20a1;" horiz-adv-x="577" 
d="M542 63v-42c-43 -18 -96 -30 -163 -31l-12 -128h-37l13 129c-32 1 -62 5 -89 13l-14 -142h-38l15 155c-91 41 -145 135 -145 330c0 215 79 314 211 346l9 94h38l-8 -87c21 3 45 4 69 4h21l8 83h37l-8 -85c32 -3 59 -8 85 -16v-47c-26 9 -54 16 -90 19l-60 -625
c64 1 107 11 158 30zM258 51c27 -10 56 -15 89 -17l61 627h-18c-26 0 -50 -2 -73 -6zM121 347c0 -153 36 -237 101 -278l56 577c-101 -34 -157 -123 -157 -299z" />
    <glyph glyph-name="uni20A2" unicode="&#x20a2;" horiz-adv-x="545" 
d="M493 395c-69 0 -137 -23 -168 -125v-236c10 -1 20 -1 31 -1c61 0 104 9 146 24v-41c-40 -15 -86 -26 -147 -26c-166 0 -283 67 -283 357c0 268 122 357 297 357c56 0 91 -6 126 -14v-45c-33 9 -71 16 -126 16c-156 0 -248 -81 -248 -314c0 -203 58 -283 159 -307v386h45
v-96c29 88 107 106 170 106h7v-41h-9z" />
    <glyph glyph-name="dong" unicode="&#x20ab;" horiz-adv-x="606" 
d="M513 663h77v-41h-77v-622h-38l-5 121c-21 -79 -79 -131 -197 -131c-160 0 -210 95 -210 280c0 169 50 280 210 280c117 0 172 -53 195 -124v196h-196v41h196v97h45v-97zM280 31c146 0 190 100 190 239c0 137 -44 239 -190 239c-139 0 -170 -92 -170 -239
c0 -155 34 -239 170 -239zM63 -138v43h452v-43h-452z" />
    <glyph glyph-name="uni20AF" unicode="&#x20af;" horiz-adv-x="1234" 
d="M322 704c185 0 305 -68 305 -257c0 -218 -91 -447 -376 -447h-208l125 643c-55 -13 -100 -33 -129 -55l13 56c56 35 153 60 270 60zM257 41c248 0 327 209 327 402c0 164 -94 218 -262 218c-38 0 -75 -3 -109 -9l-118 -611h162zM975 550c123 0 196 -57 196 -174
c0 -37 -3 -69 -14 -128c-36 -182 -106 -258 -252 -258c-105 0 -164 47 -176 124l-61 -314h-42l99 507c30 158 88 243 250 243zM1112 250c12 56 15 87 15 120c0 92 -55 141 -157 141c-128 0 -178 -65 -208 -222c-9 -51 -10 -77 -10 -101c0 -104 51 -159 153 -159
c123 0 175 63 207 221z" />
    <glyph glyph-name="uni20B0" unicode="&#x20b0;" horiz-adv-x="897" 
d="M782 661c-76 0 -106 -41 -106 -171v-55h124v-41h-124v-335c0 -140 -56 -197 -153 -197c-19 0 -49 2 -67 5v41c18 -3 38 -5 68 -5c76 0 107 41 107 171v320h-115v41h115v70c0 140 56 197 152 197c20 0 49 -2 67 -5v-41c-17 3 -38 5 -68 5zM224 694c190 0 241 -68 241 -212
c0 -151 -54 -214 -241 -214h-85v-268h-47v694h132zM217 310c152 0 199 37 199 172c0 123 -46 170 -199 170h-78v-342h78z" />
    <glyph glyph-name="uni20B2" unicode="&#x20b2;" horiz-adv-x="659" 
d="M403 352h181v-334c-49 -16 -110 -28 -198 -28h-20v-128h-37v130c-160 14 -257 95 -257 355c0 236 94 334 257 353v87h37v-84c10 1 21 1 32 1c62 0 137 -8 178 -26v-46c-44 17 -106 29 -176 29c-12 0 -23 0 -34 -1v-627c10 -1 20 -1 31 -1c54 0 103 8 140 20v258h-134v42z
M121 347c0 -233 84 -297 208 -312v621c-121 -17 -208 -91 -208 -309z" />
    <glyph glyph-name="uni20B4" unicode="&#x20b4;" horiz-adv-x="545" 
d="M423 415c-27 -32 -74 -50 -144 -69c-42 -12 -75 -23 -100 -36h347v-36h-391c-15 -21 -22 -48 -22 -85c0 -96 47 -142 164 -142c82 0 146 13 193 29v-45c-39 -14 -108 -25 -194 -25c-136 0 -208 58 -208 185c0 33 5 60 16 83h-65v36h90c31 30 81 51 155 72
c40 11 69 21 91 33h-336v37h377c10 17 13 39 13 67c0 103 -53 129 -145 129c-60 0 -123 -9 -166 -26v44c32 12 104 23 167 23c125 0 188 -54 188 -170c0 -27 -3 -49 -9 -67h82v-37h-103z" />
    <glyph glyph-name="uni20AD" unicode="&#x20ad;" horiz-adv-x="563" 
d="M482 0l-280 347h-63v-347h-47v347h-92v44h92v303h47v-303h65l271 303h60l-275 -303h257v-44h-259l286 -347h-62z" />
    <glyph glyph-name="uni20B6" unicode="&#x20b6;" horiz-adv-x="542" 
d="M466 35c28 0 48 2 70 7v-41c-21 -4 -46 -7 -69 -7c-99 0 -135 25 -135 167v338h-194v-499h-45v499h-87v41h87v128h45v-128h194v128h45v-128h148v-41h-148v-340c0 -97 19 -124 89 -124z" />
    <glyph glyph-name="uni20BC" unicode="&#x20bc;" horiz-adv-x="582" 
d="M315 528c137 -12 199 -101 199 -342v-186h-47v166c0 237 -41 308 -152 320v-416h-47v415c-115 -13 -153 -84 -153 -319v-166h-47v186c0 238 65 328 200 341v167h47v-166z" />
    <glyph glyph-name="uni20A5" unicode="&#x20a5;" horiz-adv-x="887" 
d="M636 550c125 0 162 -65 162 -172v-378h-45v350c0 113 -22 159 -123 159c-28 0 -56 -3 -81 -14l-81 -156v-339h-45v252l-203 -390h-46l249 479v9c0 113 -22 159 -122 159c-72 0 -140 -21 -162 -125v-384h-45v540h45v-90c20 74 92 100 167 100c96 0 140 -39 156 -105
c8 34 28 59 55 76l95 183h46l-83 -160c19 4 40 6 61 6z" />
    <glyph glyph-name="uni20A6" unicode="&#x20a6;" horiz-adv-x="592" 
d="M566 396h-68v-104h68v-37h-68v-255h-55l-119 255h-185v-255h-46v255h-67v37h67v104h-67v38h67v260h74l120 -260h165v260h46v-260h68v-38zM139 637v-203h101l-95 203h-6zM139 292h167l-48 104h-119v-104zM452 292v104h-147l48 -104h99zM452 92v163h-82l76 -163h6z" />
    <glyph glyph-name="uni20BB" unicode="&#x20bb;" horiz-adv-x="739" 
d="M446 -8c-133 0 -203 55 -223 173l-73 -69l-26 31l88 83c-5 34 -7 74 -7 119v132h-33c-103 0 -151 40 -151 125c0 71 41 113 109 113c86 0 119 -64 119 -196h255c136 0 196 -55 196 -173c0 -80 -34 -129 -88 -129c-40 0 -65 24 -95 57l-21 24l-78 -78l-68 80l-90 -83
c10 -113 67 -164 185 -164c39 0 76 6 116 20v-46c-31 -11 -67 -19 -115 -19zM158 505h47v29c0 89 -25 131 -77 131c-44 0 -69 -27 -69 -74c0 -58 31 -86 99 -86zM609 239c33 0 49 32 49 92c0 89 -45 130 -150 130h-259v-130c0 -34 2 -60 4 -83l103 94l65 -78l75 76l41 -48
c27 -29 49 -53 72 -53z" />
    <glyph glyph-name="uni20B1" unicode="&#x20b1;" horiz-adv-x="545" 
d="M539 557v-37h-82c1 -16 2 -34 2 -53s-1 -37 -3 -54h83v-37h-89c-22 -96 -89 -137 -233 -137h-77v-239h-48v376h-82v37h82v107h-82v37h82v137h125c150 0 213 -43 234 -137h88zM140 652v-95h259c-21 68 -76 95 -189 95h-70zM410 467c0 19 -1 37 -3 53h-267v-107h267
c2 16 3 34 3 54zM210 281c115 0 170 21 191 95h-261v-95h70z" />
    <glyph glyph-name="uni20A8" unicode="&#x20a8;" horiz-adv-x="1021" 
d="M490 502c0 -126 -43 -178 -150 -194l216 -308h-57l-210 302c-17 -1 -35 -1 -55 -1h-95v-301h-47v694h135c200 0 263 -43 263 -192zM230 343c154 0 213 20 213 159c0 122 -59 150 -213 150h-91v-309h91zM801 299c118 -30 168 -60 168 -157c0 -90 -55 -148 -187 -148
c-56 0 -113 6 -155 16v43c40 -10 96 -18 155 -18c95 0 142 33 142 107c0 64 -26 90 -130 117c-111 28 -156 51 -156 146c0 98 70 145 174 145c58 0 114 -9 140 -18l-3 -44c-33 12 -86 21 -137 21c-77 0 -129 -28 -129 -104c0 -73 41 -87 118 -106z" />
    <glyph glyph-name="uni20AA" unicode="&#x20aa;" horiz-adv-x="695" 
d="M84 694h187c110 0 174 -75 174 -197v-320h-46v321c0 97 -51 156 -134 156h-134v-654h-47v694zM288 517v-476h129c94 0 147 56 147 157v496h47v-495c0 -124 -67 -199 -190 -199h-179v517h46z" />
    <glyph glyph-name="uni20B7" unicode="&#x20b7;" horiz-adv-x="682" 
d="M108 -79v116c-56 29 -86 70 -86 126c0 34 20 66 58 66c31 0 50 -13 60 -49h2c18 35 48 50 86 50c41 0 69 -17 81 -53h2c18 36 52 53 86 53c57 0 88 -31 88 -109v-71c73 19 101 69 101 131c0 101 -48 132 -180 165c-141 34 -194 67 -194 181c0 111 66 178 217 178
c59 0 134 -12 170 -25v-46c-44 17 -106 28 -172 28c-108 0 -168 -37 -168 -135c0 -79 30 -110 161 -140c147 -35 213 -74 213 -206c0 -87 -44 -148 -148 -174v-86h-38v77c-31 -4 -67 -7 -107 -7h-23v-70h-40v72c-46 4 -91 12 -129 26v-98h-40zM108 79v29c0 66 -7 87 -30 87
c-15 0 -22 -15 -22 -32c0 -34 17 -62 52 -84zM277 36v83c0 51 -20 76 -57 76c-50 0 -72 -38 -72 -112v-21c38 -14 82 -22 129 -26zM337 34c43 0 80 2 110 7v78c0 54 -19 76 -58 76c-44 0 -72 -33 -72 -96v-65h20z" />
    <glyph glyph-name="uni20B8" unicode="&#x20b8;" horiz-adv-x="492" 
d="M5 694h482v-43h-482v43zM487 548v-43h-217v-505h-47v505h-218v43h482z" />
    <glyph glyph-name="uni20AE" unicode="&#x20ae;" horiz-adv-x="492" 
d="M487 651h-217v-193l123 78l22 -34l-145 -93v-117l123 78l22 -34l-145 -93v-243h-47v213l-125 -80l-22 35l147 94v117l-126 -80l-21 35l147 94v223h-218v43h482v-43z" />
    <glyph glyph-name="uni20BE" unicode="&#x20be;" horiz-adv-x="545" 
d="M490 386h-45v63c0 112 -35 172 -87 198v-261h-37v273c-12 2 -24 3 -36 3c-20 0 -39 -2 -57 -6v-270h-38v256c-56 -29 -92 -93 -92 -217c0 -150 26 -252 153 -381h239v-44h-439v44h149l-23 24c-95 93 -128 194 -128 357c0 159 58 235 141 264v95h38v-85c18 4 37 5 57 5
c12 0 24 -1 36 -2v82h37v-90c77 -24 132 -94 132 -244v-64z" />
    <glyph glyph-name="uni20A9" unicode="&#x20a9;" horiz-adv-x="680" 
d="M662 396h-76l-16 -104h92v-37h-98l-41 -255h-62l-48 255h-147l-48 -255h-62l-40 255h-98v37h92l-17 104h-75v38h69l-41 260h47l38 -260h131l46 248h65l46 -248h130l38 260h47l-42 -260h70v-38zM337 627l-37 -193h79l-36 193h-6zM137 396l15 -104h84l19 104h-118zM273 292
h133l-20 104h-93zM529 292l15 104h-118l19 -104h84zM193 57l36 198h-71l29 -198h6zM495 57l29 198h-72l37 -198h6z" />
    <glyph glyph-name="uni2126" unicode="&#x2126;" horiz-adv-x="721" 
d="M67 0v40h157c-100 75 -152 175 -152 334c0 235 91 330 288 330c196 0 288 -95 288 -330c0 -159 -52 -259 -152 -334h157v-40h-212v39c119 99 158 198 158 334c0 192 -57 288 -239 288c-181 0 -239 -96 -239 -288c0 -136 39 -235 158 -334v-39h-212z" />
    <glyph glyph-name="uni2206" unicode="&#x2206;" horiz-adv-x="607" 
d="M339 694l245 -642v-52h-560v52l247 642h68zM71 45h463l-224 604h-10z" />
    <glyph glyph-name="uni0308" unicode="&#x308;" horiz-adv-x="0" 
d="M-228 660c-24 0 -31 4 -31 33s7 33 31 33c22 0 30 -4 30 -33s-8 -33 -30 -33zM-75 660c-24 0 -32 4 -32 33s8 33 32 33c21 0 29 -4 29 -33s-8 -33 -29 -33z" />
    <glyph glyph-name="uni0307" unicode="&#x307;" horiz-adv-x="0" 
d="M-152 660c-23 0 -31 4 -31 33s8 33 31 33c22 0 30 -4 30 -33s-8 -33 -30 -33z" />
    <glyph glyph-name="gravecomb" unicode="&#x300;" horiz-adv-x="0" 
d="M-117 615l-128 138h66l93 -138h-31z" />
    <glyph glyph-name="acutecomb" unicode="&#x301;" horiz-adv-x="0" 
d="M-206 615l92 138h67l-128 -138h-31z" />
    <glyph glyph-name="uni030B" unicode="&#x30b;" horiz-adv-x="0" 
d="M-276 615l93 138h66l-128 -138h-31zM-143 615l93 138h67l-129 -138h-31z" />
    <glyph glyph-name="caroncomb.alt" horiz-adv-x="0" 
d="M-169 611c11 25 18 53 18 80c0 21 -4 42 -13 62h43c7 -17 10 -35 10 -53c0 -30 -9 -61 -25 -89h-33z" />
    <glyph glyph-name="uni0302" unicode="&#x302;" horiz-adv-x="0" 
d="M-290 615l104 138h66l104 -138h-31l-106 105l-106 -105h-31z" />
    <glyph glyph-name="uni030C" unicode="&#x30c;" horiz-adv-x="0" 
d="M-186 615l-104 138h31l105 -105l107 105h31l-104 -138h-66z" />
    <glyph glyph-name="uni0306" unicode="&#x306;" horiz-adv-x="0" 
d="M-152 606c-71 0 -122 45 -132 126h36c11 -54 49 -85 94 -85c49 0 87 31 97 85h35c-10 -81 -56 -126 -130 -126z" />
    <glyph glyph-name="uni030A" unicode="&#x30a;" horiz-adv-x="0" 
d="M-152 615c-71 0 -106 36 -106 100c0 63 39 98 106 98c70 0 106 -36 106 -98c0 -65 -36 -100 -106 -100zM-152 651c45 0 66 20 66 63c0 44 -21 64 -66 64s-67 -20 -67 -64c0 -43 22 -63 67 -63z" />
    <glyph glyph-name="tildecomb" unicode="&#x303;" horiz-adv-x="0" 
d="M-90 639c-37 0 -53 12 -71 34c-21 26 -33 35 -52 35c-29 0 -45 -22 -50 -69l-35 3c7 65 40 104 87 104c36 0 52 -17 76 -44c14 -16 25 -25 46 -25c30 0 45 20 51 62l34 -3c-7 -61 -39 -97 -86 -97z" />
    <glyph glyph-name="uni0304" unicode="&#x304;" horiz-adv-x="0" 
d="M-280 673v39h255v-39h-255z" />
    <glyph glyph-name="uni0313" unicode="&#x313;" horiz-adv-x="0" 
d="M-204 637c26 46 48 95 48 138h54c0 -41 -32 -94 -68 -138h-34z" />
    <glyph glyph-name="uni0327" unicode="&#x327;" horiz-adv-x="0" 
d="M-131 -60c51 0 80 -23 80 -63c0 -49 -46 -77 -130 -77c-28 0 -50 1 -74 4v38c24 -3 45 -4 73 -4c46 0 86 8 86 38c0 19 -17 30 -48 30c-36 0 -53 -3 -71 -9l-12 20l90 102l30 -19l-54 -62c10 2 20 2 30 2z" />
    <glyph glyph-name="uni0328" unicode="&#x328;" horiz-adv-x="0" 
d="M-153 -200c-59 0 -97 33 -97 82c0 55 41 94 99 130l30 -12c-60 -33 -79 -68 -79 -109c0 -37 19 -54 53 -54c17 0 36 2 56 9v-33c-13 -5 -39 -13 -62 -13z" />
    <glyph glyph-name="uni0308.case" horiz-adv-x="0" 
d="M-238 756c-24 0 -31 4 -31 33s7 33 31 33c22 0 30 -4 30 -33s-8 -33 -30 -33zM-65 756c-24 0 -32 4 -32 33s8 33 32 33c21 0 29 -4 29 -33s-8 -33 -29 -33z" />
    <glyph glyph-name="uni0307.case" horiz-adv-x="0" 
d="M-152 771c-23 0 -31 4 -31 33s8 33 31 33c22 0 30 -4 30 -33s-8 -33 -30 -33z" />
    <glyph glyph-name="gravecomb.case" horiz-adv-x="0" 
d="M-131 745l-154 138h76l114 -138h-36z" />
    <glyph glyph-name="acutecomb.case" horiz-adv-x="0" 
d="M-206 745l114 138h76l-154 -138h-36z" />
    <glyph glyph-name="uni030B.case" horiz-adv-x="0" 
d="M-273 745l123 138h67l-159 -138h-31zM-150 745l123 138h68l-159 -138h-32z" />
    <glyph glyph-name="uni0302.case" horiz-adv-x="0" 
d="M-303 754l117 130h66l117 -130h-41l-109 93l-109 -93h-41z" />
    <glyph glyph-name="uni030C.case" horiz-adv-x="0" 
d="M-186 754l-117 130h41l108 -93l110 93h41l-117 -130h-66z" />
    <glyph glyph-name="uni0306.case" horiz-adv-x="0" 
d="M-152 747c-76 0 -131 45 -142 126h36c12 -53 54 -85 104 -85c54 0 96 32 107 85h35c-11 -81 -60 -126 -140 -126z" />
    <glyph glyph-name="uni030A.case" horiz-adv-x="0" 
d="M-152 729c-71 0 -106 36 -106 100c0 63 39 98 106 98c70 0 106 -36 106 -98c0 -65 -36 -100 -106 -100zM-152 765c45 0 66 20 66 63c0 44 -21 64 -66 64s-67 -20 -67 -64c0 -43 22 -63 67 -63z" />
    <glyph glyph-name="tildecomb.case" horiz-adv-x="0" 
d="M-78 750c-39 0 -60 12 -83 35c-30 28 -47 34 -63 34c-36 0 -55 -23 -62 -69l-34 3c8 65 44 104 97 104c36 0 58 -15 88 -43c20 -20 34 -27 58 -27c36 0 55 20 62 63l34 -3c-8 -61 -45 -97 -97 -97z" />
    <glyph glyph-name="uni0304.case" horiz-adv-x="0" 
d="M-280 794v39h255v-39h-255z" />
    <glyph glyph-name="tonoscomb" unicode="&#x384;" horiz-adv-x="305" 
d="M102 615l38 138h62l-73 -138h-27z" />
    <glyph glyph-name="dieresistonoscomb" unicode="&#x385;" horiz-adv-x="305" 
d="M123 663l39 138h62l-74 -138h-27zM74 660c-24 0 -31 4 -31 33s7 33 31 33c22 0 30 -4 30 -33s-8 -33 -30 -33zM233 660c-24 0 -32 4 -32 33s8 33 32 33c21 0 29 -4 29 -33s-8 -33 -29 -33z" />
    <glyph glyph-name="brevecy" horiz-adv-x="305" 
d="M153 617c-88 0 -131 43 -132 118h46c1 -56 30 -88 84 -88c58 0 87 32 87 88h45c-1 -75 -45 -118 -130 -118z" />
    <glyph glyph-name="commaaccentturnedcomb" horiz-adv-x="305" 
d="M102 612c0 41 32 94 68 138h34c-26 -46 -48 -95 -48 -138h-54z" />
    </font>
</defs>
</svg>
